{"glyphs":{"0":{"ha":813,"x_min":53,"x_max":761,"o":"m 407 889 q 548 863 483 889 q 660 783 613 838 q 734 644 707 729 q 761 439 761 558 q 732 234 761 319 q 654 94 703 149 q 542 13 606 39 q 407 -14 478 -14 q 266 12 331 -14 q 154 92 201 38 q 80 233 107 147 q 53 439 53 319 q 82 638 53 553 q 160 778 111 722 q 272 862 208 835 q 407 889 336 889 m 222 439 q 238 276 222 340 q 278 176 253 213 q 338 124 304 139 q 408 110 372 110 q 478 125 444 110 q 536 178 511 140 q 576 280 561 217 q 592 439 592 343 q 576 600 592 536 q 535 700 561 664 q 476 751 510 736 q 407 765 443 765 q 338 750 371 765 q 278 698 304 735 q 238 598 253 661 q 222 439 222 535 z "},"1":{"ha":547,"x_min":69,"x_max":429,"o":"m 299 875 l 429 875 l 429 0 l 268 0 l 268 719 l 107 643 l 69 769 l 299 875 z "},"2":{"ha":678,"x_min":56,"x_max":618,"o":"m 308 761 q 224 745 264 761 q 139 693 185 729 l 71 799 q 188 867 128 846 q 324 889 249 889 q 444 869 392 889 q 533 815 497 850 q 586 733 568 781 q 604 631 604 686 q 534 434 604 536 q 338 210 464 332 l 251 129 l 618 129 l 618 0 l 85 0 l 56 111 l 176 232 q 299 360 249 304 q 379 460 349 415 q 424 544 410 506 q 438 619 438 582 q 403 724 438 686 q 308 761 368 761 z "},"3":{"ha":689,"x_min":51,"x_max":608,"o":"m 69 825 q 178 874 121 858 q 303 889 236 889 q 416 872 365 889 q 503 824 467 854 q 558 751 539 793 q 578 661 578 710 q 535 527 578 579 q 432 451 493 475 q 560 378 511 435 q 608 243 608 322 q 583 126 608 175 q 513 47 557 78 q 410 1 468 15 q 286 -14 351 -14 q 158 -1 219 -14 q 51 35 97 11 l 86 154 q 171 124 131 135 q 268 113 211 113 q 334 120 303 113 q 389 144 365 128 q 426 186 413 161 q 439 246 439 211 q 393 345 439 311 q 265 379 347 379 l 164 379 l 164 501 l 239 501 q 365 537 318 501 q 411 642 411 572 q 373 731 411 697 q 278 764 335 764 q 201 753 238 764 q 121 715 165 742 l 69 825 z "},"4":{"ha":765,"x_min":28,"x_max":724,"o":"m 414 875 l 593 875 l 593 338 l 724 338 l 724 208 l 593 208 l 593 0 l 438 0 l 438 208 l 28 208 l 28 313 l 414 875 m 365 578 l 200 338 l 438 338 l 438 565 l 444 719 l 442 719 l 365 578 z "},"5":{"ha":729,"x_min":81,"x_max":643,"o":"m 608 878 l 608 749 l 296 746 l 274 551 q 308 556 293 554 q 343 557 324 557 q 454 542 400 557 q 550 494 508 526 q 617 410 592 461 q 643 288 643 360 q 622 170 643 225 q 556 74 600 115 q 444 10 511 33 q 289 -14 378 -14 q 174 -1 228 -14 q 81 31 121 11 l 115 154 q 190 126 150 138 q 276 115 229 115 q 423 159 372 115 q 474 279 474 203 q 417 400 474 360 q 276 440 361 440 q 201 435 239 440 q 128 422 164 429 l 171 875 l 608 878 z "},"6":{"ha":749,"x_min":56,"x_max":700,"o":"m 449 889 q 540 882 497 889 q 624 857 583 875 l 586 732 q 524 755 557 747 q 453 763 492 763 q 358 743 399 763 q 288 690 317 724 q 244 608 260 656 q 225 506 228 561 q 312 563 261 544 q 418 582 363 582 q 530 563 478 582 q 619 506 582 543 q 678 416 657 469 q 700 294 700 363 q 677 169 700 225 q 613 72 654 113 q 515 8 572 31 q 388 -14 457 -14 q 267 8 326 -14 q 161 80 208 31 q 85 209 114 129 q 56 404 56 289 q 89 627 56 535 q 178 778 122 719 q 303 863 233 836 q 449 889 374 889 m 224 315 q 235 235 224 272 q 268 169 247 197 q 319 124 289 140 q 388 108 350 108 q 449 122 421 108 q 496 161 476 136 q 526 219 515 186 q 536 290 536 253 q 494 416 536 375 q 383 457 453 457 q 298 435 333 457 q 243 385 263 413 q 224 315 224 357 z "},"7":{"ha":688,"x_min":72,"x_max":631,"o":"m 631 875 l 631 768 l 258 -31 l 117 31 l 471 753 l 72 753 l 72 875 l 631 875 z "},"8":{"ha":715,"x_min":46,"x_max":669,"o":"m 363 889 q 487 870 433 889 q 576 820 540 851 q 629 749 611 789 q 647 665 647 708 q 605 547 647 599 q 488 463 563 494 q 619 381 569 432 q 669 246 669 329 q 647 137 669 185 q 582 56 624 89 q 483 4 540 22 q 356 -14 425 -14 q 231 3 288 -14 q 133 53 174 21 q 69 130 92 85 q 46 231 46 175 q 92 367 46 317 q 219 450 139 417 q 115 531 154 479 q 75 649 75 582 q 93 738 75 694 q 147 815 111 781 q 237 869 183 849 q 363 889 290 889 m 232 660 q 272 569 232 603 q 367 518 311 535 q 453 572 417 538 q 489 656 489 607 q 452 740 489 710 q 360 769 415 769 q 265 736 297 769 q 232 660 232 703 m 349 388 q 249 332 288 368 q 211 236 211 296 q 249 145 211 182 q 360 108 288 108 q 466 146 426 108 q 506 236 506 183 q 460 333 506 296 q 349 388 415 371 z "},"9":{"ha":739,"x_min":53,"x_max":683,"o":"m 304 -14 q 187 -3 236 -14 q 103 25 138 7 l 139 147 q 204 123 168 133 q 292 113 240 113 q 453 180 400 113 q 514 369 507 247 q 438 319 483 338 q 336 300 392 300 q 222 319 274 300 q 132 374 169 338 q 74 464 94 411 q 53 585 53 517 q 75 709 53 653 q 139 806 97 765 q 239 867 181 846 q 369 889 297 889 q 487 866 431 889 q 587 793 543 843 q 657 665 631 743 q 683 475 683 586 q 654 253 683 346 q 574 101 625 160 q 453 14 522 42 q 304 -14 385 -14 m 514 558 q 503 639 514 601 q 474 705 493 676 q 426 750 454 733 q 364 767 399 767 q 256 722 296 767 q 217 594 217 678 q 258 466 217 507 q 369 425 300 425 q 447 444 414 425 q 497 490 479 463 q 510 520 507 504 q 514 558 514 536 z "},"\u0000":{"ha":0,"x_min":0,"x_max":0,"o":""},"\r":{"ha":1425,"x_min":0,"x_max":0,"o":""}," ":{"ha":317,"x_min":0,"x_max":0,"o":""},"!":{"ha":357,"x_min":81,"x_max":276,"o":"m 93 986 l 265 986 l 243 304 l 113 304 l 93 986 m 81 86 q 110 158 81 129 q 179 186 139 186 q 248 158 219 186 q 276 86 276 129 q 248 14 276 42 q 179 -14 219 -14 q 110 14 139 -14 q 81 86 81 42 z "},"\"":{"ha":488,"x_min":64,"x_max":424,"o":"m 281 897 l 424 897 l 401 582 l 301 582 l 281 897 m 64 897 l 207 897 l 186 582 l 86 582 l 64 897 z "},"#":{"ha":858,"x_min":49,"x_max":814,"o":"m 360 638 l 322 406 l 510 406 l 547 638 l 360 638 m 611 1028 l 718 1028 l 672 746 l 814 746 l 814 638 l 656 638 l 617 406 l 767 406 l 767 297 l 603 297 l 554 0 l 446 0 l 493 297 l 306 297 l 257 0 l 150 0 l 196 297 l 49 297 l 49 406 l 215 406 l 253 638 l 97 638 l 97 746 l 271 746 l 315 1028 l 422 1028 l 376 744 l 567 744 l 611 1028 z "},"%":{"ha":1124,"x_min":39,"x_max":1083,"o":"m 213 0 l 819 1042 l 924 1042 l 317 0 l 213 0 m 1083 249 q 1068 148 1083 196 q 1023 64 1053 100 q 949 7 993 28 q 847 -14 906 -14 q 747 7 790 -14 q 675 64 704 28 q 631 148 646 100 q 615 249 615 196 q 631 349 615 301 q 678 432 647 396 q 752 490 708 468 q 851 511 796 511 q 950 490 907 511 q 1023 432 993 468 q 1068 349 1053 396 q 1083 249 1083 301 m 956 249 q 950 311 956 281 q 933 365 944 342 q 901 403 921 389 q 851 418 881 418 q 802 404 822 418 q 769 367 782 390 q 749 313 756 344 q 743 249 743 282 q 749 184 743 215 q 767 130 754 153 q 799 93 779 107 q 847 79 818 79 q 929 126 903 79 q 956 249 956 174 m 507 779 q 492 678 507 726 q 447 594 476 631 q 374 538 418 558 q 271 517 329 517 q 171 538 214 517 q 99 594 128 558 q 54 678 69 631 q 39 779 39 726 q 55 879 39 832 q 101 963 71 926 q 176 1020 132 999 q 275 1042 219 1042 q 374 1020 331 1042 q 447 963 417 999 q 492 879 476 926 q 507 779 507 832 m 379 779 q 374 839 379 810 q 357 891 369 868 q 324 928 344 914 q 275 942 304 942 q 226 928 247 942 q 192 893 206 915 q 173 841 179 871 q 167 779 167 811 q 172 715 167 746 q 190 660 178 683 q 223 624 203 638 q 271 610 243 610 q 353 657 328 610 q 379 779 379 704 z "},"&":{"ha":938,"x_min":39,"x_max":940,"o":"m 197 264 q 249 147 197 186 q 385 108 300 108 q 494 131 446 108 q 567 186 542 154 l 322 436 q 235 371 272 413 q 197 264 197 329 m 39 260 q 246 526 39 436 q 187 611 213 561 q 161 718 161 661 q 179 806 161 767 q 231 874 197 846 q 310 916 264 901 q 411 931 356 931 q 507 915 463 931 q 583 872 551 900 q 634 807 615 844 q 653 724 653 769 q 613 604 653 653 q 517 528 574 556 l 439 610 q 488 656 468 626 q 507 721 507 685 q 479 790 507 763 q 408 818 451 818 q 336 792 360 818 q 313 722 313 765 q 341 626 313 671 q 428 524 369 582 l 651 294 q 690 372 671 326 q 725 458 710 417 l 849 408 q 799 292 828 349 q 746 199 769 235 l 940 0 l 749 0 l 654 96 q 542 20 615 54 q 365 -14 469 -14 q 230 6 290 -14 q 127 61 169 25 q 62 147 85 97 q 39 260 39 197 z "},"'":{"ha":271,"x_min":64,"x_max":207,"o":"m 64 897 l 207 897 l 185 582 l 85 582 l 64 897 z "},"(":{"ha":425,"x_min":63,"x_max":376,"o":"m 286 -212 q 203 -92 243 -157 q 131 46 163 -28 q 81 204 100 119 q 63 388 63 289 q 81 572 63 485 q 132 734 100 658 q 204 873 164 810 q 289 986 244 936 l 376 932 q 258 683 306 819 q 211 388 211 547 q 222 238 211 308 q 255 100 233 167 q 307 -30 276 33 q 376 -158 338 -93 l 286 -212 z "},")":{"ha":425,"x_min":49,"x_max":363,"o":"m 138 986 q 222 869 181 932 q 294 731 263 806 q 344 569 325 656 q 363 386 363 483 q 343 203 363 289 q 292 42 324 117 q 220 -97 261 -33 q 138 -212 179 -160 l 49 -156 q 116 -32 86 -94 q 168 97 146 31 q 202 235 190 163 q 214 386 214 307 q 169 680 214 547 q 49 935 124 813 l 138 986 z "},"*":{"ha":503,"x_min":19,"x_max":497,"o":"m 78 569 l 138 647 l 218 715 l 113 722 l 19 751 l 51 847 l 142 819 l 238 764 l 207 867 l 207 960 l 311 960 l 311 867 l 281 764 l 375 819 l 465 847 l 497 751 l 406 722 l 299 715 l 379 647 l 438 569 l 354 508 l 299 586 l 258 686 l 218 586 l 160 508 l 78 569 z "},"+":{"ha":774,"x_min":49,"x_max":725,"o":"m 725 476 l 725 367 l 442 367 l 442 83 l 332 83 l 332 367 l 49 367 l 49 476 l 332 476 l 332 760 l 442 760 l 442 476 l 725 476 z "},",":{"ha":319,"x_min":54,"x_max":278,"o":"m 146 -14 q 81 23 104 -7 q 58 93 58 53 q 85 164 58 133 q 163 194 113 194 q 202 187 182 194 q 239 162 222 179 q 267 115 256 144 q 278 40 278 85 q 263 -45 278 -4 q 225 -121 249 -86 q 169 -183 201 -156 q 103 -229 138 -211 l 54 -162 q 126 -103 94 -140 q 168 -18 158 -67 l 146 -14 z "},"-":{"ha":389,"x_min":42,"x_max":347,"o":"m 347 469 l 347 339 l 42 339 l 42 469 l 347 469 z "},".":{"ha":314,"x_min":68,"x_max":271,"o":"m 68 90 q 99 165 68 135 q 171 194 129 194 q 242 165 213 194 q 271 90 271 135 q 242 14 271 42 q 171 -14 213 -14 q 99 14 129 -14 q 68 90 68 42 z "},"/":{"ha":514,"x_min":-1,"x_max":518,"o":"m -1 -151 l 393 1042 l 518 1042 l 124 -151 l -1 -151 z "},":":{"ha":331,"x_min":64,"x_max":267,"o":"m 64 97 q 94 171 64 142 q 165 200 125 200 q 237 171 207 200 q 267 97 267 142 q 237 20 267 49 q 165 -8 207 -8 q 94 20 125 -8 q 64 97 64 49 m 64 513 q 94 586 64 557 q 165 615 125 615 q 237 586 207 615 q 267 513 267 557 q 237 435 267 464 q 165 407 207 407 q 94 435 125 407 q 64 513 64 464 z "},";":{"ha":326,"x_min":54,"x_max":278,"o":"m 64 485 q 94 558 64 529 q 167 588 125 588 q 238 558 208 588 q 267 485 267 529 q 238 408 267 436 q 167 379 208 379 q 94 408 125 379 q 64 485 64 436 m 146 -14 q 81 23 104 -7 q 58 93 58 53 q 85 164 58 133 q 163 194 113 194 q 202 187 182 194 q 239 162 222 179 q 267 115 256 144 q 278 40 278 85 q 263 -45 278 -4 q 225 -121 249 -86 q 169 -183 201 -156 q 103 -229 138 -211 l 54 -162 q 126 -103 94 -140 q 168 -18 158 -67 l 146 -14 z "},"<":{"ha":675,"x_min":85,"x_max":590,"o":"m 85 306 l 85 400 l 590 685 l 590 557 l 210 353 l 590 149 l 590 21 l 85 306 z "},"=":{"ha":629,"x_min":49,"x_max":581,"o":"m 581 331 l 581 222 l 49 222 l 49 331 l 581 331 m 581 593 l 581 485 l 49 485 l 49 593 l 581 593 z "},">":{"ha":675,"x_min":85,"x_max":590,"o":"m 85 21 l 85 149 l 465 353 l 85 557 l 85 685 l 590 400 l 590 306 l 85 21 z "},"?":{"ha":610,"x_min":74,"x_max":554,"o":"m 283 993 q 398 975 347 993 q 483 926 449 957 q 536 851 518 894 q 554 758 554 808 q 515 626 554 685 q 419 513 476 568 q 369 463 390 483 q 333 424 347 442 q 313 388 319 406 q 306 350 306 371 q 315 294 306 322 l 179 274 q 168 314 172 292 q 164 358 164 336 q 193 462 164 418 q 275 561 222 506 q 322 610 301 588 q 358 655 343 633 q 380 699 372 676 q 388 750 388 722 q 358 827 388 794 q 265 860 329 860 q 200 850 232 860 q 135 817 168 840 l 74 931 q 169 976 114 960 q 283 993 225 993 m 161 86 q 190 158 161 129 q 260 186 219 186 q 328 158 300 186 q 357 86 357 129 q 328 14 357 42 q 260 -14 300 -14 q 190 14 219 -14 q 161 86 161 42 z "},"@":{"ha":1340,"x_min":65,"x_max":1281,"o":"m 774 79 l 771 79 q 676 10 726 33 q 551 -14 625 -14 q 414 35 464 -14 q 364 157 364 83 q 390 265 364 219 q 459 340 415 310 q 563 384 503 369 q 692 399 622 399 l 789 399 l 796 440 q 798 454 797 447 q 799 468 799 461 q 771 531 799 511 q 694 551 743 551 q 608 538 657 551 q 503 494 558 524 l 464 601 q 594 654 531 636 q 728 672 657 672 q 822 662 779 672 q 894 628 864 651 q 940 569 924 606 q 957 482 957 533 q 953 428 957 457 l 917 206 q 913 179 914 190 q 911 157 911 168 q 958 104 911 104 q 1038 137 1003 104 q 1099 220 1074 169 q 1137 333 1124 271 q 1150 456 1150 396 q 1123 612 1150 539 q 1044 739 1096 685 q 919 824 993 793 q 750 854 844 854 q 517 810 621 854 q 342 686 414 767 q 231 494 269 606 q 193 244 193 382 q 233 37 193 121 q 339 -99 274 -47 q 485 -172 404 -150 q 647 -194 565 -194 q 799 -180 736 -194 q 917 -142 861 -165 l 946 -240 q 804 -285 888 -265 q 625 -304 721 -304 q 420 -275 521 -304 q 241 -182 319 -246 q 114 -16 163 -118 q 65 233 65 86 q 120 540 65 406 q 268 769 175 675 q 484 912 361 863 q 744 961 607 961 q 976 922 876 961 q 1144 815 1076 883 q 1247 656 1213 747 q 1281 458 1281 564 q 1251 263 1281 349 q 1172 119 1222 178 q 1053 29 1121 60 q 910 -1 986 -1 q 850 3 878 -1 q 806 14 822 7 l 774 79 m 775 301 l 700 299 q 528 172 528 292 q 554 115 528 132 q 617 97 581 97 q 692 115 657 97 q 754 164 726 132 l 775 301 z "},"[":{"ha":414,"x_min":97,"x_max":375,"o":"m 97 -221 l 97 1006 l 375 1006 l 375 900 l 238 900 l 238 -114 l 375 -114 l 375 -221 l 97 -221 z "},"\\":{"ha":442,"x_min":0,"x_max":442,"o":"m 321 -122 l 0 1000 l 121 1000 l 442 -122 l 321 -122 z "},"]":{"ha":414,"x_min":38,"x_max":315,"o":"m 38 -221 l 38 -114 l 175 -114 l 175 900 l 38 900 l 38 1006 l 315 1006 l 315 -221 l 38 -221 z "},"^":{"ha":708,"x_min":74,"x_max":636,"o":"m 636 571 l 517 571 l 354 901 l 194 571 l 74 571 l 306 1000 l 401 1000 l 636 571 z "},"_":{"ha":515,"x_min":10,"x_max":504,"o":"m 504 -250 l 504 -347 l 10 -347 l 10 -250 l 504 -250 z "},"{":{"ha":451,"x_min":40,"x_max":419,"o":"m 419 874 q 320 836 349 874 q 292 710 292 799 l 292 546 q 267 444 292 482 q 197 388 243 406 l 197 383 q 267 311 242 360 q 292 188 292 263 l 292 25 q 321 -72 292 -44 q 419 -106 350 -100 l 419 -215 q 233 -153 304 -212 q 163 10 163 -94 l 163 201 q 133 298 163 264 q 40 335 104 332 l 40 433 q 133 469 103 440 q 163 563 163 499 l 163 771 q 179 853 163 815 q 228 919 196 892 q 309 963 261 947 q 419 979 357 979 l 419 874 z "},"|":{"ha":325,"x_min":100,"x_max":225,"o":"m 100 -319 l 100 1042 l 225 1042 l 225 -319 l 100 -319 z "},"}":{"ha":451,"x_min":32,"x_max":411,"o":"m 32 982 q 140 965 92 982 q 221 919 188 949 q 272 850 254 890 q 289 763 289 810 l 289 563 q 411 431 289 440 l 411 332 q 319 295 349 326 q 289 201 289 264 l 289 1 q 220 -154 289 -94 q 32 -215 151 -214 l 32 -108 q 131 -73 103 -106 q 160 39 160 -40 l 160 203 q 185 315 160 272 q 254 379 210 358 l 254 383 q 160 561 160 426 l 160 724 q 131 835 160 803 q 32 871 103 867 l 32 982 z "},"~":{"ha":806,"x_min":63,"x_max":743,"o":"m 63 285 q 78 379 63 339 q 119 447 93 419 q 182 489 146 475 q 261 503 218 503 q 342 487 304 503 q 415 451 381 471 q 483 416 450 432 q 547 400 515 400 q 633 501 633 400 l 743 501 q 728 403 743 444 q 689 336 714 363 q 631 297 664 310 q 558 283 597 283 q 476 300 515 283 q 399 336 436 317 q 328 372 363 356 q 260 389 293 389 q 194 358 217 389 q 172 285 172 328 l 63 285 z "},"…":{"ha":1017,"x_min":68,"x_max":968,"o":"m 68 90 q 99 165 68 135 q 171 194 129 194 q 242 165 213 194 q 271 90 271 135 q 242 14 271 42 q 171 -14 213 -14 q 99 14 129 -14 q 68 90 68 42 m 417 90 q 447 165 417 135 q 519 194 478 194 q 590 165 561 194 q 619 90 619 135 q 590 14 619 42 q 519 -14 561 -14 q 447 14 478 -14 q 417 90 417 42 m 765 90 q 796 165 765 135 q 868 194 826 194 q 939 165 910 194 q 968 90 968 135 q 939 14 968 42 q 868 -14 910 -14 q 796 14 826 -14 q 765 90 765 42 z "},"–":{"ha":704,"x_min":58,"x_max":646,"o":"m 646 367 l 646 261 l 58 261 l 58 367 l 646 367 z "},"—":{"ha":1278,"x_min":58,"x_max":1219,"o":"m 1219 365 l 1219 261 l 58 261 l 58 365 l 1219 365 z "},"‘":{"ha":306,"x_min":35,"x_max":257,"o":"m 165 833 q 231 795 208 825 q 254 725 254 765 q 228 654 254 685 q 151 624 201 624 q 111 631 132 624 q 74 658 90 639 q 46 706 57 676 q 35 781 35 736 q 49 865 35 825 q 87 940 63 906 q 142 1002 111 975 q 208 1049 174 1029 l 257 982 q 185 923 217 960 q 143 838 153 886 l 165 833 z "},"’":{"ha":306,"x_min":49,"x_max":271,"o":"m 140 839 q 74 877 97 847 q 51 947 51 907 q 78 1018 51 988 q 156 1049 106 1049 q 196 1041 175 1049 q 233 1015 217 1033 q 260 967 250 997 q 271 894 271 938 q 257 809 271 850 q 219 733 243 768 q 163 670 194 699 q 97 624 132 642 l 49 690 q 121 749 89 713 q 163 835 153 786 l 140 839 z "},"÷":{"ha":754,"x_min":56,"x_max":699,"o":"m 281 115 q 308 180 281 151 q 375 208 336 208 q 440 180 413 208 q 468 115 468 151 q 440 48 468 75 q 375 21 413 21 q 308 48 336 21 q 281 115 281 75 m 281 578 q 308 642 281 614 q 375 671 336 671 q 440 642 413 671 q 468 578 468 614 q 440 510 468 538 q 375 483 413 483 q 308 510 336 483 q 281 578 281 538 m 699 394 l 699 296 l 56 296 l 56 394 l 699 394 z "},"−":{"ha":657,"x_min":56,"x_max":601,"o":"m 601 479 l 601 381 l 56 381 l 56 479 l 601 479 z "},"×":{"ha":597,"x_min":54,"x_max":543,"o":"m 54 246 l 225 417 l 54 589 l 128 663 l 299 492 l 469 661 l 543 588 l 372 417 l 543 247 l 469 174 l 299 343 l 128 172 l 54 246 z "},"$":{"ha":757,"x_min":88,"x_max":664,"o":"m 329 1007 l 440 1007 l 440 858 q 526 841 482 854 q 615 804 571 828 l 571 683 q 478 720 526 707 q 383 733 431 733 q 292 709 328 733 q 256 636 256 685 q 287 569 256 592 q 385 524 318 546 l 449 503 q 609 408 554 468 q 664 257 664 349 q 599 95 664 160 q 419 15 533 31 l 419 -137 l 308 -137 l 308 14 q 194 35 246 19 q 90 83 142 51 l 147 201 q 253 154 200 168 q 351 140 306 140 q 459 168 422 140 q 496 244 496 196 q 465 315 496 289 q 363 364 433 340 l 296 386 q 213 421 251 400 q 147 469 175 442 q 103 534 119 497 q 88 619 88 571 q 105 714 88 671 q 154 788 122 757 q 231 838 186 819 q 329 858 275 856 l 329 1007 z "},"A":{"ha":858,"x_min":10,"x_max":847,"o":"m 304 342 l 547 342 l 501 471 q 465 581 482 529 q 429 693 447 632 l 426 693 q 389 583 407 636 q 350 471 371 529 l 304 342 m 346 875 l 515 875 l 847 0 l 668 0 l 590 215 l 264 215 l 186 0 l 10 0 l 346 875 z "},"B":{"ha":776,"x_min":101,"x_max":715,"o":"m 397 875 q 610 816 532 875 q 689 649 689 757 q 676 577 689 608 q 640 523 663 546 q 589 485 618 500 q 529 461 560 469 q 601 438 567 454 q 660 394 635 421 q 701 330 686 367 q 715 246 715 293 q 692 147 715 192 q 625 69 668 101 q 522 18 582 36 q 389 0 461 0 l 101 0 l 101 875 l 397 875 m 271 519 l 365 519 q 472 547 429 519 q 515 636 515 574 q 477 717 515 690 q 371 744 439 744 l 271 744 l 271 519 m 271 131 l 367 131 q 435 138 403 131 q 490 160 467 144 q 527 201 514 175 q 540 263 540 226 q 525 322 540 297 q 485 361 510 346 q 426 383 460 376 q 357 390 393 390 l 271 390 l 271 131 z "},"C":{"ha":786,"x_min":57,"x_max":746,"o":"m 517 119 q 626 131 582 119 q 707 161 671 142 l 743 33 q 644 0 704 14 q 499 -14 585 -14 q 323 17 404 -14 q 183 105 242 47 q 90 247 124 163 q 57 438 57 331 q 89 626 57 542 q 180 768 121 710 q 321 858 239 826 q 503 889 403 889 q 649 874 592 889 q 746 838 706 858 l 707 710 q 622 743 665 731 q 522 756 579 756 q 412 738 464 756 q 322 683 360 721 q 260 584 283 644 q 238 438 238 524 q 260 294 238 354 q 319 194 282 233 q 408 138 357 156 q 517 119 458 119 z "},"D":{"ha":903,"x_min":101,"x_max":846,"o":"m 400 875 q 581 849 499 875 q 722 769 663 822 q 813 638 781 717 q 846 456 846 560 q 807 248 846 335 q 701 106 768 161 q 547 26 635 51 q 358 0 458 0 l 101 0 l 101 875 l 400 875 m 271 133 l 346 133 q 465 148 407 133 q 567 199 522 163 q 638 297 611 235 q 665 456 665 360 q 587 668 665 594 q 375 742 508 742 l 271 742 l 271 133 z "},"E":{"ha":711,"x_min":101,"x_max":661,"o":"m 101 875 l 657 875 l 657 742 l 271 742 l 271 521 l 621 521 l 621 389 l 271 389 l 271 133 l 661 133 l 661 0 l 101 0 l 101 875 z "},"F":{"ha":685,"x_min":101,"x_max":643,"o":"m 643 875 l 643 742 l 271 742 l 271 493 l 613 493 l 613 361 l 271 361 l 271 0 l 101 0 l 101 875 l 643 875 z "},"G":{"ha":871,"x_min":57,"x_max":797,"o":"m 508 889 q 651 876 588 889 q 765 839 714 864 l 729 719 q 629 753 681 743 q 525 764 578 764 q 415 746 467 764 q 323 688 363 728 q 260 587 283 649 q 238 436 238 525 q 308 196 238 279 q 508 113 378 113 q 636 131 590 113 l 636 347 l 485 347 l 485 475 l 797 475 l 797 39 q 671 1 742 15 q 508 -14 600 -14 q 331 15 414 -14 q 188 101 249 44 q 92 242 126 158 q 57 436 57 326 q 92 631 57 546 q 187 773 126 715 q 330 860 247 831 q 508 889 413 889 z "},"H":{"ha":900,"x_min":101,"x_max":800,"o":"m 101 0 l 101 875 l 271 875 l 271 521 l 631 521 l 631 875 l 800 875 l 800 0 l 631 0 l 631 385 l 271 385 l 271 0 l 101 0 z "},"I":{"ha":371,"x_min":101,"x_max":271,"o":"m 271 875 l 271 0 l 101 0 l 101 875 l 271 875 z "},"J":{"ha":393,"x_min":-25,"x_max":297,"o":"m 297 875 l 297 160 q 285 -12 297 54 q 231 -129 272 -78 q 118 -207 186 -185 q -25 -229 50 -229 l -25 -97 q 41 -85 14 -97 q 88 -54 68 -74 q 120 7 113 -31 q 128 89 128 44 l 128 875 l 297 875 z "},"K":{"ha":833,"x_min":101,"x_max":832,"o":"m 101 0 l 101 875 l 271 875 l 271 497 l 593 875 l 804 875 l 465 492 l 832 0 l 622 0 l 343 382 l 271 304 l 271 0 l 101 0 z "},"L":{"ha":644,"x_min":101,"x_max":631,"o":"m 101 875 l 271 875 l 271 136 l 631 136 l 631 0 l 101 0 l 101 875 z "},"M":{"ha":1147,"x_min":89,"x_max":1058,"o":"m 156 875 l 371 875 l 510 439 q 544 326 528 382 q 572 215 560 269 l 578 215 q 591 267 583 239 q 607 326 599 296 q 623 385 615 356 q 639 439 631 414 l 774 875 l 989 875 l 1058 0 l 896 0 q 876 285 885 143 q 864 571 867 428 l 860 708 l 856 708 q 811 540 835 626 q 764 383 788 454 l 642 0 l 504 0 l 379 383 q 326 562 347 481 q 289 708 304 643 l 286 708 q 277 482 283 600 q 264 264 271 364 l 249 0 l 89 0 l 156 875 z "},"N":{"ha":932,"x_min":101,"x_max":831,"o":"m 101 875 l 254 875 l 588 383 q 639 301 615 342 q 676 233 663 260 l 679 233 q 671 426 671 329 q 671 618 671 522 l 671 875 l 831 875 l 831 0 l 678 0 l 360 465 q 299 564 328 513 q 256 647 271 615 l 253 647 q 260 448 260 544 q 261 251 261 351 l 261 0 l 101 0 l 101 875 z "},"O":{"ha":969,"x_min":58,"x_max":911,"o":"m 488 889 q 657 859 579 889 q 791 772 735 829 q 879 630 847 714 q 911 436 911 546 q 878 246 911 329 q 788 105 846 163 q 652 17 731 47 q 482 -14 574 -14 q 313 15 390 -14 q 178 101 235 44 q 90 242 122 158 q 58 436 58 326 q 91 627 58 543 q 181 769 124 711 q 317 858 239 828 q 488 889 396 889 m 239 436 q 258 294 239 354 q 312 195 278 235 q 391 136 346 156 q 488 117 436 117 q 583 136 539 117 q 660 195 628 156 q 712 294 693 235 q 731 436 731 354 q 711 581 731 519 q 658 681 692 642 q 578 740 624 721 q 482 758 533 758 q 386 738 431 758 q 309 678 342 718 q 258 578 276 639 q 239 436 239 517 z "},"P":{"ha":761,"x_min":101,"x_max":722,"o":"m 101 875 l 397 875 q 531 857 471 875 q 633 805 590 839 q 699 722 676 771 q 722 608 722 672 q 696 482 722 535 q 624 394 669 429 q 515 342 578 358 q 381 325 453 325 l 271 325 l 271 0 l 101 0 l 101 875 m 271 457 l 349 457 q 426 464 390 457 q 490 488 463 471 q 532 532 517 504 q 547 601 547 560 q 533 666 547 639 q 495 710 519 693 q 439 736 471 728 q 372 744 407 744 l 271 744 l 271 457 z "},"Q":{"ha":967,"x_min":58,"x_max":942,"o":"m 486 889 q 656 859 578 889 q 790 772 733 829 q 879 630 847 714 q 911 436 911 546 q 846 179 911 286 q 656 1 781 72 l 483 -94 q 549 -106 518 -96 q 613 -126 581 -115 q 681 -145 644 -136 q 760 -154 717 -154 q 825 -144 792 -154 q 881 -117 858 -135 l 942 -233 q 867 -271 914 -254 q 763 -287 821 -287 q 656 -274 707 -287 q 559 -245 606 -261 q 467 -216 513 -229 q 376 -203 422 -203 q 303 -213 336 -203 q 233 -244 269 -224 l 172 -132 l 394 -4 q 256 43 318 8 q 151 134 194 78 q 83 266 107 190 q 58 436 58 342 q 91 627 58 543 q 181 769 124 711 q 316 858 238 828 q 486 889 394 889 m 239 438 q 257 294 239 356 q 308 193 275 233 q 384 132 340 153 q 479 111 428 111 q 576 133 531 111 q 657 195 622 154 q 711 297 692 236 q 731 438 731 358 q 711 582 731 521 q 658 682 692 643 q 578 740 624 721 q 482 758 533 758 q 386 739 431 758 q 309 679 342 719 q 258 578 276 639 q 239 438 239 518 z "},"R":{"ha":778,"x_min":101,"x_max":757,"o":"m 101 875 l 417 875 q 543 854 489 875 q 634 797 597 833 q 690 713 671 761 q 708 607 708 664 q 692 514 708 554 q 651 443 676 474 q 596 392 626 413 q 536 360 565 372 l 757 0 l 564 0 l 382 329 l 267 329 l 267 0 l 101 0 l 101 875 m 267 461 l 351 461 q 482 494 431 461 q 533 603 533 526 q 492 708 533 672 q 372 744 451 744 l 267 744 l 267 461 z "},"S":{"ha":731,"x_min":58,"x_max":675,"o":"m 372 889 q 513 874 450 889 q 629 833 576 860 l 590 703 q 482 744 533 731 q 381 758 431 758 q 270 729 310 758 q 231 650 231 700 q 263 576 231 601 q 368 526 296 550 l 453 499 q 618 399 561 463 q 675 247 675 335 q 653 143 675 190 q 589 60 631 96 q 487 6 547 25 q 350 -14 426 -14 q 204 1 275 -14 q 68 47 133 15 l 107 176 q 224 132 167 147 q 343 117 281 117 q 460 146 418 117 q 503 231 503 175 q 496 268 503 250 q 472 302 489 286 q 424 333 454 318 q 347 363 394 347 l 269 389 q 116 477 174 422 q 58 632 58 532 q 139 818 58 747 q 372 889 219 889 z "},"T":{"ha":703,"x_min":14,"x_max":690,"o":"m 690 875 l 690 739 l 433 739 l 433 0 l 264 0 l 264 739 l 14 739 l 14 875 l 690 875 z "},"U":{"ha":908,"x_min":96,"x_max":813,"o":"m 96 875 l 265 875 l 265 351 q 310 174 265 231 q 456 118 356 118 q 599 178 554 118 q 643 335 643 239 l 643 875 l 813 875 l 813 346 q 721 75 813 164 q 456 -14 629 -14 q 304 8 371 -14 q 191 74 238 29 q 120 189 144 119 q 96 353 96 258 l 96 875 z "},"V":{"ha":832,"x_min":4,"x_max":829,"o":"m 183 875 l 340 411 q 358 358 349 389 q 378 296 368 328 q 399 232 389 264 q 415 174 408 200 l 419 174 q 435 230 426 199 q 454 292 444 261 q 474 353 464 324 q 492 408 483 383 l 654 875 l 829 875 l 507 0 l 328 0 l 4 875 l 183 875 z "},"W":{"ha":1196,"x_min":8,"x_max":1188,"o":"m 182 875 l 294 433 q 306 383 299 415 q 319 316 313 351 q 333 245 326 281 q 342 185 339 210 l 344 185 q 355 246 349 211 q 369 316 361 281 q 383 383 376 351 q 394 433 390 414 l 514 875 l 685 875 l 804 435 q 816 385 808 417 q 831 317 824 353 q 844 245 838 281 q 856 185 851 210 l 858 185 q 869 244 863 210 q 883 315 876 279 q 897 382 890 350 q 908 435 904 414 l 1017 875 l 1188 875 l 953 0 l 772 0 l 651 460 q 624 570 636 517 q 597 685 611 624 l 594 685 q 571 571 582 622 q 544 461 560 519 l 428 0 l 249 0 l 8 875 l 182 875 z "},"X":{"ha":832,"x_min":14,"x_max":818,"o":"m 224 875 l 417 557 l 611 875 l 804 875 l 519 444 l 818 0 l 618 0 l 410 331 l 206 0 l 14 0 l 301 444 l 26 875 l 224 875 z "},"Y":{"ha":786,"x_min":13,"x_max":781,"o":"m 201 875 l 399 518 l 597 875 l 781 875 l 478 363 l 478 0 l 308 0 l 308 363 l 13 875 l 201 875 z "},"Z":{"ha":733,"x_min":35,"x_max":694,"o":"m 685 875 l 685 778 l 242 131 l 694 131 l 694 0 l 35 0 l 35 111 l 469 744 l 53 744 l 53 875 l 685 875 z "},"`":{"ha":296,"x_min":25,"x_max":272,"o":"m 25 1000 l 168 1000 l 272 771 l 172 771 l 25 1000 z "},"a":{"ha":694,"x_min":46,"x_max":618,"o":"m 97 601 q 221 653 158 635 q 358 672 283 672 q 464 659 417 672 q 546 617 511 646 q 599 541 581 588 q 618 428 618 494 l 618 0 l 489 0 l 472 69 l 468 69 q 267 -14 397 -14 q 104 41 163 -14 q 46 183 46 96 q 69 279 46 239 q 134 346 93 319 q 232 385 175 372 q 356 399 289 399 l 453 399 l 453 444 q 421 522 453 499 q 335 544 389 544 q 252 532 296 544 q 156 489 208 519 l 97 601 m 454 294 l 379 292 q 251 260 288 289 q 215 192 215 232 q 246 122 215 140 q 317 104 276 104 q 394 124 357 104 q 454 181 431 144 l 454 294 z "},"b":{"ha":775,"x_min":89,"x_max":726,"o":"m 726 328 q 703 185 726 249 q 638 78 679 122 q 540 10 596 33 q 419 -14 483 -14 q 308 5 354 -14 q 224 61 261 24 l 219 61 l 207 0 l 89 0 l 89 989 l 251 989 l 251 596 q 339 652 290 632 q 442 672 388 672 q 650 581 574 672 q 726 328 726 490 m 557 325 q 514 487 557 429 q 394 544 471 544 q 315 524 351 544 q 253 474 279 503 l 253 165 q 306 124 275 139 q 375 108 336 108 q 443 121 410 108 q 501 160 476 133 q 542 228 526 188 q 557 325 557 268 z "},"c":{"ha":632,"x_min":50,"x_max":590,"o":"m 422 108 q 501 119 467 108 q 558 142 535 129 l 590 26 q 510 -1 560 11 q 400 -14 460 -14 q 263 8 326 -14 q 151 72 199 29 q 77 179 104 115 q 50 328 50 243 q 76 469 50 406 q 148 578 101 533 q 259 648 194 624 q 401 672 324 672 q 490 664 444 672 q 589 631 536 656 l 554 514 q 489 542 522 532 q 419 551 456 551 q 272 495 328 551 q 217 332 217 439 q 235 226 217 269 q 282 157 253 183 q 348 119 311 131 q 422 108 385 108 z "},"d":{"ha":769,"x_min":50,"x_max":681,"o":"m 517 989 l 681 989 l 681 0 l 558 0 l 540 72 l 535 72 q 457 10 503 35 q 339 -14 411 -14 q 228 8 281 -14 q 135 74 175 31 q 73 182 96 118 q 50 329 50 246 q 70 470 50 407 q 129 578 90 533 q 224 648 168 624 q 351 672 281 672 q 444 658 400 672 q 517 617 488 643 l 517 989 m 517 490 q 461 535 493 518 q 390 551 429 551 q 324 540 356 551 q 269 501 293 528 q 230 433 244 475 q 215 333 215 392 q 228 232 215 275 q 264 162 242 189 q 316 122 286 135 q 379 108 346 108 q 460 130 425 108 q 517 186 494 151 l 517 490 z "},"e":{"ha":714,"x_min":49,"x_max":665,"o":"m 665 293 l 217 293 l 217 288 q 273 153 217 197 q 421 108 329 108 q 517 118 475 108 q 599 144 560 128 l 631 29 q 535 -1 590 11 q 406 -14 479 -14 q 267 6 332 -14 q 154 67 203 25 q 77 172 106 108 q 49 325 49 236 q 72 467 49 403 q 139 576 96 531 q 243 647 182 622 q 378 672 304 672 q 588 592 510 672 q 665 368 665 511 l 665 293 m 497 407 q 490 463 497 436 q 468 511 483 490 q 428 544 453 532 q 371 556 404 556 q 268 514 308 556 q 219 404 228 472 l 497 407 z "},"f":{"ha":496,"x_min":24,"x_max":524,"o":"m 349 993 q 442 981 396 993 q 524 949 488 968 l 492 840 q 442 858 467 851 q 390 865 418 865 q 310 833 336 865 q 285 726 285 801 l 285 660 l 463 660 l 463 540 l 285 540 l 285 0 l 122 0 l 122 540 l 24 540 l 24 660 l 122 660 l 122 767 q 183 935 122 876 q 349 993 244 993 z "},"g":{"ha":775,"x_min":39,"x_max":735,"o":"m 79 436 q 100 534 79 490 q 158 608 121 578 q 247 656 196 639 q 358 672 297 672 q 406 669 381 672 q 453 660 431 665 l 735 660 l 735 551 l 682 551 l 588 565 q 620 506 607 540 q 633 436 633 472 q 614 340 633 383 q 558 267 594 297 q 470 220 521 236 q 357 204 419 204 q 290 210 318 204 q 249 157 249 192 q 322 110 249 110 l 478 110 q 650 62 586 110 q 714 -85 714 14 q 689 -183 714 -139 q 617 -260 664 -228 q 506 -309 571 -292 q 360 -326 440 -326 q 125 -274 211 -326 q 39 -122 39 -222 q 70 -40 39 -74 q 154 13 101 -6 q 115 52 132 28 q 97 115 97 76 q 124 192 97 160 q 196 244 151 225 q 115 315 150 268 q 79 436 79 361 m 247 -15 q 206 -47 221 -26 q 190 -99 190 -68 q 231 -174 190 -147 q 365 -201 272 -201 q 451 -192 415 -201 q 509 -168 486 -183 q 542 -133 532 -153 q 553 -93 553 -114 q 522 -32 553 -49 q 435 -15 492 -15 l 247 -15 m 471 436 q 439 528 471 499 q 357 558 407 558 q 274 528 306 558 q 242 439 242 497 q 274 349 242 378 q 357 319 307 319 q 440 349 408 319 q 471 436 471 378 z "},"h":{"ha":778,"x_min":89,"x_max":689,"o":"m 253 0 l 89 0 l 89 989 l 253 989 l 253 592 q 348 649 294 626 q 464 672 401 672 q 565 655 522 672 q 635 607 607 638 q 676 535 663 576 q 689 443 689 493 l 689 0 l 525 0 l 525 411 q 497 513 525 482 q 413 544 468 544 q 331 525 372 544 q 253 471 289 506 l 253 0 z "},"i":{"ha":369,"x_min":93,"x_max":275,"o":"m 103 0 l 103 660 l 267 660 l 267 0 l 103 0 m 185 811 q 117 836 142 811 q 93 899 93 861 q 118 960 93 935 q 185 986 143 986 q 250 961 225 986 q 275 899 275 936 q 250 836 275 861 q 185 811 225 811 z "},"j":{"ha":365,"x_min":-58,"x_max":272,"o":"m 99 660 l 263 660 l 263 94 q 251 -51 263 17 q 212 -173 240 -118 q 135 -272 183 -228 q 13 -347 88 -315 l -58 -233 q 13 -190 -17 -212 q 61 -132 42 -167 q 90 -46 81 -97 q 99 83 99 6 l 99 660 m 181 811 q 115 836 139 811 q 90 899 90 861 q 115 960 90 935 q 181 986 139 986 q 247 961 221 986 q 272 899 272 936 q 247 836 272 861 q 181 811 222 811 z "},"k":{"ha":704,"x_min":89,"x_max":699,"o":"m 251 228 l 251 0 l 89 0 l 89 989 l 251 989 l 251 393 l 488 660 l 688 660 l 428 382 l 699 0 l 506 0 l 310 286 l 251 228 z "},"l":{"ha":346,"x_min":92,"x_max":253,"o":"m 92 0 l 92 989 l 253 989 l 253 0 l 92 0 z "},"m":{"ha":1172,"x_min":88,"x_max":1085,"o":"m 251 0 l 88 0 l 88 660 l 214 660 l 235 572 q 333 645 281 618 q 456 672 386 672 q 572 645 525 672 q 643 568 619 618 q 747 644 690 617 q 872 672 804 672 q 1031 615 976 672 q 1085 453 1085 558 l 1085 0 l 921 0 l 921 431 q 896 514 921 483 q 819 544 871 544 q 739 525 779 544 q 667 469 699 506 q 668 452 668 460 q 668 435 668 444 l 668 0 l 504 0 l 504 431 q 479 514 504 483 q 403 544 454 544 q 323 523 363 544 q 251 464 283 501 l 251 0 z "},"n":{"ha":769,"x_min":88,"x_max":682,"o":"m 251 0 l 88 0 l 88 660 l 215 660 l 236 572 q 338 646 283 619 q 458 672 392 672 q 624 613 565 672 q 682 446 682 554 l 682 0 l 518 0 l 518 426 q 491 512 518 479 q 410 544 464 544 q 328 523 369 544 q 251 465 286 501 l 251 0 z "},"o":{"ha":767,"x_min":50,"x_max":717,"o":"m 717 335 q 691 188 717 253 q 619 78 665 122 q 513 10 574 33 q 381 -14 451 -14 q 249 8 310 -14 q 144 73 189 31 q 75 178 100 115 q 50 321 50 240 q 76 470 50 404 q 147 581 101 536 q 254 649 193 625 q 386 672 315 672 q 517 651 457 672 q 622 586 578 629 q 692 481 667 543 q 717 335 717 418 m 547 328 q 533 430 547 388 q 497 499 519 472 q 444 538 474 525 q 382 550 414 550 q 321 540 350 550 q 269 503 292 529 q 233 435 247 478 q 219 328 219 392 q 233 228 219 269 q 270 160 247 188 q 323 121 293 133 q 385 108 353 108 q 445 119 415 108 q 497 156 475 131 q 533 223 519 181 q 547 328 547 265 z "},"p":{"ha":764,"x_min":85,"x_max":715,"o":"m 386 -14 q 309 -4 346 -14 q 247 22 272 6 l 247 -319 l 85 -319 l 85 664 l 211 664 l 231 586 q 319 648 269 624 q 433 672 369 672 q 640 585 564 672 q 715 343 715 499 q 688 188 715 254 q 616 76 661 121 q 511 8 571 31 q 386 -14 451 -14 m 392 546 q 304 522 342 546 q 247 474 267 497 l 247 146 q 301 117 271 126 q 365 108 332 108 q 431 121 399 108 q 488 160 463 133 q 530 231 514 188 q 546 339 546 275 q 508 488 546 431 q 392 546 469 546 z "},"q":{"ha":769,"x_min":50,"x_max":681,"o":"m 517 38 q 442 -1 485 11 q 351 -14 400 -14 q 224 11 281 -14 q 129 81 168 36 q 70 188 90 125 q 50 329 50 251 q 70 466 50 403 q 130 575 90 529 q 226 647 169 621 q 356 672 282 672 q 454 653 403 672 q 539 599 506 635 l 551 660 l 681 660 l 681 -319 l 517 -319 l 517 38 m 517 482 q 463 531 497 510 q 385 551 429 551 q 319 539 350 551 q 266 501 289 526 q 229 433 243 475 q 215 333 215 392 q 263 165 215 221 q 383 108 311 108 q 461 125 428 108 q 517 167 494 142 l 517 482 z "},"r":{"ha":533,"x_min":86,"x_max":536,"o":"m 86 0 l 86 660 l 213 660 l 233 536 q 308 633 257 593 q 436 672 360 672 q 494 665 469 672 q 536 650 519 658 l 508 517 q 471 531 493 525 q 417 538 449 538 q 297 489 346 538 q 249 335 249 440 l 249 0 l 86 0 z "},"s":{"ha":590,"x_min":50,"x_max":543,"o":"m 476 513 q 317 551 394 551 q 238 533 265 551 q 211 483 211 515 q 233 438 211 457 q 322 400 256 419 l 364 388 q 498 315 453 361 q 543 194 543 269 q 471 42 543 99 q 274 -14 399 -14 q 50 31 139 -14 l 86 153 q 172 121 126 133 q 265 108 217 108 q 381 182 381 108 q 353 232 381 215 q 261 268 326 249 l 218 282 q 91 355 132 310 q 50 474 50 400 q 68 553 50 517 q 119 617 86 590 q 198 658 151 643 q 301 672 244 672 q 412 662 358 672 q 511 631 465 651 l 476 513 z "},"t":{"ha":522,"x_min":21,"x_max":500,"o":"m 465 540 l 283 540 l 283 210 q 306 145 283 163 q 365 128 329 128 q 424 133 393 128 q 475 149 454 139 l 500 32 q 428 10 474 21 q 332 0 383 0 q 170 46 219 0 q 121 183 121 92 l 121 540 l 21 540 l 21 660 l 121 660 l 121 865 l 283 865 l 283 660 l 465 660 l 465 540 z "},"u":{"ha":769,"x_min":88,"x_max":682,"o":"m 518 660 l 682 660 l 682 0 l 558 0 l 539 76 l 533 76 q 449 15 501 43 q 317 -14 396 -14 q 150 44 213 -14 q 88 219 88 103 l 88 660 l 251 660 l 251 236 q 283 140 251 168 q 363 111 314 111 q 452 133 414 111 q 518 186 490 154 l 518 660 z "},"v":{"ha":683,"x_min":15,"x_max":669,"o":"m 494 660 l 669 660 l 431 0 l 249 0 l 15 660 l 190 660 l 304 289 l 340 122 l 346 122 l 381 289 l 494 660 z "},"w":{"ha":1032,"x_min":14,"x_max":1021,"o":"m 14 660 l 186 660 l 279 288 l 304 124 l 310 124 l 339 288 l 432 660 l 606 660 l 699 288 l 728 124 l 733 124 l 763 288 l 854 660 l 1021 660 l 832 0 l 642 0 l 547 372 l 518 532 l 486 372 l 392 0 l 204 0 l 14 660 z "},"x":{"ha":682,"x_min":14,"x_max":671,"o":"m 438 336 l 671 0 l 483 0 l 399 124 l 336 232 l 279 125 l 199 0 l 14 0 l 243 336 l 26 660 l 210 660 l 289 536 l 346 432 l 401 536 l 475 660 l 654 660 l 438 336 z "},"y":{"ha":694,"x_min":11,"x_max":686,"o":"m 11 660 l 189 660 l 313 324 l 358 165 l 363 165 l 407 325 l 518 660 l 686 660 l 440 -35 q 332 -233 400 -150 q 146 -357 264 -317 l 76 -228 q 202 -150 150 -200 q 278 -22 254 -100 l 285 1 l 11 660 z "},"z":{"ha":578,"x_min":31,"x_max":547,"o":"m 540 561 l 219 119 l 547 119 l 547 0 l 31 0 l 31 103 l 353 540 l 51 540 l 51 660 l 540 660 l 540 561 z "},"€":{"ha":772,"x_min":7,"x_max":739,"o":"m 517 119 q 620 131 576 119 q 700 161 664 142 l 736 33 q 641 0 697 14 q 499 -14 585 -14 q 360 6 425 -14 q 244 65 296 26 q 158 163 193 104 q 106 299 122 221 l 7 299 l 7 383 l 93 383 q 92 415 92 403 q 92 439 92 426 l 92 460 l 7 460 l 7 544 l 103 544 q 233 799 131 708 q 503 889 336 889 q 645 874 592 889 q 739 838 699 858 l 700 710 q 616 743 658 731 q 522 756 574 756 q 440 743 479 756 q 367 705 400 731 q 312 640 335 679 q 281 544 289 600 l 629 544 l 629 460 l 269 460 l 269 443 q 269 417 269 429 q 271 383 269 404 l 629 383 l 629 299 l 288 299 q 374 160 311 201 q 517 119 438 119 z "},"‚":{"ha":303,"x_min":42,"x_max":268,"o":"m 132 -11 q 66 24 90 -4 q 42 93 42 53 q 69 165 42 133 q 147 197 97 197 q 188 190 167 197 q 227 163 210 182 q 256 115 244 144 q 268 42 268 85 q 253 -43 268 -3 q 215 -118 239 -83 q 160 -181 192 -153 q 93 -228 128 -210 l 44 -161 q 117 -102 85 -139 q 158 -17 149 -65 l 132 -11 z "},"ƒ":{"ha":729,"x_min":0,"x_max":715,"o":"m 351 56 q 308 -95 339 -35 q 235 -193 276 -156 q 145 -249 193 -231 q 50 -275 97 -268 l 0 -144 q 122 -83 74 -126 q 186 57 171 -39 l 256 542 l 167 542 l 167 660 l 274 660 l 288 764 q 317 876 296 825 q 374 963 339 926 q 457 1021 408 1000 q 571 1042 506 1042 q 649 1031 611 1042 q 715 1006 688 1021 l 676 893 q 585 914 635 914 q 492 874 524 914 q 449 749 460 833 l 438 660 l 611 660 l 611 540 l 419 540 l 351 56 z "},"„":{"ha":618,"x_min":42,"x_max":583,"o":"m 132 -11 q 66 24 90 -4 q 42 93 42 53 q 69 165 42 133 q 147 197 97 197 q 188 190 167 197 q 227 163 210 182 q 256 115 244 144 q 268 42 268 85 q 253 -43 268 -3 q 215 -118 239 -83 q 160 -181 192 -153 q 93 -228 128 -210 l 44 -161 q 117 -102 85 -139 q 158 -17 149 -65 l 132 -11 m 447 -11 q 381 24 406 -4 q 357 93 357 53 q 385 165 357 133 q 463 197 413 197 q 503 190 482 197 q 542 163 525 182 q 572 115 560 144 q 583 42 583 85 q 569 -43 583 -3 q 531 -118 556 -83 q 476 -181 507 -153 q 410 -228 444 -210 l 361 -161 q 433 -102 401 -139 q 475 -17 465 -65 l 447 -11 z "},"†":{"ha":543,"x_min":28,"x_max":515,"o":"m 515 660 l 515 529 l 354 529 l 354 -56 l 190 -56 l 190 529 l 28 529 l 28 660 l 190 660 l 190 875 l 354 875 l 354 660 l 515 660 z "},"‡":{"ha":543,"x_min":28,"x_max":515,"o":"m 515 283 l 515 153 l 354 153 l 354 -56 l 190 -56 l 190 153 l 28 153 l 28 283 l 190 283 l 190 529 l 28 529 l 28 660 l 190 660 l 190 875 l 354 875 l 354 660 l 515 660 l 515 529 l 354 529 l 354 283 l 515 283 z "},"ˆ":{"ha":507,"x_min":32,"x_max":478,"o":"m 478 764 l 351 764 l 258 897 l 163 764 l 32 764 l 210 979 l 306 979 l 478 764 z "},"‰":{"ha":1699,"x_min":39,"x_max":1660,"o":"m 213 0 l 819 1042 l 924 1042 l 317 0 l 213 0 m 1083 249 q 1068 148 1083 196 q 1023 64 1053 100 q 949 7 993 28 q 847 -14 906 -14 q 747 7 790 -14 q 675 64 704 28 q 631 148 646 100 q 615 249 615 196 q 631 349 615 301 q 678 432 647 396 q 752 490 708 468 q 851 511 796 511 q 950 490 907 511 q 1023 432 993 468 q 1068 349 1053 396 q 1083 249 1083 301 m 956 249 q 950 311 956 281 q 933 365 944 342 q 901 403 921 389 q 851 418 881 418 q 802 404 822 418 q 769 367 782 390 q 749 313 756 344 q 743 249 743 282 q 749 184 743 215 q 767 130 754 153 q 799 93 779 107 q 847 79 818 79 q 929 126 903 79 q 956 249 956 174 m 507 779 q 492 678 507 726 q 447 594 476 631 q 374 538 418 558 q 271 517 329 517 q 171 538 214 517 q 99 594 128 558 q 54 678 69 631 q 39 779 39 726 q 55 879 39 832 q 101 963 71 926 q 176 1020 132 999 q 275 1042 219 1042 q 374 1020 331 1042 q 447 963 417 999 q 492 879 476 926 q 507 779 507 832 m 379 779 q 374 839 379 810 q 357 891 369 868 q 324 928 344 914 q 275 942 304 942 q 226 928 247 942 q 192 893 206 915 q 173 841 179 871 q 167 779 167 811 q 172 715 167 746 q 190 660 178 683 q 223 624 203 638 q 271 610 243 610 q 353 657 328 610 q 379 779 379 704 m 1660 249 q 1644 148 1660 196 q 1599 64 1629 100 q 1526 7 1569 28 q 1424 -14 1482 -14 q 1324 7 1367 -14 q 1251 64 1281 28 q 1207 148 1222 100 q 1192 249 1192 196 q 1208 349 1192 301 q 1254 432 1224 396 q 1328 490 1285 468 q 1428 511 1372 511 q 1526 490 1483 511 q 1599 432 1569 468 q 1644 349 1629 396 q 1660 249 1660 301 m 1532 249 q 1526 311 1532 281 q 1509 365 1521 342 q 1477 403 1497 389 q 1428 418 1457 418 q 1378 404 1399 418 q 1345 367 1358 390 q 1326 313 1332 344 q 1319 249 1319 282 q 1325 184 1319 215 q 1343 130 1331 153 q 1375 93 1356 107 q 1424 79 1394 79 q 1506 126 1479 79 q 1532 249 1532 174 z "},"Š":{"ha":731,"x_min":58,"x_max":675,"o":"m 372 889 q 513 874 450 889 q 629 833 576 860 l 590 703 q 482 744 533 731 q 381 758 431 758 q 270 729 310 758 q 231 650 231 700 q 263 576 231 601 q 368 526 296 550 l 453 499 q 619 399 563 464 q 675 247 675 335 q 653 143 675 190 q 589 60 631 96 q 487 6 547 25 q 350 -14 426 -14 q 204 1 275 -14 q 68 47 133 15 l 107 176 q 224 132 167 147 q 343 117 281 117 q 460 146 418 117 q 503 231 503 175 q 496 267 503 250 q 472 301 489 285 q 424 332 454 317 q 347 363 393 347 l 269 389 q 115 476 172 421 q 58 632 58 532 q 139 818 58 747 q 372 889 219 889 m 144 1151 l 276 1151 l 372 1047 l 469 1151 l 597 1151 l 433 972 l 310 972 l 144 1151 z "},"‹":{"ha":421,"x_min":50,"x_max":375,"o":"m 242 106 l 50 328 l 242 551 l 375 551 l 200 328 l 375 106 l 242 106 z "},"Œ":{"ha":1203,"x_min":58,"x_max":1149,"o":"m 478 -14 q 309 15 386 -14 q 176 100 232 43 q 90 241 121 157 q 58 438 58 325 q 90 628 58 544 q 177 770 121 713 q 311 858 233 828 q 481 889 389 889 q 551 885 515 889 q 617 875 586 882 l 1144 875 l 1144 742 l 765 742 l 765 521 l 1108 521 l 1108 389 l 765 389 l 765 133 l 1149 133 l 1149 0 l 611 0 q 544 -10 579 -7 q 478 -14 510 -14 m 482 758 q 383 739 428 758 q 307 680 339 719 q 257 580 275 640 q 239 439 239 519 q 257 297 239 357 q 308 197 275 236 q 385 137 340 157 q 483 117 429 117 q 542 122 513 117 q 596 142 571 128 l 596 735 q 541 753 569 747 q 482 758 513 758 z "},"Ž":{"ha":733,"x_min":35,"x_max":694,"o":"m 685 875 l 685 778 l 242 131 l 694 131 l 694 0 l 35 0 l 35 111 l 469 744 l 53 744 l 53 875 l 685 875 m 144 1151 l 274 1151 l 371 1049 l 468 1151 l 597 1151 l 433 972 l 310 972 l 144 1151 z "},"“":{"ha":615,"x_min":35,"x_max":567,"o":"m 165 833 q 231 795 208 825 q 254 725 254 765 q 228 654 254 685 q 153 624 203 624 q 113 631 133 624 q 74 658 92 639 q 46 706 57 676 q 35 781 35 736 q 49 865 35 825 q 87 940 63 906 q 142 1002 111 975 q 208 1049 174 1029 l 257 982 q 185 923 217 960 q 143 838 153 886 l 165 833 m 475 833 q 540 795 517 825 q 563 725 563 765 q 537 654 563 685 q 461 624 511 624 q 421 631 442 624 q 383 658 400 639 q 354 706 365 676 q 343 781 343 736 q 358 865 343 825 q 396 940 372 906 q 451 1002 419 975 q 518 1049 483 1029 l 567 982 q 494 923 526 960 q 453 838 463 886 l 475 833 z "},"”":{"ha":615,"x_min":49,"x_max":581,"o":"m 140 839 q 74 876 97 846 q 51 947 51 907 q 78 1018 51 988 q 154 1049 104 1049 q 194 1041 174 1049 q 232 1015 215 1033 q 260 967 249 997 q 271 894 271 938 q 257 809 271 850 q 219 733 243 768 q 163 670 194 699 q 97 624 132 642 l 49 690 q 121 749 89 713 q 163 835 153 786 l 140 839 m 449 839 q 384 876 407 846 q 361 947 361 907 q 388 1018 361 988 q 464 1049 414 1049 q 504 1041 483 1049 q 542 1015 525 1033 q 569 967 558 997 q 581 894 581 938 q 566 809 581 850 q 528 733 551 768 q 472 670 504 699 q 406 624 440 642 l 357 690 q 429 749 397 713 q 471 835 461 786 l 449 839 z "},"•":{"ha":497,"x_min":68,"x_max":429,"o":"m 68 376 q 82 447 68 414 q 121 504 96 479 q 178 543 146 529 q 249 557 211 557 q 319 543 286 557 q 376 504 351 529 q 415 447 401 479 q 429 376 429 414 q 415 306 429 339 q 377 248 401 272 q 319 210 353 224 q 249 196 286 196 q 178 210 211 196 q 121 248 146 224 q 82 306 96 272 q 68 376 68 339 z "},"˜":{"ha":557,"x_min":51,"x_max":476,"o":"m 51 793 q 81 919 51 872 q 172 965 110 965 q 224 955 200 965 q 270 933 249 944 q 311 910 292 921 q 349 900 331 900 q 383 920 374 900 q 394 972 393 940 l 476 972 q 358 801 476 801 q 300 811 326 801 q 252 833 274 821 q 213 854 231 844 q 179 864 196 864 q 145 845 156 864 q 133 793 135 826 l 51 793 z "},"™":{"ha":1017,"x_min":56,"x_max":982,"o":"m 501 875 l 614 875 l 667 701 q 695 601 682 656 q 719 497 708 547 l 724 497 q 747 595 733 544 q 776 699 761 646 l 828 875 l 940 875 l 982 381 l 892 381 l 878 561 q 873 659 875 608 q 872 768 871 710 l 869 768 q 833 627 850 683 q 801 522 817 571 l 757 381 l 685 381 l 638 521 q 604 631 621 572 q 572 768 588 689 l 569 768 q 565 655 568 708 q 560 564 563 601 l 549 381 l 461 381 l 501 875 m 431 875 l 431 801 l 288 801 l 288 381 l 194 381 l 194 801 l 56 801 l 56 875 l 431 875 z "},"š":{"ha":590,"x_min":50,"x_max":543,"o":"m 476 513 q 317 551 394 551 q 238 533 265 551 q 211 483 211 515 q 233 438 211 457 q 322 400 256 419 l 364 388 q 498 315 453 361 q 543 194 543 269 q 471 42 543 99 q 274 -14 399 -14 q 50 31 139 -14 l 86 153 q 172 121 126 133 q 265 108 217 108 q 381 182 381 108 q 353 232 381 215 q 261 268 326 249 l 218 282 q 91 355 132 310 q 50 474 50 400 q 68 553 50 517 q 119 617 86 590 q 198 658 151 643 q 301 672 244 672 q 412 662 358 672 q 511 631 465 651 l 476 513 m 76 958 l 203 958 l 293 849 l 383 958 l 515 958 l 344 765 l 242 765 l 76 958 z "},"›":{"ha":418,"x_min":47,"x_max":372,"o":"m 47 106 l 222 328 l 47 551 l 181 551 l 372 328 l 181 106 l 47 106 z "},"œ":{"ha":1176,"x_min":54,"x_max":1143,"o":"m 1143 293 l 700 293 l 700 288 q 756 153 700 197 q 903 108 811 108 q 997 118 957 108 q 1076 144 1038 128 l 1108 29 q 1014 -1 1068 11 q 888 -14 960 -14 q 731 16 801 -14 q 621 107 661 46 q 379 -14 538 -14 q 249 8 308 -14 q 146 73 189 31 q 78 178 103 115 q 54 321 54 240 q 79 470 54 404 q 148 581 104 536 q 252 649 192 625 q 383 672 313 672 q 625 553 542 672 q 722 642 664 611 q 858 672 779 672 q 1067 592 990 672 q 1143 368 1143 511 l 1143 293 m 543 328 q 530 430 543 388 q 494 499 517 472 q 443 538 472 525 q 382 550 414 550 q 322 540 350 550 q 272 503 293 529 q 237 435 250 478 q 224 328 224 392 q 237 228 224 269 q 272 160 250 188 q 324 121 294 133 q 385 108 353 108 q 444 119 415 108 q 495 156 474 131 q 530 223 517 181 q 543 328 543 265 m 975 407 q 968 463 975 436 q 947 511 961 490 q 908 544 932 532 q 851 556 885 556 q 751 514 789 556 q 704 404 713 472 l 975 407 z "},"ž":{"ha":578,"x_min":31,"x_max":547,"o":"m 540 561 l 219 119 l 547 119 l 547 0 l 31 0 l 31 103 l 353 540 l 51 540 l 51 660 l 540 660 l 540 561 m 86 958 l 213 958 l 303 849 l 393 958 l 525 958 l 356 765 l 253 765 l 86 958 z "},"Ÿ":{"ha":786,"x_min":13,"x_max":781,"o":"m 201 875 l 399 518 l 597 875 l 781 875 l 478 363 l 478 0 l 308 0 l 308 363 l 13 875 l 201 875 m 189 1047 q 213 1103 189 1079 q 271 1128 238 1128 q 329 1103 306 1128 q 353 1047 353 1079 q 329 988 353 1013 q 271 964 306 964 q 213 988 238 964 q 189 1047 189 1013 m 447 1047 q 471 1103 447 1079 q 529 1128 494 1128 q 586 1103 563 1128 q 610 1047 610 1079 q 586 988 610 1013 q 529 964 563 964 q 471 988 494 964 q 447 1047 447 1013 z "},"¡":{"ha":356,"x_min":81,"x_max":276,"o":"m 113 351 l 243 351 l 264 -331 l 92 -331 l 113 351 m 81 568 q 109 642 81 614 q 178 669 138 669 q 247 642 218 669 q 276 568 276 614 q 247 498 276 526 q 178 469 218 469 q 109 498 138 469 q 81 568 81 526 z "},"¢":{"ha":686,"x_min":72,"x_max":613,"o":"m 444 210 q 522 219 489 210 q 581 243 556 229 l 613 129 q 489 92 569 104 l 489 -31 l 357 -31 l 357 92 q 242 126 294 100 q 153 193 190 151 q 94 293 115 235 q 72 426 72 351 q 92 553 72 496 q 150 655 113 611 q 240 726 188 699 q 357 763 292 753 l 357 889 l 489 889 l 489 763 q 549 749 518 758 q 611 725 579 740 l 576 611 q 512 636 549 626 q 438 646 475 646 q 292 592 346 646 q 239 431 239 538 q 257 326 239 368 q 304 258 275 283 q 370 221 333 232 q 444 210 407 210 z "},"£":{"ha":721,"x_min":72,"x_max":656,"o":"m 107 0 l 72 104 q 188 210 153 144 q 204 368 224 276 l 81 368 l 81 483 l 189 483 q 178 548 183 513 q 174 619 174 583 q 195 731 174 681 q 256 816 217 781 q 348 870 294 851 q 467 889 401 889 q 568 877 519 889 q 640 850 617 865 l 606 732 q 547 753 579 744 q 474 763 514 763 q 366 718 403 763 q 329 611 329 674 q 333 542 329 571 q 344 483 338 514 l 560 483 l 560 368 l 358 368 q 352 234 367 292 q 286 136 338 176 l 288 131 l 656 131 l 656 0 l 107 0 z "},"¤":{"ha":721,"x_min":44,"x_max":676,"o":"m 119 86 l 44 161 l 160 275 q 119 425 119 336 q 158 572 119 511 l 46 685 l 121 760 l 232 644 q 293 672 260 663 q 363 681 326 681 q 489 643 435 681 l 601 760 l 676 685 l 560 571 q 590 503 579 540 q 600 425 600 465 q 590 340 600 379 q 560 272 579 301 l 676 160 l 601 86 l 486 201 q 358 167 432 167 q 290 176 324 167 q 232 203 257 186 l 119 86 m 481 425 q 450 542 481 500 q 361 585 419 585 q 272 544 304 585 q 240 425 240 504 q 272 305 240 347 q 360 263 303 263 q 445 300 410 263 q 481 425 481 338 z "},"¥":{"ha":775,"x_min":15,"x_max":763,"o":"m 718 319 l 718 219 l 468 219 l 468 0 l 301 0 l 301 219 l 51 219 l 51 319 l 301 319 l 301 365 l 257 442 l 51 442 l 51 542 l 206 542 l 15 875 l 197 875 l 390 497 l 586 875 l 763 875 l 567 542 l 718 542 l 718 442 l 513 442 l 468 365 l 468 319 l 718 319 z "},"¦":{"ha":347,"x_min":111,"x_max":236,"o":"m 111 528 l 111 1042 l 236 1042 l 236 528 l 111 528 m 111 -250 l 111 261 l 236 261 l 236 -250 l 111 -250 z "},"§":{"ha":718,"x_min":65,"x_max":651,"o":"m 108 68 q 307 19 201 19 q 401 44 372 19 q 431 104 431 68 q 403 158 431 140 q 307 200 375 176 l 240 224 q 110 301 156 254 q 65 418 65 347 q 92 518 65 475 q 154 589 118 561 q 121 692 121 631 q 139 772 121 735 q 191 837 157 810 q 274 879 225 864 q 386 894 324 894 q 503 883 449 894 q 603 850 558 872 l 568 735 q 483 768 524 758 q 401 778 442 778 q 310 756 342 778 q 279 699 279 735 q 285 668 279 681 q 307 644 292 656 q 347 622 322 633 q 410 599 372 611 l 476 575 q 606 499 560 546 q 651 378 651 451 q 624 277 651 319 q 563 210 597 235 q 589 113 589 168 q 570 27 589 67 q 517 -40 551 -12 q 435 -84 483 -68 q 326 -100 386 -100 q 185 -87 247 -100 q 72 -50 122 -74 l 108 68 m 507 356 q 481 417 507 396 q 394 461 456 439 l 317 490 q 278 504 297 497 q 244 521 260 511 q 219 488 229 507 q 210 446 210 469 q 238 383 210 406 q 319 342 267 361 l 399 315 q 437 301 418 308 q 472 285 456 293 q 497 316 488 299 q 507 356 507 333 z "},"¨":{"ha":515,"x_min":44,"x_max":471,"o":"m 44 863 q 69 920 44 894 q 128 946 93 946 q 186 920 163 946 q 210 863 210 894 q 186 803 210 828 q 128 778 163 778 q 69 803 93 778 q 44 863 44 828 m 304 863 q 329 920 304 894 q 388 946 354 946 q 447 920 424 946 q 471 863 471 894 q 447 803 471 828 q 388 778 424 778 q 329 803 354 778 q 304 863 304 828 z "},"©":{"ha":979,"x_min":50,"x_max":929,"o":"m 525 264 q 581 270 556 264 q 632 290 606 276 l 653 215 q 518 188 593 188 q 422 203 467 188 q 342 249 376 218 q 289 325 308 279 q 269 432 269 371 q 288 533 269 488 q 338 610 306 579 q 417 659 371 642 q 517 676 463 676 q 582 671 550 676 q 650 650 614 665 l 628 574 q 526 600 576 600 q 414 557 456 600 q 372 435 372 514 q 385 353 372 386 q 420 301 399 321 q 469 272 442 281 q 525 264 497 264 m 492 883 q 660 855 581 883 q 799 770 739 826 q 894 631 858 714 q 929 436 929 547 q 893 244 929 328 q 797 103 857 160 q 656 17 736 46 q 488 -12 576 -12 q 320 16 400 -12 q 181 101 240 44 q 85 241 121 157 q 50 436 50 325 q 86 628 50 544 q 183 769 122 713 q 324 854 243 825 q 492 883 404 883 m 492 826 q 349 801 417 826 q 229 727 281 776 q 148 605 178 678 q 118 436 118 532 q 147 264 118 338 q 227 142 176 190 q 345 69 278 93 q 488 44 413 44 q 631 69 564 44 q 750 144 699 94 q 831 267 801 194 q 861 436 861 340 q 832 607 861 533 q 753 729 803 681 q 635 802 703 778 q 492 826 568 826 z "},"ª":{"ha":481,"x_min":43,"x_max":417,"o":"m 76 774 q 158 808 117 796 q 247 819 199 819 q 370 783 324 819 q 417 661 417 747 l 417 381 l 333 381 l 322 425 l 319 425 q 189 371 274 371 q 81 407 119 371 q 43 500 43 443 q 101 607 43 574 q 246 640 158 640 l 310 640 l 310 671 q 289 722 310 707 q 232 736 268 736 q 178 728 207 736 q 114 701 150 721 l 76 774 m 310 574 l 261 571 q 177 551 201 569 q 153 506 153 533 q 173 460 153 472 q 219 449 193 449 q 270 462 246 449 q 310 497 294 475 l 310 574 z "},"«":{"ha":696,"x_min":50,"x_max":653,"o":"m 519 106 l 328 328 l 519 551 l 653 551 l 478 328 l 653 106 l 519 106 m 242 106 l 50 328 l 242 551 l 375 551 l 200 328 l 375 106 l 242 106 z "},"®":{"ha":736,"x_min":53,"x_max":683,"o":"m 683 647 q 660 508 683 568 q 596 408 638 449 q 497 346 554 367 q 369 325 439 325 q 242 345 300 325 q 142 405 183 365 q 76 503 100 444 q 53 636 53 561 q 76 774 53 714 q 140 874 99 833 q 240 934 182 914 q 367 954 297 954 q 493 934 435 954 q 594 875 551 914 q 660 779 636 836 q 683 647 683 722 m 628 642 q 607 760 628 710 q 550 843 586 810 q 467 892 514 876 q 367 908 419 908 q 267 894 314 908 q 184 847 219 879 q 128 763 149 814 q 107 642 107 713 q 126 521 107 572 q 181 436 146 469 q 263 386 215 403 q 369 369 311 369 q 469 385 422 369 q 551 435 515 401 q 607 519 586 468 q 628 642 628 571 m 249 817 l 389 817 q 477 786 447 817 q 507 710 507 756 q 485 644 507 669 q 438 608 464 619 l 529 464 l 453 464 l 374 596 l 311 596 l 311 464 l 249 464 l 249 817 m 311 647 l 365 647 q 419 661 397 647 q 442 708 442 675 q 424 752 442 740 q 374 764 406 764 l 311 764 l 311 647 z "},"°":{"ha":551,"x_min":46,"x_max":508,"o":"m 508 649 q 447 473 508 538 q 275 408 386 408 q 108 473 171 408 q 46 649 46 538 q 63 747 46 703 q 110 823 79 792 q 183 872 140 854 q 279 889 226 889 q 372 872 331 889 q 444 823 414 854 q 492 747 475 792 q 508 649 508 703 m 401 649 q 373 760 401 717 q 279 803 344 803 q 184 763 215 803 q 153 649 153 722 q 183 536 153 578 q 275 494 213 494 q 366 531 331 494 q 401 649 401 568 z "},"±":{"ha":672,"x_min":51,"x_max":619,"o":"m 568 106 l 568 0 l 83 0 l 83 106 l 568 106 m 619 525 l 619 419 l 390 419 l 390 196 l 281 196 l 281 419 l 51 419 l 51 525 l 281 525 l 281 750 l 390 750 l 390 525 l 619 525 z "},"´":{"ha":351,"x_min":43,"x_max":307,"o":"m 157 764 l 43 764 l 147 986 l 307 986 l 157 764 z "},"¶":{"ha":808,"x_min":49,"x_max":711,"o":"m 599 -249 l 599 775 l 472 775 l 472 -249 l 358 -249 l 358 339 q 126 412 203 339 q 49 611 49 485 q 72 733 49 681 q 138 819 96 785 q 240 872 181 854 q 369 889 299 889 l 711 889 l 711 -249 l 599 -249 z "},"¸":{"ha":397,"x_min":78,"x_max":347,"o":"m 175 0 l 267 0 l 233 -65 q 317 -96 286 -69 q 347 -162 347 -122 q 335 -213 347 -192 q 300 -249 322 -235 q 249 -271 278 -264 q 188 -278 221 -278 q 126 -272 156 -278 q 78 -260 97 -267 l 99 -189 q 171 -201 133 -201 q 221 -192 203 -201 q 239 -158 239 -182 q 214 -122 239 -135 q 126 -108 189 -108 l 175 0 z "},"º":{"ha":592,"x_min":0,"x_max":0,"o":""},"»":{"ha":696,"x_min":47,"x_max":650,"o":"m 47 106 l 222 328 l 47 551 l 181 551 l 372 328 l 181 106 l 47 106 m 325 106 l 500 328 l 325 551 l 458 551 l 650 328 l 458 106 l 325 106 z "},"¿":{"ha":604,"x_min":69,"x_max":551,"o":"m 340 -344 q 226 -326 276 -344 q 140 -277 175 -308 q 88 -203 106 -246 q 69 -110 69 -160 q 108 22 69 -36 q 206 136 147 79 q 256 185 235 164 q 292 224 278 206 q 313 259 306 242 q 319 297 319 276 q 310 354 319 325 l 444 374 q 456 335 451 357 q 460 289 460 313 q 431 185 460 229 q 350 88 403 142 q 303 38 324 60 q 267 -7 282 15 q 244 -52 253 -29 q 236 -103 236 -75 q 265 -178 236 -146 q 360 -211 294 -211 q 424 -201 393 -211 q 489 -168 456 -192 l 551 -282 q 454 -328 510 -312 q 340 -344 399 -344 m 463 561 q 433 491 463 519 q 364 463 404 463 q 295 491 324 463 q 267 561 267 519 q 295 635 267 607 q 364 663 324 663 q 433 635 404 663 q 463 561 463 607 z "},"À":{"ha":858,"x_min":10,"x_max":847,"o":"m 208 1144 l 389 1144 l 500 972 l 365 972 l 208 1144 m 304 342 l 547 342 l 501 471 q 465 581 482 529 q 429 693 447 632 l 426 693 q 389 583 407 636 q 350 471 371 529 l 304 342 m 346 875 l 515 875 l 847 0 l 668 0 l 590 215 l 264 215 l 186 0 l 10 0 l 346 875 z "},"Á":{"ha":858,"x_min":10,"x_max":847,"o":"m 493 972 l 358 972 l 469 1144 l 651 1144 l 493 972 m 304 342 l 547 342 l 501 471 q 465 581 482 529 q 429 693 447 632 l 426 693 q 389 583 407 636 q 350 471 371 529 l 304 342 m 346 875 l 515 875 l 847 0 l 668 0 l 590 215 l 264 215 l 186 0 l 10 0 l 346 875 z "},"Â":{"ha":858,"x_min":10,"x_max":847,"o":"m 365 1151 l 489 1151 l 656 972 l 524 972 l 426 1075 l 329 972 l 203 972 l 365 1151 m 304 342 l 547 342 l 501 471 q 465 581 482 529 q 429 693 447 632 l 426 693 q 389 583 407 636 q 350 471 371 529 l 304 342 m 346 875 l 515 875 l 847 0 l 668 0 l 590 215 l 264 215 l 186 0 l 10 0 l 346 875 z "},"Ã":{"ha":858,"x_min":10,"x_max":847,"o":"m 214 972 q 245 1085 214 1039 q 339 1132 276 1132 q 387 1124 365 1132 q 428 1106 408 1115 q 465 1088 447 1096 q 504 1079 483 1079 q 539 1096 528 1079 q 551 1136 550 1113 l 635 1136 q 604 1024 635 1069 q 517 978 574 978 q 464 986 489 978 q 418 1003 439 994 q 379 1021 397 1013 q 346 1029 361 1029 q 310 1013 319 1029 q 297 972 300 996 l 214 972 m 304 342 l 547 342 l 501 471 q 465 581 482 529 q 429 693 447 632 l 426 693 q 389 583 407 636 q 350 471 371 529 l 304 342 m 346 875 l 515 875 l 847 0 l 668 0 l 590 215 l 264 215 l 186 0 l 10 0 l 346 875 z "},"Ä":{"ha":858,"x_min":10,"x_max":847,"o":"m 217 1047 q 241 1103 217 1079 q 299 1128 265 1128 q 357 1103 333 1128 q 381 1047 381 1079 q 357 988 381 1013 q 299 964 333 964 q 241 988 265 964 q 217 1047 217 1013 m 475 1047 q 499 1103 475 1079 q 557 1128 522 1128 q 614 1103 590 1128 q 638 1047 638 1079 q 614 988 638 1013 q 557 964 590 964 q 499 988 522 964 q 475 1047 475 1013 m 304 342 l 547 342 l 501 471 q 465 581 482 529 q 429 693 447 632 l 426 693 q 389 583 407 636 q 350 471 371 529 l 304 342 m 346 875 l 515 875 l 847 0 l 668 0 l 590 215 l 264 215 l 186 0 l 10 0 l 346 875 z "},"Å":{"ha":858,"x_min":10,"x_max":847,"o":"m 286 1057 q 326 1149 286 1119 q 428 1179 367 1179 q 530 1149 490 1179 q 569 1057 569 1119 q 558 1002 569 1025 q 526 965 546 979 q 481 942 507 950 q 428 935 456 935 q 328 966 369 935 q 286 1057 286 997 m 368 1057 q 384 1009 368 1026 q 428 992 400 992 q 472 1009 456 992 q 488 1057 488 1026 q 472 1105 488 1088 q 428 1122 456 1122 q 384 1105 400 1122 q 368 1057 368 1088 m 304 342 l 547 342 l 501 471 q 465 581 482 529 q 429 693 447 632 l 426 693 q 389 583 407 636 q 350 471 371 529 l 304 342 m 346 875 l 515 875 l 847 0 l 668 0 l 590 215 l 264 215 l 186 0 l 10 0 l 346 875 z "},"Æ":{"ha":1136,"x_min":13,"x_max":1082,"o":"m 456 875 l 1078 875 l 1078 742 l 726 742 l 726 521 l 1042 521 l 1042 389 l 726 389 l 726 133 l 1082 133 l 1082 0 l 560 0 l 560 218 l 311 218 l 206 0 l 13 0 l 456 875 m 560 751 l 367 347 l 560 347 l 560 751 z "},"Ç":{"ha":786,"x_min":57,"x_max":746,"o":"m 517 119 q 626 131 582 119 q 707 161 671 142 l 743 33 q 649 1 706 14 q 513 -14 593 -12 l 493 -65 q 585 -101 556 -69 q 614 -174 614 -133 q 566 -267 614 -235 q 447 -299 518 -299 q 385 -292 414 -299 q 338 -279 356 -286 l 358 -210 q 431 -222 393 -222 q 506 -169 506 -222 q 501 -146 506 -157 q 483 -126 496 -135 q 447 -113 469 -118 q 386 -108 424 -108 l 426 -10 q 278 36 346 1 q 161 128 210 71 q 85 264 113 186 q 57 438 57 342 q 89 626 57 542 q 180 768 121 710 q 321 858 239 826 q 503 889 403 889 q 649 874 592 889 q 746 838 706 858 l 707 710 q 622 743 665 731 q 522 756 579 756 q 412 738 464 756 q 322 683 360 721 q 260 584 283 644 q 238 438 238 524 q 260 294 238 354 q 319 194 282 233 q 408 138 357 156 q 517 119 458 119 z "},"È":{"ha":715,"x_min":101,"x_max":661,"o":"m 101 875 l 657 875 l 657 742 l 271 742 l 271 521 l 621 521 l 621 389 l 271 389 l 271 133 l 661 133 l 661 0 l 101 0 l 101 875 m 229 1144 l 410 1144 l 521 972 l 386 972 l 229 1144 z "},"É":{"ha":711,"x_min":101,"x_max":661,"o":"m 101 875 l 657 875 l 657 742 l 271 742 l 271 521 l 621 521 l 621 389 l 271 389 l 271 133 l 661 133 l 661 0 l 101 0 l 101 875 m 386 972 l 251 972 l 363 1144 l 543 1144 l 386 972 z "},"Ê":{"ha":711,"x_min":101,"x_max":661,"o":"m 101 875 l 657 875 l 657 742 l 271 742 l 271 521 l 621 521 l 621 389 l 271 389 l 271 133 l 661 133 l 661 0 l 101 0 l 101 875 m 307 1151 l 431 1151 l 597 972 l 465 972 l 368 1075 l 271 972 l 144 972 l 307 1151 z "},"Ë":{"ha":711,"x_min":101,"x_max":661,"o":"m 101 875 l 657 875 l 657 742 l 271 742 l 271 521 l 621 521 l 621 389 l 271 389 l 271 133 l 661 133 l 661 0 l 101 0 l 101 875 m 168 1047 q 192 1103 168 1079 q 250 1128 217 1128 q 308 1103 285 1128 q 332 1047 332 1079 q 308 988 332 1013 q 250 964 285 964 q 192 988 217 964 q 168 1047 168 1013 m 426 1047 q 450 1103 426 1079 q 508 1128 474 1128 q 565 1103 542 1128 q 589 1047 589 1079 q 565 988 589 1013 q 508 964 542 964 q 450 988 474 964 q 426 1047 426 1013 z "},"Ì":{"ha":372,"x_min":-43,"x_max":271,"o":"m 271 875 l 271 0 l 101 0 l 101 875 l 271 875 m -43 1144 l 139 1144 l 250 972 l 115 972 l -43 1144 z "},"Í":{"ha":372,"x_min":101,"x_max":414,"o":"m 271 875 l 271 0 l 101 0 l 101 875 l 271 875 m 256 972 l 121 972 l 232 1144 l 414 1144 l 256 972 z "},"Î":{"ha":372,"x_min":-37,"x_max":415,"o":"m 271 875 l 271 0 l 101 0 l 101 875 l 271 875 m 125 1151 l 249 1151 l 415 972 l 283 972 l 186 1075 l 89 972 l -37 972 l 125 1151 z "},"Ï":{"ha":372,"x_min":-26,"x_max":394,"o":"m 271 875 l 271 0 l 101 0 l 101 875 l 271 875 m -26 1047 q -3 1103 -26 1079 q 56 1128 21 1128 q 113 1103 89 1128 q 136 1047 136 1079 q 113 988 136 1013 q 56 964 89 964 q -3 988 21 964 q -26 1047 -26 1013 m 231 1047 q 255 1103 231 1079 q 313 1128 279 1128 q 371 1103 347 1128 q 394 1047 394 1079 q 371 988 394 1013 q 313 964 347 964 q 255 988 279 964 q 231 1047 231 1013 z "},"Ð":{"ha":951,"x_min":35,"x_max":894,"o":"m 449 875 q 629 849 547 875 q 770 769 711 822 q 862 638 829 717 q 894 456 894 560 q 856 248 894 335 q 750 106 817 161 q 595 26 683 51 q 407 0 507 0 l 150 0 l 150 393 l 35 393 l 35 507 l 150 507 l 150 875 l 449 875 m 486 507 l 486 393 l 319 393 l 319 133 l 394 133 q 513 148 456 133 q 615 199 571 163 q 687 297 660 235 q 714 456 714 360 q 635 668 714 594 q 424 742 557 742 l 319 742 l 319 507 l 486 507 z "},"Ñ":{"ha":939,"x_min":101,"x_max":838,"o":"m 101 875 l 351 875 l 590 361 l 674 146 l 679 146 l 671 390 l 671 875 l 838 875 l 838 0 l 588 0 l 357 492 l 265 735 l 260 735 l 268 463 l 268 0 l 101 0 l 101 875 m 283 972 q 314 1085 283 1039 q 407 1132 344 1132 q 456 1124 433 1132 q 497 1106 478 1115 q 533 1088 515 1096 q 572 1079 551 1079 q 607 1096 596 1079 q 621 1136 618 1113 l 704 1136 q 674 1024 704 1069 q 585 978 643 978 q 533 986 557 978 q 488 1003 508 994 q 448 1021 467 1013 q 414 1029 429 1029 q 378 1013 389 1029 q 367 972 368 996 l 283 972 z "},"Ò":{"ha":969,"x_min":58,"x_max":911,"o":"m 488 889 q 657 859 579 889 q 791 772 735 829 q 879 630 847 714 q 911 436 911 546 q 878 246 911 329 q 788 105 846 163 q 652 17 731 47 q 482 -14 574 -14 q 313 15 390 -14 q 178 101 235 44 q 90 242 122 158 q 58 436 58 326 q 91 627 58 543 q 181 769 124 711 q 317 858 239 828 q 488 889 396 889 m 239 436 q 258 294 239 354 q 312 195 278 235 q 391 136 346 156 q 488 117 436 117 q 583 136 539 117 q 660 195 628 156 q 712 294 693 235 q 731 436 731 354 q 711 581 731 519 q 658 681 692 642 q 578 740 624 721 q 482 758 533 758 q 386 738 431 758 q 309 678 342 718 q 258 578 276 639 q 239 436 239 517 m 325 1144 l 507 1144 l 618 972 l 483 972 l 325 1144 z "},"Ó":{"ha":969,"x_min":58,"x_max":911,"o":"m 488 889 q 657 859 579 889 q 791 772 735 829 q 879 630 847 714 q 911 436 911 546 q 878 246 911 329 q 788 105 846 163 q 652 17 731 47 q 482 -14 574 -14 q 313 15 390 -14 q 178 101 235 44 q 90 242 122 158 q 58 436 58 326 q 91 627 58 543 q 181 769 124 711 q 317 858 239 828 q 488 889 396 889 m 239 436 q 258 294 239 354 q 312 195 278 235 q 391 136 346 156 q 488 117 436 117 q 583 136 539 117 q 660 195 628 156 q 712 294 693 235 q 731 436 731 354 q 711 581 731 519 q 658 681 692 642 q 578 740 624 721 q 482 758 533 758 q 386 738 431 758 q 309 678 342 718 q 258 578 276 639 q 239 436 239 517 m 479 972 l 344 972 l 456 1144 l 638 1144 l 479 972 z "},"Ô":{"ha":969,"x_min":58,"x_max":911,"o":"m 488 889 q 657 859 579 889 q 791 772 735 829 q 879 630 847 714 q 911 436 911 546 q 878 246 911 329 q 788 105 846 163 q 652 17 731 47 q 482 -14 574 -14 q 313 15 390 -14 q 178 101 235 44 q 90 242 122 158 q 58 436 58 326 q 91 627 58 543 q 181 769 124 711 q 317 858 239 828 q 488 889 396 889 m 239 436 q 258 294 239 354 q 312 195 278 235 q 391 136 346 156 q 488 117 436 117 q 583 136 539 117 q 660 195 628 156 q 712 294 693 235 q 731 436 731 354 q 711 581 731 519 q 658 681 692 642 q 578 740 624 721 q 482 758 533 758 q 386 738 431 758 q 309 678 342 718 q 258 578 276 639 q 239 436 239 517 m 425 1151 l 549 1151 l 715 972 l 583 972 l 486 1075 l 389 972 l 263 972 l 425 1151 z "},"Õ":{"ha":969,"x_min":58,"x_max":911,"o":"m 488 889 q 657 859 579 889 q 791 772 735 829 q 879 630 847 714 q 911 436 911 546 q 878 246 911 329 q 788 105 846 163 q 652 17 731 47 q 482 -14 574 -14 q 313 15 390 -14 q 178 101 235 44 q 90 242 122 158 q 58 436 58 326 q 91 627 58 543 q 181 769 124 711 q 317 858 239 828 q 488 889 396 889 m 239 436 q 258 294 239 354 q 312 195 278 235 q 391 136 346 156 q 488 117 436 117 q 583 136 539 117 q 660 195 628 156 q 712 294 693 235 q 731 436 731 354 q 711 581 731 519 q 658 681 692 642 q 578 740 624 721 q 482 758 533 758 q 386 738 431 758 q 309 678 342 718 q 258 578 276 639 q 239 436 239 517 m 269 972 q 300 1086 269 1039 q 393 1133 331 1133 q 442 1125 419 1133 q 483 1106 464 1117 q 519 1088 501 1096 q 558 1079 538 1079 q 593 1097 582 1079 q 607 1138 604 1114 l 690 1138 q 660 1024 690 1071 q 571 978 629 978 q 519 986 543 978 q 474 1004 494 994 q 434 1022 453 1014 q 400 1031 415 1031 q 365 1013 375 1031 q 353 972 354 996 l 269 972 z "},"Ö":{"ha":969,"x_min":58,"x_max":911,"o":"m 488 889 q 657 859 579 889 q 791 772 735 829 q 879 630 847 714 q 911 436 911 546 q 878 246 911 329 q 788 105 846 163 q 652 17 731 47 q 482 -14 574 -14 q 313 15 390 -14 q 178 101 235 44 q 90 242 122 158 q 58 436 58 326 q 91 627 58 543 q 181 769 124 711 q 317 858 239 828 q 488 889 396 889 m 239 436 q 258 294 239 354 q 312 195 278 235 q 391 136 346 156 q 488 117 436 117 q 583 136 539 117 q 660 195 628 156 q 712 294 693 235 q 731 436 731 354 q 711 581 731 519 q 658 681 692 642 q 578 740 624 721 q 482 758 533 758 q 386 738 431 758 q 309 678 342 718 q 258 578 276 639 q 239 436 239 517 m 275 1047 q 299 1103 275 1079 q 357 1128 322 1128 q 414 1103 390 1128 q 438 1047 438 1079 q 414 988 438 1013 q 357 964 390 964 q 299 988 322 964 q 275 1047 275 1013 m 532 1047 q 556 1103 532 1079 q 614 1128 581 1128 q 672 1103 649 1128 q 696 1047 696 1079 q 672 988 696 1013 q 614 964 649 964 q 556 988 581 964 q 532 1047 532 1013 z "},"Ø":{"ha":969,"x_min":58,"x_max":911,"o":"m 710 1044 l 786 1013 l 710 833 q 856 682 801 781 q 911 436 911 583 q 878 246 911 329 q 788 105 846 163 q 652 17 731 47 q 482 -14 574 -14 q 413 -9 447 -14 q 349 3 378 -4 l 254 -219 l 178 -186 l 271 33 q 116 185 174 86 q 58 436 58 285 q 91 627 58 543 q 181 769 124 711 q 317 858 239 828 q 488 889 396 889 q 563 883 525 889 q 633 867 600 878 l 710 1044 m 239 436 q 265 270 239 336 q 333 168 290 204 l 574 743 q 482 758 531 758 q 386 738 431 758 q 309 678 342 718 q 258 578 276 639 q 239 436 239 517 m 488 117 q 583 136 539 117 q 660 195 628 156 q 712 294 693 235 q 731 436 731 354 q 708 595 731 532 q 644 696 685 658 l 408 128 q 447 119 428 121 q 488 117 467 117 z "},"Ù":{"ha":908,"x_min":96,"x_max":813,"o":"m 96 875 l 265 875 l 265 351 q 310 174 265 231 q 456 118 356 118 q 599 178 554 118 q 643 335 643 239 l 643 875 l 813 875 l 813 346 q 721 75 813 164 q 456 -14 629 -14 q 304 8 371 -14 q 191 74 238 29 q 120 189 144 119 q 96 353 96 258 l 96 875 m 285 1144 l 467 1144 l 578 972 l 443 972 l 285 1144 z "},"Ú":{"ha":908,"x_min":96,"x_max":813,"o":"m 96 875 l 265 875 l 265 351 q 310 174 265 231 q 456 118 356 118 q 599 178 554 118 q 643 335 643 239 l 643 875 l 813 875 l 813 346 q 721 75 813 164 q 456 -14 629 -14 q 304 8 371 -14 q 191 74 238 29 q 120 189 144 119 q 96 353 96 258 l 96 875 m 458 972 l 324 972 l 435 1144 l 617 1144 l 458 972 z "},"Û":{"ha":908,"x_min":96,"x_max":813,"o":"m 96 875 l 265 875 l 265 351 q 310 174 265 231 q 456 118 356 118 q 599 178 554 118 q 643 335 643 239 l 643 875 l 813 875 l 813 346 q 721 75 813 164 q 456 -14 629 -14 q 304 8 371 -14 q 191 74 238 29 q 120 189 144 119 q 96 353 96 258 l 96 875 m 394 1151 l 518 1151 l 685 972 l 553 972 l 456 1075 l 358 972 l 232 972 l 394 1151 z "},"Ü":{"ha":908,"x_min":96,"x_max":813,"o":"m 96 875 l 265 875 l 265 351 q 310 174 265 231 q 456 118 356 118 q 599 178 554 118 q 643 335 643 239 l 643 875 l 813 875 l 813 346 q 721 75 813 164 q 456 -14 629 -14 q 304 8 371 -14 q 191 74 238 29 q 120 189 144 119 q 96 353 96 258 l 96 875 m 246 1047 q 269 1103 246 1079 q 328 1128 293 1128 q 385 1103 361 1128 q 408 1047 408 1079 q 385 988 408 1013 q 328 964 361 964 q 269 988 293 964 q 246 1047 246 1013 m 503 1047 q 527 1103 503 1079 q 585 1128 551 1128 q 643 1103 619 1128 q 667 1047 667 1079 q 643 988 667 1013 q 585 964 619 964 q 527 988 551 964 q 503 1047 503 1013 z "},"Ý":{"ha":775,"x_min":4,"x_max":772,"o":"m 193 875 l 390 518 l 589 875 l 772 875 l 469 363 l 469 0 l 300 0 l 300 363 l 4 875 l 193 875 m 432 972 l 297 972 l 408 1144 l 590 1144 l 432 972 z "},"Þ":{"ha":742,"x_min":96,"x_max":689,"o":"m 96 875 l 257 875 l 257 699 q 379 715 315 715 q 503 696 446 715 q 601 641 560 676 q 665 555 642 606 q 689 442 689 504 q 663 311 689 367 q 592 219 638 256 q 483 165 546 183 q 349 147 421 147 q 303 149 329 147 q 257 154 276 151 l 257 0 l 96 0 l 96 875 m 257 282 q 297 274 276 275 q 344 272 317 272 q 474 314 425 272 q 522 433 522 356 q 474 552 522 513 q 356 592 426 592 q 301 588 328 592 q 257 576 275 583 l 257 282 z "},"ß":{"ha":829,"x_min":97,"x_max":774,"o":"m 97 0 l 97 660 q 116 797 97 735 q 175 905 135 860 q 278 975 215 950 q 431 1000 342 1000 q 537 984 486 1000 q 627 938 588 968 q 690 864 667 908 q 714 764 714 819 q 706 699 714 729 q 686 646 697 669 q 586 603 615 631 q 557 533 557 576 q 581 465 557 493 q 642 410 606 436 q 737 317 700 365 q 774 199 774 269 q 705 46 774 106 q 506 -14 636 -14 q 461 -12 485 -14 q 415 -6 438 -10 q 372 4 392 -1 q 338 18 351 10 l 372 133 q 494 108 431 108 q 581 135 551 108 q 610 203 610 163 q 583 268 610 242 q 510 331 557 294 q 426 415 457 371 q 394 528 394 458 q 432 634 394 588 q 540 701 469 681 q 547 726 544 713 q 549 760 549 739 q 513 846 549 817 q 424 875 476 875 q 356 863 386 875 q 303 824 325 851 q 270 751 282 796 q 258 640 258 706 l 258 0 l 97 0 z "},"à":{"ha":694,"x_min":46,"x_max":618,"o":"m 97 601 q 221 653 158 635 q 358 672 283 672 q 464 659 417 672 q 546 617 511 646 q 599 541 581 588 q 618 428 618 494 l 618 0 l 489 0 l 472 69 l 468 69 q 267 -14 397 -14 q 104 41 163 -14 q 46 183 46 96 q 69 279 46 239 q 134 346 93 319 q 232 385 175 372 q 356 399 289 399 l 453 399 l 453 444 q 421 522 453 499 q 335 544 389 544 q 252 532 296 544 q 156 489 208 519 l 97 601 m 454 294 l 379 292 q 251 260 288 289 q 215 192 215 232 q 246 122 215 140 q 317 104 276 104 q 394 124 357 104 q 454 181 431 144 l 454 294 m 190 965 l 361 965 l 458 765 l 338 765 l 190 965 z "},"á":{"ha":694,"x_min":46,"x_max":618,"o":"m 97 601 q 221 653 158 635 q 358 672 283 672 q 464 659 417 672 q 546 617 511 646 q 599 541 581 588 q 618 428 618 494 l 618 0 l 489 0 l 472 69 l 468 69 q 267 -14 397 -14 q 104 41 163 -14 q 46 183 46 96 q 69 279 46 239 q 134 346 93 319 q 232 385 175 372 q 356 399 289 399 l 453 399 l 453 444 q 421 522 453 499 q 335 544 389 544 q 252 532 296 544 q 156 489 208 519 l 97 601 m 454 294 l 379 292 q 251 260 288 289 q 215 192 215 232 q 246 122 215 140 q 317 104 276 104 q 394 124 357 104 q 454 181 431 144 l 454 294 m 394 765 l 274 765 l 371 965 l 542 965 l 394 765 z "},"â":{"ha":694,"x_min":46,"x_max":618,"o":"m 97 601 q 221 653 158 635 q 358 672 283 672 q 464 659 417 672 q 546 617 511 646 q 599 541 581 588 q 618 428 618 494 l 618 0 l 489 0 l 472 69 l 468 69 q 267 -14 397 -14 q 104 41 163 -14 q 46 183 46 96 q 69 279 46 239 q 134 346 93 319 q 232 385 175 372 q 356 399 289 399 l 453 399 l 453 444 q 421 522 453 499 q 335 544 389 544 q 252 532 296 544 q 156 489 208 519 l 97 601 m 454 294 l 379 292 q 251 260 288 289 q 215 192 215 232 q 246 122 215 140 q 317 104 276 104 q 394 124 357 104 q 454 181 431 144 l 454 294 m 575 765 l 449 765 l 358 875 l 268 765 l 136 765 l 306 958 l 408 958 l 575 765 z "},"ã":{"ha":694,"x_min":46,"x_max":618,"o":"m 97 601 q 221 653 158 635 q 358 672 283 672 q 464 659 417 672 q 546 617 511 646 q 599 541 581 588 q 618 428 618 494 l 618 0 l 489 0 l 472 69 l 468 69 q 267 -14 397 -14 q 104 41 163 -14 q 46 183 46 96 q 69 279 46 239 q 134 346 93 319 q 232 385 175 372 q 356 399 289 399 l 453 399 l 453 444 q 421 522 453 499 q 335 544 389 544 q 252 532 296 544 q 156 489 208 519 l 97 601 m 454 294 l 379 292 q 251 260 288 289 q 215 192 215 232 q 246 122 215 140 q 317 104 276 104 q 394 124 357 104 q 454 181 431 144 l 454 294 m 126 765 q 158 891 126 844 q 253 938 190 938 q 305 928 281 938 q 350 906 329 918 q 390 883 371 893 q 428 874 410 874 q 465 896 456 874 q 478 943 475 918 l 561 943 q 530 819 561 865 q 438 772 499 772 q 380 782 406 772 q 332 803 354 792 q 292 825 310 815 q 258 835 274 835 q 222 815 232 835 q 210 765 211 796 l 126 765 z "},"ä":{"ha":694,"x_min":46,"x_max":618,"o":"m 97 601 q 221 653 158 635 q 358 672 283 672 q 464 659 417 672 q 546 617 511 646 q 599 541 581 588 q 618 428 618 494 l 618 0 l 489 0 l 472 69 l 468 69 q 267 -14 397 -14 q 104 41 163 -14 q 46 183 46 96 q 69 279 46 239 q 134 346 93 319 q 232 385 175 372 q 356 399 289 399 l 453 399 l 453 444 q 421 522 453 499 q 335 544 389 544 q 252 532 296 544 q 156 489 208 519 l 97 601 m 454 294 l 379 292 q 251 260 288 289 q 215 192 215 232 q 246 122 215 140 q 317 104 276 104 q 394 124 357 104 q 454 181 431 144 l 454 294 m 147 863 q 172 920 147 894 q 231 946 196 946 q 289 920 265 946 q 313 863 313 894 q 289 803 313 828 q 231 778 265 778 q 172 803 196 778 q 147 863 147 828 m 407 863 q 432 920 407 894 q 490 946 457 946 q 550 920 526 946 q 574 863 574 894 q 550 803 574 828 q 490 778 526 778 q 432 803 457 778 q 407 863 407 828 z "},"å":{"ha":694,"x_min":46,"x_max":618,"o":"m 97 601 q 221 653 158 635 q 358 672 283 672 q 464 659 417 672 q 546 617 511 646 q 599 541 581 588 q 618 428 618 494 l 618 0 l 489 0 l 472 69 l 468 69 q 267 -14 397 -14 q 104 41 163 -14 q 46 183 46 96 q 69 279 46 239 q 134 346 93 319 q 232 385 175 372 q 356 399 289 399 l 453 399 l 453 444 q 421 522 453 499 q 335 544 389 544 q 252 532 296 544 q 156 489 208 519 l 97 601 m 454 294 l 379 292 q 251 260 288 289 q 215 192 215 232 q 246 122 215 140 q 317 104 276 104 q 394 124 357 104 q 454 181 431 144 l 454 294 m 224 865 q 235 919 224 896 q 267 957 247 942 q 311 980 286 972 q 363 988 336 988 q 416 980 390 988 q 460 957 442 972 q 490 919 479 942 q 501 865 501 896 q 490 810 501 833 q 458 773 478 788 q 414 751 439 758 q 363 743 389 743 q 311 751 336 743 q 267 775 286 760 q 235 813 247 790 q 224 865 224 836 m 300 865 q 317 816 300 833 q 363 799 335 799 q 408 816 390 799 q 425 865 425 833 q 408 914 425 897 q 363 931 390 931 q 318 914 336 931 q 300 865 300 897 z "},"æ":{"ha":1100,"x_min":46,"x_max":1051,"o":"m 1051 296 l 610 296 l 610 290 q 665 153 610 197 q 811 108 719 108 q 908 118 865 108 q 989 144 950 128 l 1019 29 q 928 -1 982 11 q 803 -14 874 -14 q 644 13 715 -14 q 526 99 574 39 l 522 99 q 422 16 481 46 q 272 -14 364 -14 q 106 41 167 -14 q 46 183 46 96 q 69 279 46 239 q 134 346 93 319 q 232 385 175 372 q 356 399 289 399 l 461 399 l 461 444 q 427 522 461 499 q 335 544 393 544 q 252 532 296 544 q 156 489 208 519 l 97 601 q 219 653 158 635 q 354 672 281 672 q 474 651 424 672 q 556 582 525 629 l 558 582 q 649 650 594 628 q 767 672 703 672 q 976 591 900 672 q 1051 365 1051 510 l 1051 296 m 215 192 q 246 122 215 140 q 317 104 276 104 q 406 127 363 104 q 475 192 449 150 q 463 240 468 215 q 457 294 458 265 l 379 292 q 251 260 288 289 q 215 192 215 232 m 883 401 q 876 458 883 431 q 855 508 869 486 q 817 542 840 529 q 760 556 793 556 q 658 513 697 556 q 613 399 619 471 l 883 401 z "},"ç":{"ha":636,"x_min":54,"x_max":594,"o":"m 426 108 q 505 119 471 108 q 563 142 539 129 l 594 26 q 517 -1 565 11 q 411 -14 469 -12 l 386 -65 q 469 -96 439 -69 q 500 -162 500 -122 q 488 -213 500 -192 q 453 -249 475 -235 q 402 -271 431 -264 q 340 -278 374 -278 q 278 -272 307 -278 q 231 -260 250 -267 l 251 -189 q 324 -201 286 -201 q 374 -192 356 -201 q 392 -158 392 -182 q 367 -122 392 -135 q 279 -108 342 -108 l 325 -7 q 217 29 267 3 q 131 98 167 56 q 74 197 94 140 q 54 328 54 254 q 80 469 54 406 q 152 578 106 533 q 263 648 199 624 q 406 672 328 672 q 494 664 449 672 q 593 631 540 656 l 558 514 q 493 542 526 532 q 424 551 460 551 q 276 495 332 551 q 221 332 221 439 q 239 226 221 269 q 286 157 257 183 q 352 119 315 131 q 426 108 389 108 z "},"è":{"ha":714,"x_min":49,"x_max":665,"o":"m 665 300 l 217 300 l 217 294 q 273 155 217 201 q 421 108 329 108 q 517 118 475 108 q 599 144 560 128 l 631 29 q 535 -1 590 11 q 406 -14 479 -14 q 267 6 332 -14 q 154 67 203 25 q 77 172 106 108 q 49 325 49 236 q 72 467 49 403 q 139 576 96 531 q 243 647 182 622 q 378 672 304 672 q 588 592 510 672 q 665 368 665 511 l 665 300 m 497 407 q 490 463 497 436 q 468 511 483 490 q 428 544 453 532 q 371 556 404 556 q 268 514 308 556 q 219 404 228 472 l 497 407 m 224 965 l 394 965 l 492 765 l 371 765 l 224 965 z "},"é":{"ha":714,"x_min":49,"x_max":665,"o":"m 665 300 l 217 300 l 217 294 q 273 155 217 201 q 421 108 329 108 q 517 118 475 108 q 599 144 560 128 l 631 29 q 535 -1 590 11 q 406 -14 479 -14 q 267 6 332 -14 q 154 67 203 25 q 77 172 106 108 q 49 325 49 236 q 72 467 49 403 q 139 576 96 531 q 243 647 182 622 q 378 672 304 672 q 588 592 510 672 q 665 368 665 511 l 665 300 m 497 407 q 490 463 497 436 q 468 511 483 490 q 428 544 453 532 q 371 556 404 556 q 268 514 308 556 q 219 404 228 472 l 497 407 m 389 765 l 268 765 l 365 965 l 536 965 l 389 765 z "},"ê":{"ha":714,"x_min":49,"x_max":665,"o":"m 665 300 l 217 300 l 217 294 q 273 155 217 201 q 421 108 329 108 q 517 118 475 108 q 599 144 560 128 l 631 29 q 535 -1 590 11 q 406 -14 479 -14 q 267 6 332 -14 q 154 67 203 25 q 77 172 106 108 q 49 325 49 236 q 72 467 49 403 q 139 576 96 531 q 243 647 182 622 q 378 672 304 672 q 588 592 510 672 q 665 368 665 511 l 665 300 m 497 407 q 490 463 497 436 q 468 511 483 490 q 428 544 453 532 q 371 556 404 556 q 268 514 308 556 q 219 404 228 472 l 497 407 m 590 765 l 464 765 l 374 875 l 283 765 l 151 765 l 321 958 l 424 958 l 590 765 z "},"ë":{"ha":714,"x_min":49,"x_max":665,"o":"m 665 300 l 217 300 l 217 294 q 273 155 217 201 q 421 108 329 108 q 517 118 475 108 q 599 144 560 128 l 631 29 q 535 -1 590 11 q 406 -14 479 -14 q 267 6 332 -14 q 154 67 203 25 q 77 172 106 108 q 49 325 49 236 q 72 467 49 403 q 139 576 96 531 q 243 647 182 622 q 378 672 304 672 q 588 592 510 672 q 665 368 665 511 l 665 300 m 497 407 q 490 463 497 436 q 468 511 483 490 q 428 544 453 532 q 371 556 404 556 q 268 514 308 556 q 219 404 228 472 l 497 407 m 161 863 q 185 920 161 894 q 244 946 210 946 q 303 920 279 946 q 326 863 326 894 q 303 803 326 828 q 244 778 279 778 q 185 803 210 778 q 161 863 161 828 m 421 863 q 446 920 421 894 q 504 946 471 946 q 564 920 540 946 q 588 863 588 894 q 564 803 588 828 q 504 778 540 778 q 446 803 471 778 q 421 863 421 828 z "},"ì":{"ha":371,"x_min":-8,"x_max":267,"o":"m 103 0 l 103 660 l 267 660 l 267 0 l 103 0 m -8 965 l 163 965 l 260 765 l 139 765 l -8 965 z "},"í":{"ha":371,"x_min":103,"x_max":378,"o":"m 103 0 l 103 660 l 267 660 l 267 0 l 103 0 m 231 765 l 110 765 l 207 965 l 378 965 l 231 765 z "},"î":{"ha":371,"x_min":-37,"x_max":401,"o":"m 103 0 l 103 660 l 267 660 l 267 0 l 103 0 m 401 765 l 275 765 l 185 875 l 94 765 l -37 765 l 133 958 l 236 958 l 401 765 z "},"ï":{"ha":371,"x_min":-32,"x_max":394,"o":"m 103 0 l 103 660 l 267 660 l 267 0 l 103 0 m -32 863 q -7 920 -32 894 q 51 946 18 946 q 111 920 88 946 q 135 863 135 894 q 111 803 135 828 q 51 778 88 778 q -7 803 18 778 q -32 863 -32 828 m 229 863 q 253 920 229 894 q 313 946 278 946 q 371 920 347 946 q 394 863 394 894 q 371 803 394 828 q 313 778 347 778 q 253 803 278 778 q 229 863 229 828 z "},"ð":{"ha":763,"x_min":53,"x_max":703,"o":"m 349 635 q 445 616 397 635 q 525 565 493 597 l 529 567 q 503 633 519 600 q 467 695 488 665 q 422 750 446 725 q 376 793 399 775 l 218 715 l 182 779 l 311 843 q 246 876 279 863 q 172 901 213 890 l 233 1008 q 346 967 289 993 q 450 904 403 940 l 579 969 l 617 904 l 510 850 q 582 765 547 814 q 644 653 617 715 q 687 517 671 592 q 703 356 703 443 q 682 209 703 276 q 620 92 661 142 q 518 14 579 42 q 376 -14 457 -14 q 263 5 319 -14 q 158 63 206 24 q 82 164 111 103 q 53 311 53 225 q 76 448 53 388 q 139 550 99 508 q 233 613 179 592 q 349 635 286 635 m 379 514 q 322 504 350 514 q 270 471 293 494 q 233 409 247 447 q 218 315 218 371 q 233 217 218 257 q 271 153 247 178 q 324 119 294 129 q 383 108 353 108 q 447 124 418 108 q 498 168 476 140 q 531 234 519 196 q 543 317 543 272 q 530 401 543 364 q 494 463 517 438 q 441 501 471 488 q 379 514 411 514 z "},"ñ":{"ha":768,"x_min":86,"x_max":681,"o":"m 250 0 l 86 0 l 86 660 l 214 660 l 235 572 q 336 646 282 619 q 457 672 390 672 q 622 613 564 672 q 681 446 681 554 l 681 0 l 517 0 l 517 426 q 490 512 517 479 q 408 544 463 544 q 326 523 368 544 q 250 465 285 501 l 250 0 m 164 765 q 196 891 164 844 q 290 938 228 938 q 342 928 318 938 q 388 906 367 918 q 428 883 408 893 q 465 874 447 874 q 503 896 493 874 q 515 943 513 918 l 599 943 q 567 819 599 865 q 475 772 536 772 q 417 782 443 772 q 369 803 392 792 q 329 825 347 815 q 296 835 311 835 q 259 815 269 835 q 247 765 249 796 l 164 765 z "},"ò":{"ha":775,"x_min":54,"x_max":721,"o":"m 721 335 q 695 188 721 253 q 624 78 669 122 q 517 10 578 33 q 385 -14 456 -14 q 253 8 314 -14 q 149 73 193 31 q 79 178 104 115 q 54 321 54 240 q 80 470 54 404 q 151 581 106 536 q 258 649 197 625 q 390 672 319 672 q 522 651 461 672 q 626 586 582 629 q 696 481 671 543 q 721 335 721 418 m 551 328 q 538 430 551 388 q 501 499 524 472 q 448 538 478 525 q 386 550 418 550 q 325 540 354 550 q 274 503 296 529 q 238 435 251 478 q 224 328 224 392 q 238 228 224 269 q 274 160 251 188 q 327 121 297 133 q 389 108 357 108 q 449 119 419 108 q 501 156 479 131 q 538 223 524 181 q 551 328 551 265 m 208 965 l 379 965 l 476 765 l 356 765 l 208 965 z "},"ó":{"ha":775,"x_min":54,"x_max":721,"o":"m 721 335 q 695 188 721 253 q 624 78 669 122 q 517 10 578 33 q 385 -14 456 -14 q 253 8 314 -14 q 149 73 193 31 q 79 178 104 115 q 54 321 54 240 q 80 470 54 404 q 151 581 106 536 q 258 649 197 625 q 390 672 319 672 q 522 651 461 672 q 626 586 582 629 q 696 481 671 543 q 721 335 721 418 m 551 328 q 538 430 551 388 q 501 499 524 472 q 448 538 478 525 q 386 550 418 550 q 325 540 354 550 q 274 503 296 529 q 238 435 251 478 q 224 328 224 392 q 238 228 224 269 q 274 160 251 188 q 327 121 297 133 q 389 108 357 108 q 449 119 419 108 q 501 156 479 131 q 538 223 524 181 q 551 328 551 265 m 424 765 l 303 765 l 400 965 l 571 965 l 424 765 z "},"ô":{"ha":775,"x_min":54,"x_max":721,"o":"m 721 335 q 695 188 721 253 q 624 78 669 122 q 517 10 578 33 q 385 -14 456 -14 q 253 8 314 -14 q 149 73 193 31 q 79 178 104 115 q 54 321 54 240 q 80 470 54 404 q 151 581 106 536 q 258 649 197 625 q 390 672 319 672 q 522 651 461 672 q 626 586 582 629 q 696 481 671 543 q 721 335 721 418 m 551 328 q 538 430 551 388 q 501 499 524 472 q 448 538 478 525 q 386 550 418 550 q 325 540 354 550 q 274 503 296 529 q 238 435 251 478 q 224 328 224 392 q 238 228 224 269 q 274 160 251 188 q 327 121 297 133 q 389 108 357 108 q 449 119 419 108 q 501 156 479 131 q 538 223 524 181 q 551 328 551 265 m 604 765 l 478 765 l 388 875 l 297 765 l 165 765 l 336 958 l 439 958 l 604 765 z "},"õ":{"ha":775,"x_min":54,"x_max":721,"o":"m 721 335 q 695 188 721 253 q 624 78 669 122 q 517 10 578 33 q 385 -14 456 -14 q 253 8 314 -14 q 149 73 193 31 q 79 178 104 115 q 54 321 54 240 q 80 470 54 404 q 151 581 106 536 q 258 649 197 625 q 390 672 319 672 q 522 651 461 672 q 626 586 582 629 q 696 481 671 543 q 721 335 721 418 m 551 328 q 538 430 551 388 q 501 499 524 472 q 448 538 478 525 q 386 550 418 550 q 325 540 354 550 q 274 503 296 529 q 238 435 251 478 q 224 328 224 392 q 238 228 224 269 q 274 160 251 188 q 327 121 297 133 q 389 108 357 108 q 449 119 419 108 q 501 156 479 131 q 538 223 524 181 q 551 328 551 265 m 167 765 q 199 891 167 844 q 293 938 231 938 q 345 928 321 938 q 391 906 369 918 q 431 883 413 893 q 469 874 450 874 q 507 896 497 874 q 518 943 517 918 l 601 943 q 572 819 603 865 q 479 772 540 772 q 422 782 447 772 q 374 803 396 792 q 333 825 351 815 q 299 835 315 835 q 263 815 274 835 q 250 765 253 796 l 167 765 z "},"ö":{"ha":775,"x_min":54,"x_max":721,"o":"m 721 335 q 695 188 721 253 q 624 78 669 122 q 517 10 578 33 q 385 -14 456 -14 q 253 8 314 -14 q 149 73 193 31 q 79 178 104 115 q 54 321 54 240 q 80 470 54 404 q 151 581 106 536 q 258 649 197 625 q 390 672 319 672 q 522 651 461 672 q 626 586 582 629 q 696 481 671 543 q 721 335 721 418 m 551 328 q 538 430 551 388 q 501 499 524 472 q 448 538 478 525 q 386 550 418 550 q 325 540 354 550 q 274 503 296 529 q 238 435 251 478 q 224 328 224 392 q 238 228 224 269 q 274 160 251 188 q 327 121 297 133 q 389 108 357 108 q 449 119 419 108 q 501 156 479 131 q 538 223 524 181 q 551 328 551 265 m 171 863 q 195 920 171 894 q 254 946 219 946 q 313 920 289 946 q 336 863 336 894 q 313 803 336 828 q 254 778 289 778 q 195 803 219 778 q 171 863 171 828 m 431 863 q 456 920 431 894 q 514 946 481 946 q 574 920 550 946 q 597 863 597 894 q 574 803 597 828 q 514 778 550 778 q 456 803 481 778 q 431 863 431 828 z "},"ø":{"ha":775,"x_min":53,"x_max":721,"o":"m 517 788 l 590 765 l 546 640 q 672 529 624 604 q 721 338 719 454 q 696 190 721 256 q 626 80 671 125 q 519 10 581 35 q 388 -14 458 -14 q 303 -6 342 -14 l 264 -124 l 193 -100 l 233 15 q 104 128 153 53 q 54 318 56 203 q 78 467 53 401 q 149 578 104 533 q 256 648 194 624 q 388 672 317 672 q 475 663 435 672 l 517 788 m 385 550 q 324 539 353 550 q 273 502 296 528 q 237 433 250 476 q 224 326 224 390 q 242 216 224 260 q 288 149 260 172 l 424 546 q 404 549 414 547 q 385 550 394 550 m 551 329 q 534 439 551 396 q 489 507 517 482 l 353 111 q 372 108 363 108 q 390 108 381 108 q 450 119 421 108 q 502 156 479 131 q 538 224 525 182 q 551 329 551 267 z "},"ù":{"ha":769,"x_min":88,"x_max":682,"o":"m 518 660 l 682 660 l 682 0 l 558 0 l 539 76 l 533 76 q 449 15 501 43 q 317 -14 396 -14 q 150 44 213 -14 q 88 219 88 103 l 88 660 l 251 660 l 251 236 q 283 140 251 168 q 363 111 314 111 q 452 133 414 111 q 518 186 490 154 l 518 660 m 186 965 l 357 965 l 454 765 l 333 765 l 186 965 z "},"ú":{"ha":769,"x_min":88,"x_max":682,"o":"m 518 660 l 682 660 l 682 0 l 558 0 l 539 76 l 533 76 q 449 15 501 43 q 317 -14 396 -14 q 150 44 213 -14 q 88 219 88 103 l 88 660 l 251 660 l 251 236 q 283 140 251 168 q 363 111 314 111 q 452 133 414 111 q 518 186 490 154 l 518 660 m 433 765 l 313 765 l 410 965 l 581 965 l 433 765 z "},"û":{"ha":769,"x_min":88,"x_max":682,"o":"m 518 660 l 682 660 l 682 0 l 558 0 l 539 76 l 533 76 q 449 15 501 43 q 317 -14 396 -14 q 150 44 213 -14 q 88 219 88 103 l 88 660 l 251 660 l 251 236 q 283 140 251 168 q 363 111 314 111 q 452 133 414 111 q 518 186 490 154 l 518 660 m 604 765 l 478 765 l 388 875 l 297 765 l 165 765 l 335 958 l 438 958 l 604 765 z "},"ü":{"ha":769,"x_min":88,"x_max":682,"o":"m 518 660 l 682 660 l 682 0 l 558 0 l 539 76 l 533 76 q 449 15 501 43 q 317 -14 396 -14 q 150 44 213 -14 q 88 219 88 103 l 88 660 l 251 660 l 251 236 q 283 140 251 168 q 363 111 314 111 q 452 133 414 111 q 518 186 490 154 l 518 660 m 168 863 q 193 920 168 894 q 251 946 218 946 q 311 920 288 946 q 335 863 335 894 q 311 803 335 828 q 251 778 288 778 q 193 803 218 778 q 168 863 168 828 m 429 863 q 453 920 429 894 q 513 946 478 946 q 571 920 547 946 q 594 863 594 894 q 571 803 594 828 q 513 778 547 778 q 453 803 478 778 q 429 863 429 828 z "},"ý":{"ha":694,"x_min":11,"x_max":686,"o":"m 11 660 l 189 660 l 313 324 l 358 165 l 363 165 l 407 325 l 518 660 l 686 660 l 440 -35 q 332 -233 400 -150 q 146 -357 264 -317 l 76 -228 q 202 -150 150 -200 q 278 -22 254 -100 l 285 1 l 11 660 m 393 765 l 272 765 l 369 965 l 540 965 l 393 765 z "},"þ":{"ha":779,"x_min":89,"x_max":726,"o":"m 726 328 q 703 185 726 249 q 638 78 679 122 q 540 10 596 33 q 419 -14 483 -14 q 326 -3 367 -14 q 251 33 285 8 l 251 -232 l 89 -232 l 89 989 l 251 989 l 251 597 q 442 672 331 672 q 650 581 574 672 q 726 328 726 490 m 557 325 q 514 487 557 429 q 394 544 471 544 q 315 525 351 544 q 253 475 279 506 l 253 163 q 306 123 275 138 q 375 108 336 108 q 443 121 410 108 q 501 160 476 133 q 542 228 526 188 q 557 325 557 268 z "},"ÿ":{"ha":694,"x_min":11,"x_max":686,"o":"m 11 660 l 189 660 l 313 324 l 358 165 l 363 165 l 407 325 l 518 660 l 686 660 l 440 -35 q 332 -233 400 -150 q 146 -357 264 -317 l 76 -228 q 202 -150 150 -200 q 278 -22 254 -100 l 285 1 l 11 660 m 140 863 q 165 920 140 894 q 224 946 189 946 q 282 920 258 946 q 306 863 306 894 q 282 803 306 828 q 224 778 258 778 q 165 803 189 778 q 140 863 140 828 m 400 863 q 425 920 400 894 q 483 946 450 946 q 543 920 519 946 q 567 863 567 894 q 543 803 567 828 q 483 778 519 778 q 425 803 450 778 q 400 863 400 828 z "},"¬":{"ha":1013,"x_min":0,"x_max":0,"o":""},"˘":{"ha":410,"x_min":19,"x_max":393,"o":"m 121 951 q 141 885 124 910 q 207 861 158 861 q 269 884 249 861 q 293 951 290 907 l 393 951 q 345 820 393 869 q 207 771 297 771 q 122 786 157 771 q 63 826 86 801 q 30 884 40 851 q 19 951 19 917 l 121 951 z "},"ˇ":{"ha":496,"x_min":32,"x_max":471,"o":"m 32 958 l 158 958 l 249 849 l 339 958 l 471 958 l 300 765 l 197 765 l 32 958 z "},"ˉ":{"ha":410,"x_min":35,"x_max":375,"o":"m 375 918 l 375 821 l 35 821 l 35 918 l 375 918 z "},"˙":{"ha":243,"x_min":35,"x_max":207,"o":"m 35 869 q 60 930 35 904 q 121 956 86 956 q 183 930 158 956 q 207 869 207 904 q 183 808 207 833 q 121 782 158 782 q 60 808 86 782 q 35 869 35 833 z "},"˝":{"ha":429,"x_min":36,"x_max":557,"o":"m 154 765 l 36 765 l 138 965 l 306 965 l 154 765 m 407 765 l 289 765 l 389 965 l 557 965 l 407 765 z "},"¯":{"ha":410,"x_min":35,"x_max":375,"o":"m 375 918 l 375 821 l 35 821 l 35 918 l 375 918 z "},"˛":{"ha":343,"x_min":38,"x_max":303,"o":"m 242 0 q 176 -56 200 -28 q 151 -119 151 -83 q 169 -166 151 -150 q 218 -182 188 -182 q 279 -171 253 -182 l 303 -257 q 249 -278 279 -271 q 186 -286 219 -286 q 80 -251 122 -286 q 38 -151 38 -217 q 65 -60 38 -99 q 122 0 93 -22 l 242 0 z "},"˚":{"ha":342,"x_min":31,"x_max":308,"o":"m 31 865 q 73 957 31 926 q 169 988 115 988 q 267 957 225 988 q 308 865 308 926 q 297 810 308 833 q 265 773 285 788 q 219 751 244 758 q 169 743 194 743 q 118 751 143 743 q 74 775 93 760 q 42 813 54 790 q 31 865 31 836 m 107 865 q 124 816 107 833 q 169 799 142 799 q 215 816 197 799 q 232 865 232 833 q 214 914 232 897 q 169 931 196 931 q 124 914 142 931 q 107 865 107 897 z "},"Ă":{"ha":858,"x_min":10,"x_max":847,"o":"m 340 1144 q 362 1083 343 1106 q 428 1061 381 1061 q 513 1144 506 1061 l 613 1144 q 565 1016 613 1064 q 426 968 517 968 q 341 983 376 968 q 283 1022 306 997 q 249 1078 260 1046 q 239 1144 239 1110 l 340 1144 m 304 342 l 547 342 l 501 471 q 465 581 482 529 q 429 693 447 632 l 426 693 q 389 583 407 636 q 350 471 371 529 l 304 342 m 346 875 l 515 875 l 847 0 l 668 0 l 590 215 l 264 215 l 186 0 l 10 0 l 346 875 z "},"Ā":{"ha":858,"x_min":10,"x_max":847,"o":"m 601 1072 l 601 972 l 251 972 l 251 1072 l 601 1072 m 304 342 l 547 342 l 501 471 q 465 581 482 529 q 429 693 447 632 l 426 693 q 389 583 407 636 q 350 471 371 529 l 304 342 m 346 875 l 515 875 l 847 0 l 668 0 l 590 215 l 264 215 l 186 0 l 10 0 l 346 875 z "},"Ą":{"ha":860,"x_min":10,"x_max":851,"o":"m 346 875 l 515 875 l 847 0 l 794 0 q 700 -118 700 -54 q 718 -165 700 -149 q 767 -182 736 -182 q 828 -171 801 -182 l 851 -257 q 798 -278 828 -271 q 735 -286 768 -286 q 628 -250 671 -286 q 586 -149 586 -214 q 611 -60 586 -96 q 668 0 636 -24 l 590 215 l 264 215 l 186 0 l 10 0 l 346 875 m 304 342 l 547 342 l 501 471 q 465 581 482 529 q 429 693 447 632 l 426 693 q 389 583 407 636 q 350 471 371 529 l 304 342 z "},"Ǽ":{"ha":1136,"x_min":13,"x_max":1082,"o":"m 456 875 l 1078 875 l 1078 742 l 726 742 l 726 521 l 1042 521 l 1042 389 l 726 389 l 726 133 l 1082 133 l 1082 0 l 560 0 l 560 218 l 311 218 l 206 0 l 13 0 l 456 875 m 560 751 l 367 347 l 560 347 l 560 751 m 628 972 l 493 972 l 604 1144 l 786 1144 l 628 972 z "},"Ć":{"ha":786,"x_min":57,"x_max":746,"o":"m 517 119 q 626 131 582 119 q 707 161 671 142 l 743 33 q 644 0 704 14 q 499 -14 585 -14 q 323 17 404 -14 q 183 105 242 47 q 90 247 124 163 q 57 438 57 331 q 89 626 57 542 q 180 768 121 710 q 321 858 239 826 q 503 889 403 889 q 649 874 592 889 q 746 838 706 858 l 707 710 q 622 743 665 731 q 522 756 579 756 q 412 738 464 756 q 322 683 360 721 q 260 584 283 644 q 238 438 238 524 q 260 294 238 354 q 319 194 282 233 q 408 138 357 156 q 517 119 458 119 m 478 972 l 343 972 l 454 1144 l 635 1144 l 478 972 z "},"Č":{"ha":786,"x_min":57,"x_max":746,"o":"m 517 119 q 626 131 582 119 q 707 161 671 142 l 743 33 q 644 0 704 14 q 499 -14 585 -14 q 323 17 404 -14 q 183 105 242 47 q 90 247 124 163 q 57 438 57 331 q 89 626 57 542 q 180 768 121 710 q 321 858 239 826 q 503 889 403 889 q 649 874 592 889 q 746 838 706 858 l 707 710 q 622 743 665 731 q 522 756 579 756 q 412 738 464 756 q 322 683 360 721 q 260 584 283 644 q 238 438 238 524 q 260 294 238 354 q 319 194 282 233 q 408 138 357 156 q 517 119 458 119 m 251 1151 l 383 1151 l 479 1047 l 576 1151 l 704 1151 l 540 972 l 417 972 l 251 1151 z "},"Ĉ":{"ha":786,"x_min":57,"x_max":746,"o":"m 517 119 q 626 131 582 119 q 707 161 671 142 l 743 33 q 644 0 704 14 q 499 -14 585 -14 q 323 17 404 -14 q 183 105 242 47 q 90 247 124 163 q 57 438 57 331 q 89 626 57 542 q 180 768 121 710 q 321 858 239 826 q 503 889 403 889 q 649 874 592 889 q 746 838 706 858 l 707 710 q 622 743 665 731 q 522 756 579 756 q 412 738 464 756 q 322 683 360 721 q 260 584 283 644 q 238 438 238 524 q 260 294 238 354 q 319 194 282 233 q 408 138 357 156 q 517 119 458 119 m 410 1151 l 533 1151 l 700 972 l 568 972 l 471 1075 l 374 972 l 247 972 l 410 1151 z "},"Ċ":{"ha":786,"x_min":57,"x_max":746,"o":"m 517 119 q 626 131 582 119 q 707 161 671 142 l 743 33 q 644 0 704 14 q 499 -14 585 -14 q 323 17 404 -14 q 183 105 242 47 q 90 247 124 163 q 57 438 57 331 q 89 626 57 542 q 180 768 121 710 q 321 858 239 826 q 503 889 403 889 q 649 874 592 889 q 746 838 706 858 l 707 710 q 622 743 665 731 q 522 756 579 756 q 412 738 464 756 q 322 683 360 721 q 260 584 283 644 q 238 438 238 524 q 260 294 238 354 q 319 194 282 233 q 408 138 357 156 q 517 119 458 119 m 414 1051 q 439 1111 414 1086 q 500 1136 464 1136 q 560 1111 536 1136 q 585 1051 585 1086 q 560 990 585 1015 q 500 964 536 964 q 439 990 464 964 q 414 1051 414 1015 z "},"Ď":{"ha":903,"x_min":101,"x_max":846,"o":"m 400 875 q 581 849 499 875 q 722 769 663 822 q 813 638 781 717 q 846 456 846 560 q 807 248 846 335 q 701 106 768 161 q 547 26 635 51 q 358 0 458 0 l 101 0 l 101 875 l 400 875 m 271 133 l 346 133 q 465 148 407 133 q 567 199 522 163 q 638 297 611 235 q 665 456 665 360 q 587 668 665 594 q 375 742 508 742 l 271 742 l 271 133 m 181 1151 l 310 1151 l 407 1049 l 504 1151 l 633 1151 l 469 972 l 346 972 l 181 1151 z "},"Đ":{"ha":951,"x_min":35,"x_max":894,"o":"m 449 875 q 629 849 547 875 q 770 769 711 822 q 862 638 829 717 q 894 456 894 560 q 856 248 894 335 q 750 106 817 161 q 595 26 683 51 q 407 0 507 0 l 150 0 l 150 393 l 35 393 l 35 507 l 150 507 l 150 875 l 449 875 m 486 507 l 486 393 l 319 393 l 319 133 l 394 133 q 513 148 456 133 q 615 199 571 163 q 687 297 660 235 q 714 456 714 360 q 635 668 714 594 q 424 742 557 742 l 319 742 l 319 507 l 486 507 z "},"Ĕ":{"ha":711,"x_min":101,"x_max":661,"o":"m 101 875 l 657 875 l 657 742 l 271 742 l 271 521 l 621 521 l 621 389 l 271 389 l 271 133 l 661 133 l 661 0 l 101 0 l 101 875 m 303 1153 q 324 1092 306 1114 q 389 1069 342 1069 q 475 1153 468 1069 l 575 1153 q 527 1024 575 1072 q 389 976 479 976 q 303 991 339 976 q 245 1030 268 1006 q 212 1086 222 1054 q 201 1153 201 1118 l 303 1153 z "},"Ě":{"ha":711,"x_min":101,"x_max":661,"o":"m 101 875 l 657 875 l 657 742 l 271 742 l 271 521 l 621 521 l 621 389 l 271 389 l 271 133 l 661 133 l 661 0 l 101 0 l 101 875 m 450 972 l 326 972 l 163 1151 l 294 1151 l 390 1047 l 486 1151 l 615 1151 l 450 972 z "},"Ė":{"ha":711,"x_min":101,"x_max":661,"o":"m 101 875 l 657 875 l 657 742 l 271 742 l 271 521 l 621 521 l 621 389 l 271 389 l 271 133 l 661 133 l 661 0 l 101 0 l 101 875 m 307 1051 q 333 1111 307 1086 q 393 1136 358 1136 q 454 1111 429 1136 q 479 1051 479 1086 q 454 990 479 1015 q 393 964 429 964 q 333 990 358 964 q 307 1051 307 1015 z "},"Ē":{"ha":711,"x_min":101,"x_max":661,"o":"m 101 875 l 657 875 l 657 742 l 271 742 l 271 521 l 621 521 l 621 389 l 271 389 l 271 133 l 661 133 l 661 0 l 101 0 l 101 875 m 550 1072 l 550 972 l 200 972 l 200 1072 l 550 1072 z "},"Ę":{"ha":711,"x_min":101,"x_max":714,"o":"m 101 875 l 657 875 l 657 742 l 271 742 l 271 521 l 621 521 l 621 389 l 271 389 l 271 133 l 661 133 l 661 0 q 590 -54 617 -26 q 563 -118 563 -82 q 581 -165 563 -149 q 629 -182 599 -182 q 690 -171 664 -182 l 714 -257 q 660 -278 690 -271 q 597 -286 631 -286 q 491 -250 533 -286 q 449 -149 449 -214 q 475 -61 449 -97 q 535 -4 501 -25 l 535 0 l 101 0 l 101 875 z "},"Ğ":{"ha":871,"x_min":57,"x_max":797,"o":"m 508 889 q 651 876 588 889 q 765 839 714 864 l 729 719 q 629 753 681 743 q 525 764 578 764 q 415 746 467 764 q 323 688 363 728 q 260 587 283 649 q 238 436 238 525 q 308 196 238 279 q 508 113 378 113 q 636 131 590 113 l 636 347 l 485 347 l 485 475 l 797 475 l 797 39 q 671 1 742 15 q 508 -14 600 -14 q 331 15 414 -14 q 188 101 249 44 q 92 242 126 158 q 57 436 57 326 q 92 631 57 546 q 187 773 126 715 q 330 860 247 831 q 508 889 413 889 m 424 1153 q 445 1092 426 1114 q 511 1069 464 1069 q 596 1153 589 1069 l 696 1153 q 648 1024 696 1072 q 510 976 600 976 q 424 991 460 976 q 366 1030 389 1006 q 333 1086 343 1054 q 322 1153 322 1118 l 424 1153 z "},"Ĝ":{"ha":871,"x_min":57,"x_max":797,"o":"m 508 889 q 651 876 588 889 q 765 839 714 864 l 729 719 q 629 753 681 743 q 525 764 578 764 q 415 746 467 764 q 323 688 363 728 q 260 587 283 649 q 238 436 238 525 q 308 196 238 279 q 508 113 378 113 q 636 131 590 113 l 636 347 l 485 347 l 485 475 l 797 475 l 797 39 q 671 1 742 15 q 508 -14 600 -14 q 331 15 414 -14 q 188 101 249 44 q 92 242 126 158 q 57 436 57 326 q 92 631 57 546 q 187 773 126 715 q 330 860 247 831 q 508 889 413 889 m 415 1151 l 539 1151 l 706 972 l 574 972 l 476 1075 l 379 972 l 253 972 l 415 1151 z "},"Ģ":{"ha":871,"x_min":57,"x_max":797,"o":"m 508 889 q 651 876 588 889 q 765 839 714 864 l 729 719 q 629 753 681 743 q 525 764 578 764 q 415 746 467 764 q 323 688 363 728 q 260 587 283 649 q 238 436 238 525 q 308 196 238 279 q 508 113 378 113 q 636 131 590 113 l 636 347 l 485 347 l 485 475 l 797 475 l 797 39 q 671 1 742 15 q 508 -14 600 -14 q 331 15 414 -14 q 188 101 249 44 q 92 242 126 158 q 57 436 57 326 q 92 631 57 546 q 187 773 126 715 q 330 860 247 831 q 508 889 413 889 m 490 -268 q 436 -239 460 -261 q 413 -179 413 -217 q 436 -117 413 -143 q 503 -90 460 -90 q 538 -97 519 -90 q 573 -120 557 -104 q 599 -161 589 -136 q 608 -222 608 -186 q 596 -293 608 -258 q 562 -359 583 -328 q 512 -415 540 -390 q 453 -457 483 -440 l 413 -401 q 479 -345 450 -381 q 514 -272 508 -310 l 490 -268 z "},"Ġ":{"ha":871,"x_min":57,"x_max":797,"o":"m 508 889 q 651 876 588 889 q 765 839 714 864 l 729 719 q 629 753 681 743 q 525 764 578 764 q 415 746 467 764 q 323 688 363 728 q 260 587 283 649 q 238 436 238 525 q 308 196 238 279 q 508 113 378 113 q 636 131 590 113 l 636 347 l 485 347 l 485 475 l 797 475 l 797 39 q 671 1 742 15 q 508 -14 600 -14 q 331 15 414 -14 q 188 101 249 44 q 92 242 126 158 q 57 436 57 326 q 92 631 57 546 q 187 773 126 715 q 330 860 247 831 q 508 889 413 889 m 422 1051 q 447 1111 422 1086 q 508 1136 472 1136 q 569 1111 544 1136 q 593 1051 593 1086 q 569 990 593 1015 q 508 964 544 964 q 447 990 472 964 q 422 1051 422 1015 z "},"Ħ":{"ha":919,"x_min":28,"x_max":893,"o":"m 111 0 l 111 664 l 28 664 l 28 771 l 111 771 l 111 875 l 281 875 l 281 771 l 640 771 l 640 875 l 810 875 l 810 771 l 893 771 l 893 664 l 810 664 l 810 0 l 640 0 l 640 385 l 281 385 l 281 0 l 111 0 m 640 521 l 640 664 l 281 664 l 281 521 l 640 521 z "},"Ĥ":{"ha":900,"x_min":101,"x_max":800,"o":"m 101 0 l 101 875 l 271 875 l 271 521 l 631 521 l 631 875 l 800 875 l 800 0 l 631 0 l 631 385 l 271 385 l 271 0 l 101 0 m 393 1151 l 517 1151 l 683 972 l 551 972 l 454 1075 l 357 972 l 231 972 l 393 1151 z "},"Ĭ":{"ha":372,"x_min":0,"x_max":374,"o":"m 271 875 l 271 0 l 101 0 l 101 875 l 271 875 m 101 1144 q 122 1083 104 1106 q 188 1061 140 1061 q 274 1144 267 1061 l 374 1144 q 326 1016 374 1064 q 188 968 278 968 q 102 983 138 968 q 44 1022 67 997 q 10 1078 21 1046 q 0 1144 0 1110 l 101 1144 z "},"İ":{"ha":372,"x_min":99,"x_max":271,"o":"m 271 875 l 271 0 l 101 0 l 101 875 l 271 875 m 99 1051 q 124 1111 99 1086 q 185 1136 149 1136 q 245 1111 221 1136 q 269 1051 269 1086 q 245 990 269 1015 q 185 964 221 964 q 124 990 149 964 q 99 1051 99 1015 z "},"Ī":{"ha":372,"x_min":13,"x_max":363,"o":"m 271 875 l 271 0 l 101 0 l 101 875 l 271 875 m 363 1072 l 363 972 l 13 972 l 13 1072 l 363 1072 z "},"Į":{"ha":372,"x_min":19,"x_max":285,"o":"m 271 875 l 271 0 l 225 0 q 159 -56 185 -26 q 133 -118 133 -85 q 151 -165 133 -149 q 200 -182 169 -182 q 261 -171 235 -182 l 285 -257 q 231 -278 261 -271 q 168 -286 201 -286 q 62 -249 104 -286 q 19 -146 19 -211 q 46 -58 19 -93 q 101 0 72 -22 l 101 875 l 271 875 z "},"Ĩ":{"ha":372,"x_min":-31,"x_max":390,"o":"m 271 875 l 271 0 l 101 0 l 101 875 l 271 875 m -31 972 q 1 1086 -31 1039 q 94 1133 32 1133 q 142 1125 121 1133 q 183 1106 164 1117 q 221 1088 203 1096 q 260 1079 239 1079 q 294 1097 283 1079 q 307 1138 306 1114 l 390 1138 q 360 1024 390 1071 q 272 978 329 978 q 219 986 244 978 q 174 1004 194 994 q 135 1022 153 1014 q 101 1031 117 1031 q 65 1013 75 1031 q 53 972 56 996 l -31 972 z "},"Ĳ":{"ha":732,"x_min":101,"x_max":636,"o":"m 271 875 l 271 0 l 101 0 l 101 875 l 271 875 m 636 875 l 636 160 q 623 -12 636 54 q 569 -129 610 -78 q 456 -207 525 -185 q 314 -229 388 -229 l 314 -97 q 380 -85 353 -97 q 426 -54 407 -74 q 459 7 451 -31 q 467 89 467 44 l 467 875 l 636 875 z "},"Ĵ":{"ha":393,"x_min":-25,"x_max":443,"o":"m 297 875 l 297 160 q 285 -12 297 54 q 231 -129 272 -78 q 118 -207 186 -185 q -25 -229 50 -229 l -25 -97 q 41 -85 14 -97 q 88 -54 68 -74 q 120 7 113 -31 q 128 89 128 44 l 128 875 l 297 875 m 153 1151 l 276 1151 l 443 972 l 311 972 l 214 1075 l 117 972 l -10 972 l 153 1151 z "},"Ķ":{"ha":833,"x_min":101,"x_max":832,"o":"m 101 0 l 101 875 l 271 875 l 271 497 l 593 875 l 804 875 l 465 492 l 832 0 l 622 0 l 343 382 l 271 304 l 271 0 l 101 0 m 419 -268 q 365 -239 389 -261 q 342 -179 342 -217 q 365 -117 342 -143 q 432 -90 389 -90 q 467 -97 449 -90 q 502 -120 486 -104 q 528 -161 518 -136 q 538 -222 538 -186 q 525 -293 538 -258 q 491 -359 513 -328 q 441 -415 469 -390 q 382 -457 413 -440 l 342 -401 q 408 -345 379 -381 q 443 -272 438 -310 l 419 -268 z "},"Ĺ":{"ha":644,"x_min":101,"x_max":631,"o":"m 101 875 l 271 875 l 271 136 l 631 136 l 631 0 l 101 0 l 101 875 m 250 972 l 115 972 l 226 1144 l 407 1144 l 250 972 z "},"Ľ":{"ha":644,"x_min":101,"x_max":631,"o":"m 101 875 l 271 875 l 271 136 l 631 136 l 631 0 l 101 0 l 101 875 m 444 851 q 391 881 415 858 q 367 940 367 903 q 390 1003 367 976 q 457 1029 414 1029 q 492 1022 474 1029 q 527 999 511 1015 q 553 958 543 983 q 563 897 563 933 q 550 826 563 861 q 517 760 538 792 q 467 704 496 729 q 408 663 439 679 l 368 718 q 434 774 404 739 q 469 847 464 810 l 444 851 z "},"Ļ":{"ha":644,"x_min":101,"x_max":631,"o":"m 101 875 l 271 875 l 271 136 l 631 136 l 631 0 l 101 0 l 101 875 m 343 -268 q 289 -239 313 -261 q 265 -179 265 -217 q 289 -117 265 -143 q 356 -90 313 -90 q 391 -97 372 -90 q 426 -120 410 -104 q 451 -161 442 -136 q 461 -222 461 -186 q 449 -293 461 -258 q 415 -359 436 -328 q 365 -415 393 -390 q 306 -457 336 -440 l 265 -401 q 332 -345 303 -381 q 367 -272 361 -310 l 343 -268 z "},"Ŀ":{"ha":644,"x_min":101,"x_max":631,"o":"m 101 875 l 271 875 l 271 136 l 631 136 l 631 0 l 101 0 l 101 875 m 363 474 q 387 538 363 511 q 450 565 411 565 q 510 539 486 565 q 535 474 535 513 q 510 410 535 438 q 450 382 485 382 q 387 410 411 382 q 363 474 363 438 z "},"Ł":{"ha":644,"x_min":-57,"x_max":631,"o":"m 101 875 l 271 875 l 271 551 l 426 682 l 489 606 l 271 421 l 271 136 l 631 136 l 631 0 l 101 0 l 101 299 l 6 219 l -57 296 l 101 428 l 101 875 z "},"Ń":{"ha":932,"x_min":101,"x_max":831,"o":"m 499 972 l 364 972 l 475 1144 l 656 1144 l 499 972 m 101 875 l 254 875 l 588 383 q 639 301 615 342 q 676 233 663 260 l 679 233 q 671 426 671 329 q 671 618 671 522 l 671 875 l 831 875 l 831 0 l 678 0 l 360 465 q 299 564 328 513 q 256 647 271 615 l 253 647 q 260 448 260 544 q 261 251 261 351 l 261 0 l 101 0 l 101 875 z "},"Ň":{"ha":932,"x_min":101,"x_max":831,"o":"m 543 972 l 419 972 l 256 1151 l 388 1151 l 483 1047 l 579 1151 l 708 1151 l 543 972 m 101 875 l 254 875 l 588 383 q 639 301 615 342 q 676 233 663 260 l 679 233 q 671 426 671 329 q 671 618 671 522 l 671 875 l 831 875 l 831 0 l 678 0 l 360 465 q 299 564 328 513 q 256 647 271 615 l 253 647 q 260 448 260 544 q 261 251 261 351 l 261 0 l 101 0 l 101 875 z "},"Ņ":{"ha":932,"x_min":101,"x_max":831,"o":"m 440 -268 q 386 -239 410 -261 q 363 -179 363 -217 q 386 -117 363 -143 q 453 -90 410 -90 q 488 -97 469 -90 q 523 -120 507 -104 q 549 -161 539 -136 q 558 -222 558 -186 q 546 -293 558 -258 q 512 -359 533 -328 q 462 -415 490 -390 q 403 -457 433 -440 l 363 -401 q 429 -345 400 -381 q 464 -272 458 -310 l 440 -268 m 101 875 l 254 875 l 588 383 q 639 301 615 342 q 676 233 663 260 l 679 233 q 671 426 671 329 q 671 618 671 522 l 671 875 l 831 875 l 831 0 l 678 0 l 360 465 q 299 564 328 513 q 256 647 271 615 l 253 647 q 260 448 260 544 q 261 251 261 351 l 261 0 l 101 0 l 101 875 z "},"Ŏ":{"ha":969,"x_min":58,"x_max":911,"o":"m 488 889 q 657 859 579 889 q 791 772 735 829 q 879 630 847 714 q 911 436 911 546 q 878 246 911 329 q 788 105 846 163 q 652 17 731 47 q 482 -14 574 -14 q 313 15 390 -14 q 178 101 235 44 q 90 242 122 158 q 58 436 58 326 q 91 627 58 543 q 181 769 124 711 q 317 858 239 828 q 488 889 396 889 m 239 436 q 258 294 239 354 q 312 195 278 235 q 391 136 346 156 q 488 117 436 117 q 583 136 539 117 q 660 195 628 156 q 712 294 693 235 q 731 436 731 354 q 711 581 731 519 q 658 681 692 642 q 578 740 624 721 q 482 758 533 758 q 386 738 431 758 q 309 678 342 718 q 258 578 276 639 q 239 436 239 517 m 396 1144 q 417 1083 399 1106 q 483 1061 436 1061 q 568 1144 561 1061 l 668 1144 q 620 1016 668 1064 q 482 968 572 968 q 397 983 432 968 q 338 1022 361 997 q 305 1078 315 1046 q 294 1144 294 1110 l 396 1144 z "},"Ő":{"ha":969,"x_min":58,"x_max":911,"o":"m 488 889 q 657 859 579 889 q 791 772 735 829 q 879 630 847 714 q 911 436 911 546 q 878 246 911 329 q 788 105 846 163 q 652 17 731 47 q 482 -14 574 -14 q 313 15 390 -14 q 178 101 235 44 q 90 242 122 158 q 58 436 58 326 q 91 627 58 543 q 181 769 124 711 q 317 858 239 828 q 488 889 396 889 m 239 436 q 258 294 239 354 q 312 195 278 235 q 391 136 346 156 q 488 117 436 117 q 583 136 539 117 q 660 195 628 156 q 712 294 693 235 q 731 436 731 354 q 711 581 731 519 q 658 681 692 642 q 578 740 624 721 q 482 758 533 758 q 386 738 431 758 q 309 678 342 718 q 258 578 276 639 q 239 436 239 517 m 375 972 l 247 972 l 358 1144 l 526 1144 l 375 972 m 656 972 l 528 972 l 639 1144 l 806 1144 l 656 972 z "},"Ō":{"ha":969,"x_min":58,"x_max":911,"o":"m 488 889 q 657 859 579 889 q 791 772 735 829 q 879 630 847 714 q 911 436 911 546 q 878 246 911 329 q 788 105 846 163 q 652 17 731 47 q 482 -14 574 -14 q 313 15 390 -14 q 178 101 235 44 q 90 242 122 158 q 58 436 58 326 q 91 627 58 543 q 181 769 124 711 q 317 858 239 828 q 488 889 396 889 m 239 436 q 258 294 239 354 q 312 195 278 235 q 391 136 346 156 q 488 117 436 117 q 583 136 539 117 q 660 195 628 156 q 712 294 693 235 q 731 436 731 354 q 711 581 731 519 q 658 681 692 642 q 578 740 624 721 q 482 758 533 758 q 386 738 431 758 q 309 678 342 718 q 258 578 276 639 q 239 436 239 517 m 664 1072 l 664 972 l 313 972 l 313 1072 l 664 1072 z "},"Ǿ":{"ha":969,"x_min":58,"x_max":911,"o":"m 472 972 l 338 972 l 449 1144 l 631 1144 l 472 972 m 710 1044 l 786 1013 l 710 833 q 856 682 801 781 q 911 436 911 583 q 878 246 911 329 q 788 105 846 163 q 652 17 731 47 q 482 -14 574 -14 q 413 -9 447 -14 q 349 3 378 -4 l 254 -219 l 178 -186 l 271 33 q 116 185 174 86 q 58 436 58 285 q 91 627 58 543 q 181 769 124 711 q 317 858 239 828 q 488 889 396 889 q 563 883 525 889 q 633 867 600 878 l 710 1044 m 239 436 q 265 270 239 336 q 333 168 290 204 l 574 743 q 482 758 531 758 q 386 738 431 758 q 309 678 342 718 q 258 578 276 639 q 239 436 239 517 m 488 117 q 583 136 539 117 q 660 195 628 156 q 712 294 693 235 q 731 436 731 354 q 708 595 731 532 q 644 696 685 658 l 408 128 q 447 119 428 121 q 488 117 467 117 z "},"Ŕ":{"ha":778,"x_min":101,"x_max":757,"o":"m 101 875 l 417 875 q 543 854 489 875 q 634 797 597 833 q 690 713 671 761 q 708 607 708 664 q 692 514 708 554 q 651 443 676 474 q 596 392 626 413 q 536 360 565 372 l 757 0 l 564 0 l 382 329 l 267 329 l 267 0 l 101 0 l 101 875 m 267 461 l 351 461 q 482 494 431 461 q 533 603 533 526 q 492 708 533 672 q 372 744 451 744 l 267 744 l 267 461 m 392 972 l 257 972 l 368 1144 l 550 1144 l 392 972 z "},"Ř":{"ha":778,"x_min":101,"x_max":757,"o":"m 101 875 l 417 875 q 543 854 489 875 q 634 797 597 833 q 690 713 671 761 q 708 607 708 664 q 692 514 708 554 q 651 443 676 474 q 596 392 626 413 q 536 360 565 372 l 757 0 l 564 0 l 382 329 l 267 329 l 267 0 l 101 0 l 101 875 m 267 461 l 351 461 q 482 494 431 461 q 533 603 533 526 q 492 708 533 672 q 372 744 451 744 l 267 744 l 267 461 m 426 972 l 303 972 l 139 1151 l 271 1151 l 367 1047 l 463 1151 l 592 1151 l 426 972 z "},"Ŗ":{"ha":778,"x_min":101,"x_max":757,"o":"m 101 875 l 417 875 q 543 854 489 875 q 634 797 597 833 q 690 713 671 761 q 708 607 708 664 q 692 514 708 554 q 651 443 676 474 q 596 392 626 413 q 536 360 565 372 l 757 0 l 564 0 l 382 329 l 267 329 l 267 0 l 101 0 l 101 875 m 267 461 l 351 461 q 482 494 431 461 q 533 603 533 526 q 492 708 533 672 q 372 744 451 744 l 267 744 l 267 461 m 385 -268 q 331 -239 354 -261 q 307 -179 307 -217 q 331 -117 307 -143 q 397 -90 354 -90 q 433 -97 414 -90 q 467 -120 451 -104 q 493 -161 483 -136 q 503 -222 503 -186 q 490 -293 503 -258 q 456 -359 478 -328 q 406 -415 435 -390 q 347 -457 378 -440 l 307 -401 q 374 -345 344 -381 q 408 -272 403 -310 l 385 -268 z "},"Ś":{"ha":731,"x_min":58,"x_max":675,"o":"m 372 889 q 513 874 450 889 q 629 833 576 860 l 590 703 q 482 744 533 731 q 381 758 431 758 q 270 729 310 758 q 231 650 231 700 q 263 576 231 601 q 368 526 296 550 l 453 499 q 618 399 561 463 q 675 247 675 335 q 653 143 675 190 q 589 60 631 96 q 487 6 547 25 q 350 -14 426 -14 q 204 1 275 -14 q 68 47 133 15 l 107 176 q 224 132 167 147 q 343 117 281 117 q 460 146 418 117 q 503 231 503 175 q 496 268 503 250 q 472 302 489 286 q 424 333 454 318 q 347 363 394 347 l 269 389 q 116 477 174 422 q 58 632 58 532 q 139 818 58 747 q 372 889 219 889 m 371 972 l 236 972 l 347 1144 l 528 1144 l 371 972 z "},"Ş":{"ha":731,"x_min":58,"x_max":675,"o":"m 372 889 q 513 874 450 889 q 629 833 576 860 l 590 703 q 482 744 533 731 q 381 758 431 758 q 270 729 310 758 q 231 650 231 700 q 263 576 231 601 q 368 526 296 550 l 453 499 q 618 399 561 463 q 675 247 675 335 q 656 150 675 194 q 602 72 638 106 q 515 16 567 38 q 396 -11 463 -6 l 375 -65 q 467 -101 438 -69 q 496 -174 496 -133 q 449 -267 496 -235 q 331 -299 401 -299 q 268 -292 297 -299 q 221 -279 239 -286 l 242 -210 q 314 -222 275 -222 q 389 -169 389 -222 q 365 -126 389 -144 q 269 -108 342 -108 l 308 -12 q 184 6 244 -8 q 68 47 124 19 l 107 176 q 224 132 167 147 q 343 117 281 117 q 460 146 418 117 q 503 231 503 175 q 496 268 503 250 q 472 302 489 286 q 424 333 454 318 q 347 363 394 347 l 269 389 q 116 477 174 422 q 58 632 58 532 q 139 818 58 747 q 372 889 219 889 z "},"Ŝ":{"ha":731,"x_min":58,"x_max":675,"o":"m 372 889 q 513 874 450 889 q 629 833 576 860 l 590 703 q 482 744 533 731 q 381 758 431 758 q 270 729 310 758 q 231 650 231 700 q 263 576 231 601 q 368 526 296 550 l 453 499 q 618 399 561 463 q 675 247 675 335 q 653 143 675 190 q 589 60 631 96 q 487 6 547 25 q 350 -14 426 -14 q 204 1 275 -14 q 68 47 133 15 l 107 176 q 224 132 167 147 q 343 117 281 117 q 460 146 418 117 q 503 231 503 175 q 496 268 503 250 q 472 302 489 286 q 424 333 454 318 q 347 363 394 347 l 269 389 q 116 477 174 422 q 58 632 58 532 q 139 818 58 747 q 372 889 219 889 m 300 1151 l 424 1151 l 590 972 l 458 972 l 361 1075 l 264 972 l 138 972 l 300 1151 z "},"Ș":{"ha":731,"x_min":58,"x_max":675,"o":"m 372 889 q 513 874 450 889 q 629 833 576 860 l 590 703 q 482 744 533 731 q 381 758 431 758 q 270 729 310 758 q 231 650 231 700 q 263 576 231 601 q 368 526 296 550 l 453 499 q 618 399 561 463 q 675 247 675 335 q 653 143 675 190 q 589 60 631 96 q 487 6 547 25 q 350 -14 426 -14 q 204 1 275 -14 q 68 47 133 15 l 107 176 q 224 132 167 147 q 343 117 281 117 q 460 146 418 117 q 503 231 503 175 q 496 268 503 250 q 472 302 489 286 q 424 333 454 318 q 347 363 394 347 l 269 389 q 116 477 174 422 q 58 632 58 532 q 139 818 58 747 q 372 889 219 889 m 329 -268 q 276 -239 300 -261 q 251 -179 251 -217 q 275 -117 251 -143 q 342 -90 299 -90 q 377 -97 358 -90 q 412 -120 396 -104 q 438 -161 428 -136 q 447 -222 447 -186 q 435 -293 447 -258 q 401 -359 422 -328 q 352 -415 381 -390 q 293 -457 324 -440 l 253 -401 q 319 -345 289 -381 q 354 -272 349 -310 l 329 -268 z "},"Ŧ":{"ha":703,"x_min":14,"x_max":690,"o":"m 690 875 l 690 739 l 433 739 l 433 500 l 569 500 l 569 386 l 433 386 l 433 0 l 264 0 l 264 386 l 129 386 l 129 500 l 264 500 l 264 739 l 14 739 l 14 875 l 690 875 z "},"Ť":{"ha":703,"x_min":14,"x_max":690,"o":"m 690 875 l 690 739 l 433 739 l 433 0 l 264 0 l 264 739 l 14 739 l 14 875 l 690 875 m 413 972 l 289 972 l 125 1151 l 254 1151 l 351 1049 l 449 1151 l 578 1151 l 413 972 z "},"Ţ":{"ha":703,"x_min":14,"x_max":690,"o":"m 690 875 l 690 739 l 433 739 l 433 0 l 264 0 l 264 739 l 14 739 l 14 875 l 690 875 m 328 -268 q 274 -239 297 -261 q 250 -179 250 -217 q 274 -117 250 -143 q 340 -90 297 -90 q 376 -97 357 -90 q 410 -120 394 -104 q 436 -161 426 -136 q 446 -222 446 -186 q 433 -293 446 -258 q 399 -359 421 -328 q 349 -415 378 -390 q 290 -457 321 -440 l 250 -401 q 317 -345 288 -381 q 351 -272 346 -310 l 328 -268 z "},"Ŭ":{"ha":908,"x_min":96,"x_max":813,"o":"m 96 875 l 265 875 l 265 351 q 310 174 265 231 q 456 118 356 118 q 599 178 554 118 q 643 335 643 239 l 643 875 l 813 875 l 813 346 q 721 75 813 164 q 456 -14 629 -14 q 304 8 371 -14 q 191 74 238 29 q 120 189 144 119 q 96 353 96 258 l 96 875 m 369 1144 q 391 1083 372 1106 q 457 1061 410 1061 q 542 1144 535 1061 l 642 1144 q 594 1016 642 1064 q 456 968 546 968 q 370 983 406 968 q 312 1022 335 997 q 278 1078 289 1046 q 268 1144 268 1110 l 369 1144 z "},"Ű":{"ha":908,"x_min":96,"x_max":813,"o":"m 96 875 l 265 875 l 265 351 q 310 174 265 231 q 456 118 356 118 q 599 178 554 118 q 643 335 643 239 l 643 875 l 813 875 l 813 346 q 721 75 813 164 q 456 -14 629 -14 q 304 8 371 -14 q 191 74 238 29 q 120 189 144 119 q 96 353 96 258 l 96 875 m 354 972 l 226 972 l 338 1144 l 504 1144 l 354 972 m 633 972 l 506 972 l 617 1144 l 785 1144 l 633 972 z "},"Ū":{"ha":908,"x_min":96,"x_max":813,"o":"m 96 875 l 265 875 l 265 351 q 310 174 265 231 q 456 118 356 118 q 599 178 554 118 q 643 335 643 239 l 643 875 l 813 875 l 813 346 q 721 75 813 164 q 456 -14 629 -14 q 304 8 371 -14 q 191 74 238 29 q 120 189 144 119 q 96 353 96 258 l 96 875 m 631 1072 l 631 972 l 281 972 l 281 1072 l 631 1072 z "},"Ų":{"ha":908,"x_min":96,"x_max":813,"o":"m 96 875 l 265 875 l 265 351 q 310 174 265 231 q 456 118 356 118 q 599 178 554 118 q 643 335 643 239 l 643 875 l 813 875 l 813 346 q 732 87 813 175 q 497 -12 651 -1 q 440 -62 461 -37 q 419 -118 419 -86 q 438 -165 419 -149 q 486 -182 456 -182 q 549 -171 522 -182 l 571 -257 q 518 -278 547 -271 q 456 -286 489 -286 q 349 -250 392 -286 q 307 -149 307 -214 q 328 -67 307 -103 q 378 -8 350 -31 q 169 97 243 10 q 96 353 96 185 l 96 875 z "},"Ů":{"ha":908,"x_min":96,"x_max":813,"o":"m 96 875 l 265 875 l 265 351 q 310 174 265 231 q 456 118 356 118 q 599 178 554 118 q 643 335 643 239 l 643 875 l 813 875 l 813 346 q 721 75 813 164 q 456 -14 629 -14 q 304 8 371 -14 q 191 74 238 29 q 120 189 144 119 q 96 353 96 258 l 96 875 m 314 1057 q 354 1149 314 1119 q 456 1179 394 1179 q 558 1149 518 1179 q 597 1057 597 1119 q 555 965 597 996 q 456 935 513 935 q 401 943 426 935 q 356 967 375 951 q 325 1005 336 982 q 314 1057 314 1028 m 393 1057 q 410 1009 393 1026 q 456 992 428 992 q 501 1009 483 992 q 518 1057 518 1026 q 501 1105 518 1088 q 456 1122 483 1122 q 410 1105 428 1122 q 393 1057 393 1088 z "},"Ũ":{"ha":908,"x_min":96,"x_max":813,"o":"m 96 875 l 265 875 l 265 351 q 310 174 265 231 q 456 118 356 118 q 599 178 554 118 q 643 335 643 239 l 643 875 l 813 875 l 813 346 q 721 75 813 164 q 456 -14 629 -14 q 304 8 371 -14 q 191 74 238 29 q 120 189 144 119 q 96 353 96 258 l 96 875 m 242 972 q 273 1085 242 1039 q 367 1132 304 1132 q 415 1124 393 1132 q 456 1106 436 1115 q 493 1088 475 1096 q 532 1079 511 1079 q 567 1096 556 1079 q 579 1136 578 1113 l 663 1136 q 632 1024 663 1069 q 544 978 601 978 q 492 986 517 978 q 446 1003 467 994 q 407 1021 425 1013 q 374 1029 389 1029 q 338 1013 347 1029 q 325 972 328 996 l 242 972 z "},"Ẃ":{"ha":1196,"x_min":8,"x_max":1188,"o":"m 649 972 l 514 972 l 625 1144 l 806 1144 l 649 972 m 182 875 l 294 433 q 306 383 299 415 q 319 316 313 351 q 333 245 326 281 q 342 185 339 210 l 344 185 q 355 246 349 211 q 369 316 361 281 q 383 383 376 351 q 394 433 390 414 l 514 875 l 685 875 l 804 435 q 816 385 808 417 q 831 317 824 353 q 844 245 838 281 q 856 185 851 210 l 858 185 q 869 244 863 210 q 883 315 876 279 q 897 382 890 350 q 908 435 904 414 l 1017 875 l 1188 875 l 953 0 l 772 0 l 651 460 q 624 570 636 517 q 597 685 611 624 l 594 685 q 571 571 582 622 q 544 461 560 519 l 428 0 l 249 0 l 8 875 l 182 875 z "},"Ŵ":{"ha":1196,"x_min":8,"x_max":1188,"o":"m 535 1151 l 658 1151 l 825 972 l 693 972 l 596 1075 l 499 972 l 372 972 l 535 1151 m 182 875 l 294 433 q 306 383 299 415 q 319 316 313 351 q 333 245 326 281 q 342 185 339 210 l 344 185 q 355 246 349 211 q 369 316 361 281 q 383 383 376 351 q 394 433 390 414 l 514 875 l 685 875 l 804 435 q 816 385 808 417 q 831 317 824 353 q 844 245 838 281 q 856 185 851 210 l 858 185 q 869 244 863 210 q 883 315 876 279 q 897 382 890 350 q 908 435 904 414 l 1017 875 l 1188 875 l 953 0 l 772 0 l 651 460 q 624 570 636 517 q 597 685 611 624 l 594 685 q 571 571 582 622 q 544 461 560 519 l 428 0 l 249 0 l 8 875 l 182 875 z "},"Ẅ":{"ha":1196,"x_min":8,"x_max":1188,"o":"m 386 1047 q 410 1103 386 1079 q 468 1128 433 1128 q 525 1103 501 1128 q 549 1047 549 1079 q 525 988 549 1013 q 468 964 501 964 q 410 988 433 964 q 386 1047 386 1013 m 643 1047 q 667 1103 643 1079 q 725 1128 692 1128 q 783 1103 760 1128 q 807 1047 807 1079 q 783 988 807 1013 q 725 964 760 964 q 667 988 692 964 q 643 1047 643 1013 m 182 875 l 294 433 q 306 383 299 415 q 319 316 313 351 q 333 245 326 281 q 342 185 339 210 l 344 185 q 355 246 349 211 q 369 316 361 281 q 383 383 376 351 q 394 433 390 414 l 514 875 l 685 875 l 804 435 q 816 385 808 417 q 831 317 824 353 q 844 245 838 281 q 856 185 851 210 l 858 185 q 869 244 863 210 q 883 315 876 279 q 897 382 890 350 q 908 435 904 414 l 1017 875 l 1188 875 l 953 0 l 772 0 l 651 460 q 624 570 636 517 q 597 685 611 624 l 594 685 q 571 571 582 622 q 544 461 560 519 l 428 0 l 249 0 l 8 875 l 182 875 z "},"Ẁ":{"ha":1196,"x_min":8,"x_max":1188,"o":"m 392 1144 l 574 1144 l 685 972 l 550 972 l 392 1144 m 182 875 l 294 433 q 306 383 299 415 q 319 316 313 351 q 333 245 326 281 q 342 185 339 210 l 344 185 q 355 246 349 211 q 369 316 361 281 q 383 383 376 351 q 394 433 390 414 l 514 875 l 685 875 l 804 435 q 816 385 808 417 q 831 317 824 353 q 844 245 838 281 q 856 185 851 210 l 858 185 q 869 244 863 210 q 883 315 876 279 q 897 382 890 350 q 908 435 904 414 l 1017 875 l 1188 875 l 953 0 l 772 0 l 651 460 q 624 570 636 517 q 597 685 611 624 l 594 685 q 571 571 582 622 q 544 461 560 519 l 428 0 l 249 0 l 8 875 l 182 875 z "},"Ŷ":{"ha":786,"x_min":13,"x_max":781,"o":"m 201 875 l 399 518 l 597 875 l 781 875 l 478 363 l 478 0 l 308 0 l 308 363 l 13 875 l 201 875 m 338 1151 l 461 1151 l 628 972 l 496 972 l 399 1075 l 301 972 l 175 972 l 338 1151 z "},"Ỳ":{"ha":786,"x_min":13,"x_max":781,"o":"m 201 875 l 399 518 l 597 875 l 781 875 l 478 363 l 478 0 l 308 0 l 308 363 l 13 875 l 201 875 m 211 1144 l 393 1144 l 504 972 l 369 972 l 211 1144 z "},"Ź":{"ha":733,"x_min":35,"x_max":694,"o":"m 685 875 l 685 778 l 242 131 l 694 131 l 694 0 l 35 0 l 35 111 l 469 744 l 53 744 l 53 875 l 685 875 m 406 972 l 271 972 l 382 1144 l 564 1144 l 406 972 z "},"Ż":{"ha":733,"x_min":35,"x_max":694,"o":"m 685 875 l 685 778 l 242 131 l 694 131 l 694 0 l 35 0 l 35 111 l 469 744 l 53 744 l 53 875 l 685 875 m 290 1051 q 315 1111 290 1086 q 376 1136 340 1136 q 437 1111 413 1136 q 461 1051 461 1086 q 437 990 461 1015 q 376 964 413 964 q 315 990 340 964 q 290 1051 290 1015 z "},"⁄":{"ha":628,"x_min":-22,"x_max":650,"o":"m -22 -14 l 546 889 l 650 889 l 82 -14 l -22 -14 z "},"₨":{"ha":694,"x_min":0,"x_max":611,"o":"m 14 557 l 14 660 l 319 660 q 298 720 313 693 q 267 767 283 747 l 0 767 l 0 883 l 611 883 l 611 767 l 414 767 q 442 724 426 750 q 465 660 457 699 l 597 660 l 597 557 l 478 557 q 457 475 476 513 q 405 408 438 438 q 328 362 372 379 q 238 342 285 344 l 476 76 l 354 -14 l 153 242 q 108 295 129 271 q 71 338 88 319 q 35 375 51 358 l 76 465 q 113 455 96 458 q 156 451 131 451 q 273 482 231 451 q 322 557 315 513 l 14 557 z "},"":{"ha":693,"x_min":13,"x_max":681,"o":"m 264 265 l 425 265 l 392 360 q 368 432 381 394 q 347 501 356 469 l 344 501 q 324 432 336 469 q 299 360 311 394 l 264 265 m 260 660 l 431 660 l 681 0 l 515 0 l 463 150 l 228 150 l 174 0 l 13 0 l 260 660 z "},"":{"ha":668,"x_min":96,"x_max":624,"o":"m 365 660 q 538 613 482 660 q 594 490 594 565 q 563 403 594 438 q 481 351 532 368 q 587 294 550 335 q 624 189 624 253 q 558 54 624 108 q 364 0 493 0 l 96 0 l 96 660 l 365 660 m 258 400 l 332 400 q 400 416 372 400 q 428 469 428 432 q 405 519 428 501 q 329 538 382 538 l 258 538 l 258 400 m 258 122 l 333 122 q 424 141 393 122 q 454 204 454 160 q 431 257 454 233 q 350 281 408 281 l 258 281 l 258 122 z "},"":{"ha":640,"x_min":58,"x_max":603,"o":"m 433 108 q 512 119 478 108 q 571 142 546 129 l 603 26 q 522 -1 572 11 q 413 -14 472 -14 q 272 8 338 -14 q 160 72 207 29 q 85 179 113 115 q 58 328 58 243 q 84 469 58 406 q 156 578 110 533 q 269 648 203 624 q 414 672 335 672 q 503 664 457 672 q 601 631 549 656 l 565 514 q 501 542 535 532 q 432 551 467 551 q 281 495 338 551 q 225 332 225 439 q 243 226 225 269 q 290 157 261 183 q 357 119 319 131 q 433 108 394 108 z "},"":{"ha":756,"x_min":96,"x_max":700,"o":"m 350 660 q 483 642 419 660 q 595 587 547 625 q 672 489 643 549 q 700 344 700 429 q 672 188 700 253 q 594 81 643 122 q 478 19 546 39 q 335 0 411 0 l 96 0 l 96 660 l 350 660 m 260 124 l 314 124 q 387 131 349 124 q 458 163 425 139 q 512 228 490 186 q 533 340 533 271 q 478 486 533 436 q 314 536 422 536 l 260 536 l 260 124 z "},"":{"ha":621,"x_min":96,"x_max":560,"o":"m 96 660 l 557 660 l 557 538 l 257 538 l 257 397 l 526 397 l 526 276 l 257 276 l 257 122 l 560 122 l 560 0 l 96 0 l 96 660 z "},"":{"ha":593,"x_min":96,"x_max":544,"o":"m 544 660 l 544 538 l 260 538 l 260 375 l 519 375 l 519 253 l 260 253 l 260 0 l 96 0 l 96 660 l 544 660 z "},"":{"ha":706,"x_min":58,"x_max":642,"o":"m 422 108 q 463 110 442 108 q 499 119 483 113 l 499 246 l 385 246 l 385 364 l 642 364 l 642 25 q 535 -4 596 6 q 413 -14 475 -14 q 273 8 338 -14 q 160 72 208 29 q 85 177 113 114 q 58 325 58 240 q 84 469 58 404 q 156 578 110 533 q 268 648 203 624 q 413 672 333 672 q 517 664 464 672 q 622 632 569 656 l 589 515 q 513 543 554 535 q 432 551 472 551 q 279 492 333 551 q 225 329 225 433 q 242 224 225 267 q 285 156 258 182 q 349 119 313 131 q 422 108 385 108 z "},"":{"ha":775,"x_min":96,"x_max":681,"o":"m 96 0 l 96 660 l 256 660 l 256 407 l 519 407 l 519 660 l 681 660 l 681 0 l 519 0 l 519 282 l 256 282 l 256 0 l 96 0 z "},"":{"ha":354,"x_min":96,"x_max":260,"o":"m 260 660 l 260 0 l 96 0 l 96 660 l 260 660 z "},"":{"ha":354,"x_min":-11,"x_max":264,"o":"m 264 660 l 264 101 q 256 -33 264 26 q 217 -140 249 -92 q 122 -219 179 -199 q -11 -240 64 -240 l -11 -112 q 38 -103 13 -112 q 79 -68 64 -94 q 97 -8 93 -44 q 100 61 100 29 l 100 660 l 264 660 z "},"":{"ha":697,"x_min":96,"x_max":696,"o":"m 96 0 l 96 660 l 253 660 l 253 392 l 479 660 l 672 660 l 411 372 l 696 0 l 500 0 l 306 276 l 253 217 l 253 0 l 96 0 z "},"":{"ha":563,"x_min":96,"x_max":546,"o":"m 96 660 l 260 660 l 260 121 l 546 121 l 546 0 l 96 0 l 96 660 z "},"":{"ha":956,"x_min":82,"x_max":874,"o":"m 136 660 l 335 660 l 408 418 q 444 297 425 364 q 476 168 464 229 l 481 168 q 510 294 492 226 q 546 418 529 363 l 618 660 l 818 660 l 874 0 l 721 0 l 706 243 q 699 364 701 299 q 694 499 696 429 l 692 499 q 651 342 672 411 q 614 224 629 272 l 543 0 l 411 0 l 338 224 q 297 355 318 282 q 261 499 276 428 l 257 499 q 254 364 258 432 q 247 243 250 296 q 239 121 243 181 q 232 0 235 61 l 82 0 l 136 660 z "},"":{"ha":796,"x_min":96,"x_max":700,"o":"m 96 660 l 256 660 l 406 442 q 485 319 446 383 q 550 204 525 256 l 553 204 q 548 287 550 246 q 546 367 546 328 l 546 660 l 700 660 l 700 0 l 540 0 l 386 221 q 310 338 346 279 q 247 460 274 397 l 243 460 q 248 372 246 415 q 250 285 250 329 l 250 0 l 96 0 l 96 660 z "},"":{"ha":785,"x_min":58,"x_max":725,"o":"m 725 335 q 699 188 725 253 q 628 78 674 122 q 521 10 582 33 q 389 -14 460 -14 q 258 8 318 -14 q 153 73 197 31 q 83 178 108 115 q 58 321 58 240 q 84 470 58 404 q 156 581 110 536 q 263 649 201 625 q 394 672 324 672 q 526 651 465 672 q 631 586 586 629 q 700 481 675 543 q 725 335 725 418 m 556 328 q 542 430 556 388 q 505 499 528 472 q 452 538 482 525 q 390 550 422 550 q 329 540 358 550 q 278 503 300 529 q 242 435 256 478 q 228 328 228 392 q 242 228 228 269 q 278 160 256 188 q 331 121 301 133 q 393 108 361 108 q 453 119 424 108 q 506 156 483 131 q 542 223 528 181 q 556 328 556 265 z "},"":{"ha":649,"x_min":96,"x_max":611,"o":"m 96 660 l 361 660 q 457 646 411 660 q 537 605 503 632 q 591 540 571 578 q 611 451 611 501 q 584 336 611 381 q 513 267 557 292 q 416 234 469 243 q 310 225 363 225 l 260 225 l 260 0 l 96 0 l 96 660 m 258 347 l 314 347 q 360 351 336 347 q 402 367 383 356 q 433 397 421 378 q 444 447 444 417 q 433 493 444 475 q 404 521 422 511 q 363 534 386 531 q 318 538 340 538 l 258 538 l 258 347 z "},"":{"ha":744,"x_min":58,"x_max":789,"o":"m 725 333 q 705 205 725 263 q 650 104 685 147 q 569 33 615 61 q 469 -6 522 6 l 469 -10 q 512 -23 492 -14 q 553 -42 532 -32 q 597 -59 574 -51 q 650 -67 619 -67 q 704 -60 683 -67 q 744 -42 725 -53 l 789 -158 q 735 -180 769 -169 q 658 -190 700 -190 q 572 -178 610 -190 q 500 -150 533 -165 q 433 -122 467 -135 q 360 -110 400 -110 q 274 -125 311 -110 q 204 -162 236 -140 l 146 -51 q 207 -17 172 -31 q 271 3 242 -3 l 271 7 q 186 49 225 21 q 119 117 147 76 q 74 210 90 158 q 58 324 58 263 q 84 472 58 407 q 156 581 110 536 q 263 649 201 626 q 394 672 324 672 q 526 650 465 672 q 631 585 586 628 q 700 480 675 543 q 725 333 725 417 m 556 326 q 542 428 556 386 q 505 498 528 471 q 452 538 482 525 q 390 550 422 550 q 329 540 358 550 q 278 504 300 529 q 242 437 256 479 q 228 331 228 394 q 242 231 228 272 q 278 161 256 189 q 331 120 301 133 q 392 107 360 107 q 452 118 422 107 q 505 154 482 129 q 542 222 528 179 q 556 326 556 264 z "},"":{"ha":654,"x_min":96,"x_max":633,"o":"m 96 660 l 361 660 q 458 647 413 660 q 536 607 503 633 q 589 542 569 581 q 608 451 608 503 q 572 329 608 376 q 479 258 536 282 l 633 0 l 456 0 l 343 222 l 260 222 l 260 0 l 96 0 l 96 660 m 258 343 l 319 343 q 410 367 375 343 q 444 443 444 390 q 412 515 444 493 q 317 538 379 538 l 258 538 l 258 343 z "},"":{"ha":603,"x_min":54,"x_max":549,"o":"m 481 513 q 322 551 399 551 q 244 533 271 551 q 217 483 217 515 q 238 438 217 456 q 328 400 260 419 l 369 388 q 503 315 457 361 q 549 194 549 269 q 476 42 549 99 q 278 -14 404 -14 q 54 31 146 -14 l 92 153 q 177 121 132 133 q 269 108 222 108 q 386 182 386 108 q 358 232 386 215 q 265 268 331 249 l 222 282 q 96 353 136 310 q 56 474 56 397 q 74 553 56 517 q 124 617 92 590 q 203 658 157 643 q 307 672 250 672 q 417 662 363 672 q 515 631 471 651 l 481 513 z "},"":{"ha":564,"x_min":14,"x_max":551,"o":"m 551 660 l 551 538 l 363 538 l 363 0 l 199 0 l 199 538 l 14 538 l 14 660 l 551 660 z "},"":{"ha":774,"x_min":89,"x_max":685,"o":"m 89 660 l 253 660 l 253 313 q 263 211 253 250 q 293 149 274 172 q 339 118 313 126 q 397 110 365 110 q 491 153 461 110 q 521 299 521 197 l 521 660 l 685 660 l 685 308 q 394 -14 685 -14 q 166 65 243 -14 q 89 307 89 143 l 89 660 z "},"":{"ha":674,"x_min":8,"x_max":667,"o":"m 182 660 l 267 410 q 306 289 286 354 q 338 168 325 224 l 340 168 q 354 226 346 194 q 372 290 363 258 q 390 353 381 322 q 410 413 400 385 l 496 660 l 667 660 l 422 0 l 251 0 l 8 660 l 182 660 z "},"":{"ha":968,"x_min":11,"x_max":957,"o":"m 176 660 l 265 308 q 279 244 272 281 q 292 174 286 207 l 296 174 q 306 241 300 207 q 321 307 313 275 l 414 660 l 557 660 l 653 308 q 667 244 660 281 q 681 174 675 208 l 683 174 q 694 246 688 208 q 708 311 701 283 l 793 660 l 957 660 l 781 0 l 601 0 l 511 344 q 495 413 503 376 q 485 481 488 449 l 481 481 q 470 411 478 449 q 456 344 463 374 l 369 0 l 193 0 l 11 660 l 176 660 z "},"":{"ha":675,"x_min":10,"x_max":667,"o":"m 435 336 l 667 0 l 479 0 l 396 124 l 333 232 l 275 125 l 194 0 l 10 0 l 240 336 l 22 660 l 206 660 l 285 536 l 343 432 l 397 536 l 471 660 l 650 660 l 435 336 z "},"":{"ha":611,"x_min":4,"x_max":606,"o":"m 181 660 l 306 388 l 436 660 l 606 660 l 381 253 l 381 0 l 221 0 l 221 253 l 4 660 l 181 660 z "},"":{"ha":579,"x_min":31,"x_max":547,"o":"m 540 560 l 219 121 l 547 121 l 547 0 l 31 0 l 31 104 l 353 539 l 51 539 l 51 660 l 540 660 l 540 560 z "},"ă":{"ha":694,"x_min":46,"x_max":618,"o":"m 97 601 q 221 653 158 635 q 358 672 283 672 q 464 659 417 672 q 546 617 511 646 q 599 541 581 588 q 618 428 618 494 l 618 0 l 489 0 l 472 69 l 468 69 q 267 -14 397 -14 q 104 41 163 -14 q 46 183 46 96 q 69 279 46 239 q 134 346 93 319 q 232 385 175 372 q 356 399 289 399 l 453 399 l 453 444 q 421 522 453 499 q 335 544 389 544 q 252 532 296 544 q 156 489 208 519 l 97 601 m 454 294 l 379 292 q 251 260 288 289 q 215 192 215 232 q 246 122 215 140 q 317 104 276 104 q 394 124 357 104 q 454 181 431 144 l 454 294 m 283 951 q 304 885 286 910 q 369 861 322 861 q 432 884 411 861 q 456 951 453 907 l 556 951 q 508 820 556 869 q 369 771 460 771 q 284 786 319 771 q 226 826 249 801 q 192 884 203 851 q 182 951 182 917 l 283 951 z "},"ā":{"ha":694,"x_min":46,"x_max":618,"o":"m 97 601 q 221 653 158 635 q 358 672 283 672 q 464 659 417 672 q 546 617 511 646 q 599 541 581 588 q 618 428 618 494 l 618 0 l 489 0 l 472 69 l 468 69 q 267 -14 397 -14 q 104 41 163 -14 q 46 183 46 96 q 69 279 46 239 q 134 346 93 319 q 232 385 175 372 q 356 399 289 399 l 453 399 l 453 444 q 421 522 453 499 q 335 544 389 544 q 252 532 296 544 q 156 489 208 519 l 97 601 m 454 294 l 379 292 q 251 260 288 289 q 215 192 215 232 q 246 122 215 140 q 317 104 276 104 q 394 124 357 104 q 454 181 431 144 l 454 294 m 544 913 l 544 813 l 190 813 l 190 913 l 544 913 z "},"ą":{"ha":699,"x_min":46,"x_max":676,"o":"m 597 0 q 544 -58 564 -28 q 525 -119 525 -87 q 543 -166 525 -150 q 592 -182 561 -182 q 654 -171 628 -182 l 676 -257 q 624 -278 653 -271 q 561 -286 594 -286 q 455 -251 497 -286 q 413 -151 413 -217 q 438 -61 413 -99 q 489 0 463 -24 l 472 69 l 468 69 q 267 -14 397 -14 q 104 41 163 -14 q 46 183 46 96 q 69 279 46 239 q 134 346 93 319 q 232 385 175 372 q 356 399 289 399 l 453 399 l 453 444 q 421 522 453 499 q 335 544 389 544 q 252 532 296 544 q 156 489 208 519 l 97 601 q 221 653 158 635 q 358 672 283 672 q 464 659 417 672 q 546 617 511 646 q 599 541 581 588 q 618 428 618 494 l 618 0 l 597 0 m 454 294 l 379 292 q 251 260 288 289 q 215 192 215 232 q 246 122 215 140 q 317 104 276 104 q 394 124 357 104 q 454 181 431 144 l 454 294 z "},"ǽ":{"ha":1100,"x_min":46,"x_max":1051,"o":"m 592 765 l 471 765 l 568 965 l 739 965 l 592 765 m 1051 296 l 610 296 l 610 290 q 665 153 610 197 q 811 108 719 108 q 908 118 865 108 q 989 144 950 128 l 1019 29 q 928 -1 982 11 q 803 -14 874 -14 q 644 13 715 -14 q 526 99 574 39 l 522 99 q 422 16 481 46 q 272 -14 364 -14 q 106 41 167 -14 q 46 183 46 96 q 69 279 46 239 q 134 346 93 319 q 232 385 175 372 q 356 399 289 399 l 461 399 l 461 444 q 427 522 461 499 q 335 544 393 544 q 252 532 296 544 q 156 489 208 519 l 97 601 q 219 653 158 635 q 354 672 281 672 q 474 651 424 672 q 556 582 525 629 l 558 582 q 649 650 594 628 q 767 672 703 672 q 976 591 900 672 q 1051 365 1051 510 l 1051 296 m 215 192 q 246 122 215 140 q 317 104 276 104 q 406 127 363 104 q 475 192 449 150 q 463 240 468 215 q 457 294 458 265 l 379 292 q 251 260 288 289 q 215 192 215 232 m 883 401 q 876 458 883 431 q 855 508 869 486 q 817 542 840 529 q 760 556 793 556 q 658 513 697 556 q 613 399 619 471 l 883 401 z "},"ć":{"ha":636,"x_min":54,"x_max":594,"o":"m 426 108 q 505 119 471 108 q 563 142 539 129 l 594 26 q 514 -1 564 11 q 404 -14 464 -14 q 267 8 331 -14 q 156 72 203 29 q 81 179 108 115 q 54 328 54 243 q 80 469 54 406 q 152 578 106 533 q 263 648 199 624 q 406 672 328 672 q 494 664 449 672 q 593 631 540 656 l 558 514 q 493 542 526 532 q 424 551 460 551 q 276 495 332 551 q 221 332 221 439 q 239 226 221 269 q 286 157 257 183 q 352 119 315 131 q 426 108 389 108 m 401 765 l 281 765 l 378 965 l 549 965 l 401 765 z "},"č":{"ha":636,"x_min":54,"x_max":597,"o":"m 426 108 q 505 119 471 108 q 563 142 539 129 l 594 26 q 514 -1 564 11 q 404 -14 464 -14 q 267 8 331 -14 q 156 72 203 29 q 81 179 108 115 q 54 328 54 243 q 80 469 54 406 q 152 578 106 533 q 263 648 199 624 q 406 672 328 672 q 494 664 449 672 q 593 631 540 656 l 558 514 q 493 542 526 532 q 424 551 460 551 q 276 495 332 551 q 221 332 221 439 q 239 226 221 269 q 286 157 257 183 q 352 119 315 131 q 426 108 389 108 m 158 958 l 285 958 l 375 849 l 465 958 l 597 958 l 426 765 l 324 765 l 158 958 z "},"ĉ":{"ha":636,"x_min":54,"x_max":594,"o":"m 426 108 q 505 119 471 108 q 563 142 539 129 l 594 26 q 514 -1 564 11 q 404 -14 464 -14 q 267 8 331 -14 q 156 72 203 29 q 81 179 108 115 q 54 328 54 243 q 80 469 54 406 q 152 578 106 533 q 263 648 199 624 q 406 672 328 672 q 494 664 449 672 q 593 631 540 656 l 558 514 q 493 542 526 532 q 424 551 460 551 q 276 495 332 551 q 221 332 221 439 q 239 226 221 269 q 286 157 257 183 q 352 119 315 131 q 426 108 389 108 m 583 765 l 457 765 l 367 875 l 276 765 l 144 765 l 314 958 l 417 958 l 583 765 z "},"ċ":{"ha":636,"x_min":54,"x_max":594,"o":"m 426 108 q 505 119 471 108 q 563 142 539 129 l 594 26 q 514 -1 564 11 q 404 -14 464 -14 q 267 8 331 -14 q 156 72 203 29 q 81 179 108 115 q 54 328 54 243 q 80 469 54 406 q 152 578 106 533 q 263 648 199 624 q 406 672 328 672 q 494 664 449 672 q 593 631 540 656 l 558 514 q 493 542 526 532 q 424 551 460 551 q 276 495 332 551 q 221 332 221 439 q 239 226 221 269 q 286 157 257 183 q 352 119 315 131 q 426 108 389 108 m 294 864 q 320 924 294 897 q 382 950 346 950 q 443 924 418 950 q 468 864 468 897 q 443 801 468 826 q 382 775 418 775 q 320 801 346 775 q 294 864 294 826 z "},"ď":{"ha":861,"x_min":54,"x_max":968,"o":"m 521 989 l 685 989 l 685 0 l 563 0 l 544 72 l 539 72 q 461 10 507 35 q 343 -14 415 -14 q 232 8 285 -14 q 140 74 179 31 q 77 182 100 118 q 54 329 54 246 q 74 470 54 407 q 133 578 94 533 q 228 648 172 624 q 356 672 285 672 q 448 658 404 672 q 521 617 492 643 l 521 989 m 521 490 q 465 535 497 518 q 394 551 433 551 q 328 540 360 551 q 273 501 297 528 q 234 433 249 475 q 219 333 219 392 q 233 232 219 275 q 268 162 246 189 q 320 122 290 135 q 383 108 350 108 q 464 130 429 108 q 521 186 499 151 l 521 490 m 850 847 q 796 876 819 854 q 772 936 772 899 q 796 999 772 972 q 863 1025 819 1025 q 898 1018 879 1025 q 933 995 917 1011 q 958 954 949 979 q 968 893 968 929 q 956 822 968 857 q 922 756 943 788 q 872 700 900 725 q 813 658 843 675 l 772 714 q 839 770 810 735 q 874 843 868 806 l 850 847 z "},"≤":{"ha":617,"x_min":56,"x_max":561,"o":"m 56 497 l 56 593 l 561 828 l 561 706 l 190 544 l 561 385 l 561 263 l 56 497 m 560 204 l 560 106 l 56 106 l 56 204 l 560 204 z "},"≥":{"ha":617,"x_min":56,"x_max":561,"o":"m 561 593 l 561 497 l 56 263 l 56 385 l 425 546 l 56 706 l 56 828 l 561 593 m 560 204 l 560 106 l 56 106 l 56 204 l 560 204 z "},"đ":{"ha":796,"x_min":54,"x_max":796,"o":"m 521 989 l 685 989 l 685 883 l 796 883 l 796 783 l 685 783 l 685 0 l 563 0 l 544 72 l 539 72 q 461 10 507 35 q 343 -14 415 -14 q 232 8 285 -14 q 140 74 179 31 q 77 182 100 118 q 54 329 54 246 q 74 470 54 407 q 133 578 94 533 q 228 648 172 624 q 356 672 285 672 q 448 658 404 672 q 521 617 492 643 l 521 783 l 360 783 l 360 883 l 521 883 l 521 989 m 521 490 q 465 535 497 518 q 394 551 433 551 q 328 540 360 551 q 273 501 297 528 q 234 433 249 475 q 219 333 219 392 q 233 232 219 275 q 268 162 246 189 q 320 122 290 135 q 383 108 350 108 q 464 130 429 108 q 521 186 499 151 l 521 490 z "},"ĕ":{"ha":714,"x_min":49,"x_max":665,"o":"m 665 300 l 217 300 l 217 294 q 273 155 217 201 q 421 108 329 108 q 517 118 475 108 q 599 144 560 128 l 631 29 q 535 -1 590 11 q 406 -14 479 -14 q 267 6 332 -14 q 154 67 203 25 q 77 172 106 108 q 49 325 49 236 q 72 467 49 403 q 139 576 96 531 q 243 647 182 622 q 378 672 304 672 q 588 592 510 672 q 665 368 665 511 l 665 300 m 497 407 q 490 463 497 436 q 468 511 483 490 q 428 544 453 532 q 371 556 404 556 q 268 514 308 556 q 219 404 228 472 l 497 407 m 292 951 q 312 885 294 910 q 378 861 329 861 q 440 884 419 861 q 464 951 461 907 l 564 951 q 516 820 564 869 q 378 771 468 771 q 292 786 328 771 q 234 826 257 801 q 201 884 211 851 q 190 951 190 917 l 292 951 z "},"ě":{"ha":714,"x_min":49,"x_max":665,"o":"m 665 300 l 217 300 l 217 294 q 273 155 217 201 q 421 108 329 108 q 517 118 475 108 q 599 144 560 128 l 631 29 q 535 -1 590 11 q 406 -14 479 -14 q 267 6 332 -14 q 154 67 203 25 q 77 172 106 108 q 49 325 49 236 q 72 467 49 403 q 139 576 96 531 q 243 647 182 622 q 378 672 304 672 q 588 592 510 672 q 665 368 665 511 l 665 300 m 497 407 q 490 463 497 436 q 468 511 483 490 q 428 544 453 532 q 371 556 404 556 q 268 514 308 556 q 219 404 228 472 l 497 407 m 425 765 l 322 765 l 154 958 l 283 958 l 374 849 l 464 958 l 593 958 l 425 765 z "},"ė":{"ha":714,"x_min":49,"x_max":665,"o":"m 665 300 l 217 300 l 217 294 q 273 155 217 201 q 421 108 329 108 q 517 118 475 108 q 599 144 560 128 l 631 29 q 535 -1 590 11 q 406 -14 479 -14 q 267 6 332 -14 q 154 67 203 25 q 77 172 106 108 q 49 325 49 236 q 72 467 49 403 q 139 576 96 531 q 243 647 182 622 q 378 672 304 672 q 588 592 510 672 q 665 368 665 511 l 665 300 m 497 407 q 490 463 497 436 q 468 511 483 490 q 428 544 453 532 q 371 556 404 556 q 268 514 308 556 q 219 404 228 472 l 497 407 m 286 864 q 312 924 286 897 q 372 950 338 950 q 434 924 410 950 q 458 864 458 897 q 434 801 458 826 q 372 775 410 775 q 312 801 338 775 q 286 864 286 826 z "},"ē":{"ha":714,"x_min":49,"x_max":665,"o":"m 665 300 l 217 300 l 217 294 q 273 155 217 201 q 421 108 329 108 q 517 118 475 108 q 599 144 560 128 l 631 29 q 535 -1 590 11 q 406 -14 479 -14 q 267 6 332 -14 q 154 67 203 25 q 77 172 106 108 q 49 325 49 236 q 72 467 49 403 q 139 576 96 531 q 243 647 182 622 q 378 672 304 672 q 588 592 510 672 q 665 368 665 511 l 665 300 m 497 407 q 490 463 497 436 q 468 511 483 490 q 428 544 453 532 q 371 556 404 556 q 268 514 308 556 q 219 404 228 472 l 497 407 m 549 913 l 549 813 l 194 813 l 194 913 l 549 913 z "},"ę":{"ha":714,"x_min":49,"x_max":665,"o":"m 665 300 l 217 300 l 217 294 q 273 155 217 201 q 421 108 329 108 q 517 118 475 108 q 599 144 560 128 l 631 29 q 614 22 622 25 q 594 14 606 18 q 517 -41 544 -14 q 490 -106 490 -68 q 508 -152 490 -136 q 557 -168 526 -168 q 619 -157 593 -168 l 642 -243 q 589 -265 618 -257 q 526 -272 560 -272 q 420 -239 463 -272 q 378 -140 378 -206 q 395 -70 378 -101 q 444 -18 413 -39 l 444 -12 q 425 -14 435 -14 q 406 -14 415 -14 q 267 6 332 -14 q 154 67 203 25 q 77 172 106 108 q 49 325 49 236 q 72 467 49 403 q 139 576 96 531 q 243 647 182 622 q 378 672 304 672 q 588 592 510 672 q 665 368 665 511 l 665 300 m 497 407 q 490 463 497 436 q 468 511 483 490 q 428 544 453 532 q 371 556 404 556 q 268 514 308 556 q 219 404 228 472 l 497 407 z "},"ﬀ":{"ha":906,"x_min":24,"x_max":956,"o":"m 788 993 q 877 982 835 993 q 956 951 919 971 l 919 843 q 875 860 896 854 q 829 865 854 865 q 749 833 775 865 q 724 726 724 801 l 724 660 l 901 660 l 901 540 l 724 540 l 724 0 l 561 0 l 561 540 l 285 540 l 285 0 l 122 0 l 122 540 l 24 540 l 24 660 l 122 660 l 122 767 q 183 935 122 876 q 349 993 244 993 q 438 982 396 993 q 517 951 481 971 l 481 843 q 436 860 457 854 q 390 865 415 865 q 310 833 336 865 q 285 726 285 801 l 285 660 l 561 660 l 561 767 q 622 935 561 876 q 788 993 683 993 z "},"ﬃ":{"ha":1213,"x_min":24,"x_max":1121,"o":"m 356 993 q 445 982 403 993 q 524 951 488 971 l 488 843 q 443 860 464 854 q 397 865 422 865 q 312 832 339 865 q 285 719 285 799 l 285 660 l 553 660 l 553 725 q 628 922 553 851 q 828 993 703 993 q 928 981 876 993 q 1017 949 981 968 l 985 840 q 928 858 958 851 q 869 865 899 865 q 754 829 793 865 q 715 706 715 793 l 715 660 l 1121 660 l 1121 0 l 957 0 l 957 540 l 715 540 l 715 0 l 553 0 l 553 540 l 285 540 l 285 0 l 122 0 l 122 540 l 24 540 l 24 660 l 122 660 l 122 760 q 185 933 122 872 q 356 993 247 993 z "},"ﬄ":{"ha":1204,"x_min":24,"x_max":1119,"o":"m 958 0 l 958 540 l 710 540 l 710 0 l 547 0 l 547 540 l 285 540 l 285 0 l 122 0 l 122 540 l 24 540 l 24 660 l 122 660 l 122 760 q 185 933 122 872 q 356 993 247 993 q 445 982 403 993 q 524 951 488 971 l 488 843 q 443 860 464 854 q 397 865 422 865 q 312 832 339 865 q 285 719 285 799 l 285 660 l 547 660 l 547 718 q 569 833 547 782 q 629 920 590 885 q 723 974 668 956 q 844 993 778 993 q 936 985 894 993 q 1012 966 978 978 q 1073 941 1046 954 q 1119 917 1100 928 l 1119 0 l 958 0 m 871 865 q 751 828 792 865 q 710 699 710 790 l 710 660 l 958 660 l 958 849 q 915 860 938 856 q 871 865 893 865 z "},"ﬁ":{"ha":779,"x_min":24,"x_max":690,"o":"m 526 0 l 526 540 l 285 540 l 285 0 l 122 0 l 122 540 l 24 540 l 24 660 l 122 660 l 122 725 q 197 922 122 851 q 397 993 272 993 q 498 981 446 993 q 586 949 550 968 l 554 840 q 498 858 528 851 q 439 865 468 865 q 324 829 363 865 q 285 706 285 793 l 285 660 l 690 660 l 690 0 l 526 0 z "},"ﬂ":{"ha":788,"x_min":24,"x_max":694,"o":"m 533 0 l 533 540 l 285 540 l 285 0 l 122 0 l 122 540 l 24 540 l 24 660 l 122 660 l 122 718 q 144 833 122 782 q 204 920 165 885 q 298 974 243 956 q 419 993 353 993 q 511 985 469 993 q 587 966 553 978 q 648 941 621 954 q 694 917 675 928 l 694 0 l 533 0 m 285 660 l 533 660 l 533 849 q 490 860 513 856 q 446 865 468 865 q 326 828 367 865 q 285 699 285 790 l 285 660 z "},"ğ":{"ha":779,"x_min":42,"x_max":738,"o":"m 82 436 q 103 534 82 490 q 161 608 124 578 q 249 656 199 639 q 361 672 300 672 q 408 669 383 672 q 456 660 433 665 l 738 660 l 738 551 l 685 551 l 590 565 q 623 506 610 540 q 636 436 636 472 q 617 340 636 383 q 560 267 597 297 q 473 220 524 236 q 360 204 422 204 q 293 210 321 204 q 251 157 251 192 q 325 110 251 110 l 481 110 q 653 62 589 110 q 717 -85 717 14 q 692 -183 717 -139 q 620 -260 667 -228 q 508 -309 574 -292 q 363 -326 443 -326 q 128 -274 214 -326 q 42 -122 42 -222 q 73 -40 42 -74 q 157 13 104 -6 q 117 52 135 28 q 100 115 100 76 q 127 192 100 160 q 199 244 154 225 q 117 315 153 268 q 82 436 82 361 m 250 -15 q 208 -47 224 -26 q 193 -99 193 -68 q 234 -174 193 -147 q 368 -201 275 -201 q 453 -192 418 -201 q 512 -168 489 -183 q 545 -133 535 -153 q 556 -93 556 -114 q 525 -32 556 -49 q 438 -15 494 -15 l 250 -15 m 474 436 q 442 528 474 499 q 360 558 410 558 q 276 528 308 558 q 244 439 244 497 q 277 349 244 378 q 360 319 310 319 q 442 349 411 319 q 474 436 474 378 m 293 951 q 314 885 296 910 q 379 861 332 861 q 442 884 421 861 q 465 951 463 907 l 565 951 q 517 820 565 869 q 379 771 469 771 q 294 786 329 771 q 235 826 258 801 q 202 884 213 851 q 192 951 192 917 l 293 951 z "},"ĝ":{"ha":779,"x_min":42,"x_max":738,"o":"m 82 436 q 103 534 82 490 q 161 608 124 578 q 249 656 199 639 q 361 672 300 672 q 408 669 383 672 q 456 660 433 665 l 738 660 l 738 551 l 685 551 l 590 565 q 623 506 610 540 q 636 436 636 472 q 617 340 636 383 q 560 267 597 297 q 473 220 524 236 q 360 204 422 204 q 293 210 321 204 q 251 157 251 192 q 325 110 251 110 l 481 110 q 653 62 589 110 q 717 -85 717 14 q 692 -183 717 -139 q 620 -260 667 -228 q 508 -309 574 -292 q 363 -326 443 -326 q 128 -274 214 -326 q 42 -122 42 -222 q 73 -40 42 -74 q 157 13 104 -6 q 117 52 135 28 q 100 115 100 76 q 127 192 100 160 q 199 244 154 225 q 117 315 153 268 q 82 436 82 361 m 250 -15 q 208 -47 224 -26 q 193 -99 193 -68 q 234 -174 193 -147 q 368 -201 275 -201 q 453 -192 418 -201 q 512 -168 489 -183 q 545 -133 535 -153 q 556 -93 556 -114 q 525 -32 556 -49 q 438 -15 494 -15 l 250 -15 m 474 436 q 442 528 474 499 q 360 558 410 558 q 276 528 308 558 q 244 439 244 497 q 277 349 244 378 q 360 319 310 319 q 442 349 411 319 q 474 436 474 378 m 592 765 l 465 765 l 375 875 l 285 765 l 153 765 l 324 958 l 426 958 l 592 765 z "},"ģ":{"ha":779,"x_min":42,"x_max":738,"o":"m 82 436 q 103 534 82 490 q 161 608 124 578 q 249 656 199 639 q 361 672 300 672 q 408 669 383 672 q 456 660 433 665 l 738 660 l 738 551 l 685 551 l 590 565 q 623 506 610 540 q 636 436 636 472 q 617 340 636 383 q 560 267 597 297 q 473 220 524 236 q 360 204 422 204 q 293 210 321 204 q 251 157 251 192 q 325 110 251 110 l 481 110 q 653 62 589 110 q 717 -85 717 14 q 692 -183 717 -139 q 620 -260 667 -228 q 508 -309 574 -292 q 363 -326 443 -326 q 128 -274 214 -326 q 42 -122 42 -222 q 73 -40 42 -74 q 157 13 104 -6 q 117 52 135 28 q 100 115 100 76 q 127 192 100 160 q 199 244 154 225 q 117 315 153 268 q 82 436 82 361 m 250 -15 q 208 -47 224 -26 q 193 -99 193 -68 q 234 -174 193 -147 q 368 -201 275 -201 q 453 -192 418 -201 q 512 -168 489 -183 q 545 -133 535 -153 q 556 -93 556 -114 q 525 -32 556 -49 q 438 -15 494 -15 l 250 -15 m 474 436 q 442 528 474 499 q 360 558 410 558 q 276 528 308 558 q 244 439 244 497 q 277 349 244 378 q 360 319 310 319 q 442 349 411 319 q 474 436 474 378 m 374 943 q 427 915 403 938 q 451 854 451 892 q 428 792 451 818 q 361 765 404 765 q 326 772 344 765 q 291 795 307 779 q 265 836 275 811 q 256 897 256 861 q 268 969 256 933 q 301 1035 281 1004 q 350 1090 322 1065 q 410 1132 378 1115 l 450 1078 q 384 1021 414 1056 q 349 949 354 986 l 374 943 z "},"ġ":{"ha":779,"x_min":42,"x_max":738,"o":"m 82 436 q 103 534 82 490 q 161 608 124 578 q 249 656 199 639 q 361 672 300 672 q 408 669 383 672 q 456 660 433 665 l 738 660 l 738 551 l 685 551 l 590 565 q 623 506 610 540 q 636 436 636 472 q 617 340 636 383 q 560 267 597 297 q 473 220 524 236 q 360 204 422 204 q 293 210 321 204 q 251 157 251 192 q 325 110 251 110 l 481 110 q 653 62 589 110 q 717 -85 717 14 q 692 -183 717 -139 q 620 -260 667 -228 q 508 -309 574 -292 q 363 -326 443 -326 q 128 -274 214 -326 q 42 -122 42 -222 q 73 -40 42 -74 q 157 13 104 -6 q 117 52 135 28 q 100 115 100 76 q 127 192 100 160 q 199 244 154 225 q 117 315 153 268 q 82 436 82 361 m 250 -15 q 208 -47 224 -26 q 193 -99 193 -68 q 234 -174 193 -147 q 368 -201 275 -201 q 453 -192 418 -201 q 512 -168 489 -183 q 545 -133 535 -153 q 556 -93 556 -114 q 525 -32 556 -49 q 438 -15 494 -15 l 250 -15 m 474 436 q 442 528 474 499 q 360 558 410 558 q 276 528 308 558 q 244 439 244 497 q 277 349 244 378 q 360 319 310 319 q 442 349 411 319 q 474 436 474 378 m 282 864 q 308 924 282 897 q 368 950 333 950 q 430 924 406 950 q 454 864 454 897 q 430 801 454 826 q 368 775 406 775 q 308 801 333 775 q 282 864 282 826 z "},"ħ":{"ha":779,"x_min":-21,"x_max":690,"o":"m 396 883 l 396 783 l 254 783 l 254 592 q 349 649 296 626 q 465 672 403 672 q 565 655 522 672 q 635 607 607 638 q 676 535 663 576 q 690 443 690 493 l 690 0 l 526 0 l 526 411 q 497 513 526 482 q 413 544 468 544 q 331 525 372 544 q 254 471 290 506 l 254 0 l 90 0 l 90 783 l -21 783 l -21 883 l 90 883 l 90 989 l 254 989 l 254 883 l 396 883 z "},"ĥ":{"ha":778,"x_min":-51,"x_max":689,"o":"m 253 0 l 89 0 l 89 968 l 253 968 l 253 592 q 348 649 294 626 q 464 672 401 672 q 565 655 522 672 q 635 607 607 638 q 676 535 663 576 q 689 443 689 493 l 689 0 l 525 0 l 525 411 q 497 513 525 482 q 413 544 468 544 q 331 525 372 544 q 253 471 289 506 l 253 0 m 388 1042 l 261 1042 l 171 1151 l 81 1042 l -51 1042 l 119 1235 l 222 1235 l 388 1042 z "},"ĭ":{"ha":374,"x_min":-1,"x_max":372,"o":"m 103 0 l 103 660 l 267 660 l 267 0 l 103 0 m 100 951 q 120 885 103 910 q 186 861 138 861 q 249 884 228 861 q 272 951 269 907 l 372 951 q 324 820 372 869 q 186 771 276 771 q 101 786 136 771 q 42 826 65 801 q 9 884 19 851 q -1 951 -1 917 l 100 951 z "},"ī":{"ha":371,"x_min":7,"x_max":361,"o":"m 103 0 l 103 660 l 267 660 l 267 0 l 103 0 m 361 913 l 361 813 l 7 813 l 7 913 l 361 913 z "},"į":{"ha":371,"x_min":19,"x_max":283,"o":"m 221 0 q 156 -56 179 -28 q 132 -119 132 -83 q 150 -166 132 -150 q 199 -182 168 -182 q 261 -171 235 -182 l 283 -257 q 231 -278 260 -271 q 168 -286 201 -286 q 62 -251 104 -286 q 19 -151 19 -217 q 47 -60 19 -99 q 103 0 74 -22 l 103 660 l 267 660 l 267 0 l 221 0 m 94 899 q 119 960 94 935 q 185 986 143 986 q 251 961 225 986 q 276 899 276 936 q 251 836 276 861 q 185 811 226 811 q 119 836 143 811 q 94 899 94 861 z "},"ĩ":{"ha":371,"x_min":-32,"x_max":403,"o":"m 103 0 l 103 660 l 267 660 l 267 0 l 103 0 m -32 765 q 0 891 -32 844 q 94 938 32 938 q 147 928 122 938 q 192 906 171 918 q 232 883 213 893 q 269 874 251 874 q 307 896 297 874 q 319 943 317 918 l 403 943 q 372 819 403 865 q 279 772 340 772 q 222 782 247 772 q 174 803 196 792 q 133 825 151 815 q 100 835 115 835 q 63 815 74 835 q 51 765 53 796 l -32 765 z "},"ĳ":{"ha":696,"x_min":92,"x_max":604,"o":"m 101 660 l 265 660 l 265 0 l 101 0 l 101 660 m 431 660 l 594 660 l 594 94 q 583 -51 594 17 q 544 -173 572 -118 q 467 -272 515 -228 q 344 -347 419 -315 l 274 -233 q 344 -190 315 -212 q 393 -132 374 -167 q 422 -46 413 -97 q 431 83 431 6 l 431 660 m 92 899 q 117 960 92 935 q 183 986 142 986 q 249 961 224 986 q 274 899 274 936 q 249 836 274 861 q 183 811 224 811 q 116 836 140 811 q 92 899 92 861 m 422 899 q 447 960 422 935 q 513 986 471 986 q 578 961 553 986 q 604 899 604 936 q 579 836 604 861 q 513 811 554 811 q 447 836 471 811 q 422 899 422 861 z "},"ĵ":{"ha":358,"x_min":-65,"x_max":390,"o":"m 92 660 l 256 660 l 256 94 q 244 -51 256 17 q 205 -173 233 -118 q 128 -272 176 -228 q 6 -347 81 -315 l -65 -233 q 6 -190 -24 -212 q 54 -132 35 -167 q 83 -46 74 -97 q 92 83 92 6 l 92 660 m 390 765 l 264 765 l 174 875 l 83 765 l -49 765 l 122 958 l 225 958 l 390 765 z "},"ķ":{"ha":704,"x_min":89,"x_max":699,"o":"m 251 228 l 251 0 l 89 0 l 89 989 l 251 989 l 251 393 l 488 660 l 688 660 l 428 382 l 699 0 l 506 0 l 310 286 l 251 228 m 354 -268 q 300 -239 324 -261 q 276 -179 276 -217 q 300 -117 276 -143 q 367 -90 324 -90 q 402 -97 383 -90 q 437 -120 421 -104 q 463 -161 453 -136 q 472 -222 472 -186 q 460 -293 472 -258 q 426 -359 447 -328 q 376 -415 404 -390 q 317 -457 347 -440 l 276 -401 q 343 -345 314 -381 q 378 -272 372 -310 l 354 -268 z "},"ĺ":{"ha":365,"x_min":90,"x_max":365,"o":"m 90 0 l 90 968 l 251 968 l 251 0 l 90 0 m 218 1058 l 97 1058 l 194 1258 l 365 1258 l 218 1058 z "},"ľ":{"ha":433,"x_min":90,"x_max":536,"o":"m 90 0 l 90 989 l 251 989 l 251 0 l 90 0 m 418 847 q 365 876 389 854 q 340 936 340 899 q 364 999 340 972 q 431 1025 388 1025 q 466 1018 447 1025 q 501 995 485 1011 q 526 954 517 979 q 536 893 536 929 q 524 822 536 857 q 490 756 511 788 q 441 700 469 725 q 382 658 413 675 l 342 714 q 408 770 378 735 q 443 843 438 806 l 418 847 z "},"ļ":{"ha":342,"x_min":75,"x_max":271,"o":"m 90 0 l 90 989 l 251 989 l 251 0 l 90 0 m 153 -268 q 99 -239 122 -261 q 75 -179 75 -217 q 99 -117 75 -143 q 165 -90 122 -90 q 201 -97 182 -90 q 235 -120 219 -104 q 261 -161 251 -136 q 271 -222 271 -186 q 258 -293 271 -258 q 224 -359 246 -328 q 174 -415 203 -390 q 115 -457 146 -440 l 75 -401 q 142 -345 113 -381 q 176 -272 171 -310 l 153 -268 z "},"ŀ":{"ha":438,"x_min":90,"x_max":500,"o":"m 90 0 l 90 989 l 251 989 l 251 0 l 90 0 m 328 474 q 352 538 328 511 q 415 565 376 565 q 476 539 451 565 q 500 474 500 513 q 475 410 500 438 q 415 382 450 382 q 352 410 376 382 q 328 474 328 438 z "},"ł":{"ha":467,"x_min":-40,"x_max":508,"o":"m 143 0 l 143 324 l 25 206 l -40 271 l 143 454 l 143 989 l 304 989 l 304 565 l 443 703 l 508 638 l 304 435 l 304 0 l 143 0 z "},"ń":{"ha":768,"x_min":86,"x_max":681,"o":"m 250 0 l 86 0 l 86 660 l 214 660 l 235 572 q 336 646 282 619 q 457 672 390 672 q 622 613 564 672 q 681 446 681 554 l 681 0 l 517 0 l 517 426 q 490 512 517 479 q 408 544 463 544 q 326 523 368 544 q 250 465 285 501 l 250 0 m 442 765 l 321 765 l 418 965 l 589 965 l 442 765 z "},"ŉ":{"ha":782,"x_min":-39,"x_max":694,"o":"m 264 0 l 100 0 l 100 660 l 228 660 l 249 572 q 351 646 296 619 q 472 672 406 672 q 637 613 579 672 q 694 446 694 554 l 694 0 l 531 0 l 531 426 q 503 512 531 479 q 422 544 476 544 q 340 523 382 544 q 264 465 299 501 l 264 0 m 39 865 q -15 894 10 871 q -39 954 -39 917 q -15 1017 -39 990 q 51 1043 8 1043 q 87 1036 68 1043 q 122 1013 106 1029 q 147 972 138 997 q 157 911 157 947 q 144 840 157 875 q 111 774 132 804 q 62 718 90 743 q 3 676 33 693 l -37 731 q 28 788 -1 753 q 64 860 58 822 l 39 865 z "},"ň":{"ha":768,"x_min":86,"x_max":681,"o":"m 250 0 l 86 0 l 86 660 l 214 660 l 235 572 q 336 646 282 619 q 457 672 390 672 q 622 613 564 672 q 681 446 681 554 l 681 0 l 517 0 l 517 426 q 490 512 517 479 q 408 544 463 544 q 326 523 368 544 q 250 465 285 501 l 250 0 m 176 958 l 306 958 l 396 849 l 486 958 l 615 958 l 447 765 l 344 765 l 176 958 z "},"ņ":{"ha":768,"x_min":86,"x_max":681,"o":"m 250 0 l 86 0 l 86 660 l 214 660 l 235 572 q 336 646 282 619 q 457 672 390 672 q 622 613 564 672 q 681 446 681 554 l 681 0 l 517 0 l 517 426 q 490 512 517 479 q 408 544 463 544 q 326 523 368 544 q 250 465 285 501 l 250 0 m 376 -268 q 322 -239 346 -261 q 299 -179 299 -217 q 322 -117 299 -143 q 389 -90 346 -90 q 424 -97 406 -90 q 459 -120 443 -104 q 485 -161 475 -136 q 494 -222 494 -186 q 482 -293 494 -258 q 448 -359 469 -328 q 398 -415 426 -390 q 339 -457 369 -440 l 299 -401 q 365 -345 336 -381 q 400 -272 394 -310 l 376 -268 z "},"ŏ":{"ha":775,"x_min":54,"x_max":721,"o":"m 721 335 q 695 188 721 253 q 624 78 669 122 q 517 10 578 33 q 385 -14 456 -14 q 253 8 314 -14 q 149 73 193 31 q 79 178 104 115 q 54 321 54 240 q 80 470 54 404 q 151 581 106 536 q 258 649 197 625 q 390 672 319 672 q 522 651 461 672 q 626 586 582 629 q 696 481 671 543 q 721 335 721 418 m 551 328 q 538 430 551 388 q 501 499 524 472 q 448 538 478 525 q 386 550 418 550 q 325 540 354 550 q 274 503 296 529 q 238 435 251 478 q 224 328 224 392 q 238 228 224 269 q 274 160 251 188 q 327 121 297 133 q 389 108 357 108 q 449 119 419 108 q 501 156 479 131 q 538 223 524 181 q 551 328 551 265 m 304 951 q 325 885 307 910 q 390 861 343 861 q 453 884 432 861 q 476 951 474 907 l 576 951 q 528 820 576 869 q 390 771 481 771 q 305 786 340 771 q 247 826 269 801 q 213 884 224 851 q 203 951 203 917 l 304 951 z "},"ő":{"ha":775,"x_min":54,"x_max":721,"o":"m 721 335 q 695 188 721 253 q 624 78 669 122 q 517 10 578 33 q 385 -14 456 -14 q 253 8 314 -14 q 149 73 193 31 q 79 178 104 115 q 54 321 54 240 q 80 470 54 404 q 151 581 106 536 q 258 649 197 625 q 390 672 319 672 q 522 651 461 672 q 626 586 582 629 q 696 481 671 543 q 721 335 721 418 m 551 328 q 538 430 551 388 q 501 499 524 472 q 448 538 478 525 q 386 550 418 550 q 325 540 354 550 q 274 503 296 529 q 238 435 251 478 q 224 328 224 392 q 238 228 224 269 q 274 160 251 188 q 327 121 297 133 q 389 108 357 108 q 449 119 419 108 q 501 156 479 131 q 538 223 524 181 q 551 328 551 265 m 290 765 l 172 765 l 272 965 l 440 965 l 290 765 m 542 765 l 424 765 l 525 965 l 693 965 l 542 765 z "},"ō":{"ha":775,"x_min":54,"x_max":721,"o":"m 721 335 q 695 188 721 253 q 624 78 669 122 q 517 10 578 33 q 385 -14 456 -14 q 253 8 314 -14 q 149 73 193 31 q 79 178 104 115 q 54 321 54 240 q 80 470 54 404 q 151 581 106 536 q 258 649 197 625 q 390 672 319 672 q 522 651 461 672 q 626 586 582 629 q 696 481 671 543 q 721 335 721 418 m 551 328 q 538 430 551 388 q 501 499 524 472 q 448 538 478 525 q 386 550 418 550 q 325 540 354 550 q 274 503 296 529 q 238 435 251 478 q 224 328 224 392 q 238 228 224 269 q 274 160 251 188 q 327 121 297 133 q 389 108 357 108 q 449 119 419 108 q 501 156 479 131 q 538 223 524 181 q 551 328 551 265 m 565 913 l 565 813 l 211 813 l 211 913 l 565 913 z "},"ǿ":{"ha":775,"x_min":53,"x_max":721,"o":"m 517 788 l 590 765 l 546 640 q 672 529 624 604 q 721 338 719 454 q 696 190 721 256 q 626 80 671 125 q 519 10 581 35 q 388 -14 458 -14 q 303 -6 342 -14 l 264 -124 l 193 -100 l 233 15 q 104 128 153 53 q 54 318 56 203 q 78 467 53 401 q 149 578 104 533 q 256 648 194 624 q 388 672 317 672 q 475 663 435 672 l 517 788 m 385 550 q 324 539 353 550 q 273 502 296 528 q 237 433 250 476 q 224 326 224 390 q 242 216 224 260 q 288 149 260 172 l 424 546 q 404 549 414 547 q 385 550 394 550 m 551 329 q 534 439 551 396 q 489 507 517 482 l 353 111 q 372 108 363 108 q 390 108 381 108 q 450 119 421 108 q 502 156 479 131 q 538 224 525 182 q 551 329 551 267 m 371 765 l 250 765 l 347 965 l 518 965 l 371 765 z "},"ŕ":{"ha":533,"x_min":86,"x_max":536,"o":"m 86 0 l 86 660 l 213 660 l 233 536 q 308 633 257 593 q 436 672 360 672 q 494 665 469 672 q 536 650 519 658 l 508 517 q 471 531 493 525 q 417 538 449 538 q 297 489 346 538 q 249 335 249 440 l 249 0 l 86 0 m 228 765 l 107 765 l 204 965 l 375 965 l 228 765 z "},"ř":{"ha":533,"x_min":64,"x_max":536,"o":"m 86 660 l 213 660 l 233 536 q 308 633 257 593 q 436 672 360 672 q 494 665 469 672 q 536 650 519 658 l 508 517 q 471 531 493 525 q 417 538 449 538 q 297 489 346 538 q 249 335 249 440 l 249 0 l 86 0 l 86 660 m 283 849 l 374 958 l 503 958 l 335 765 l 232 765 l 64 958 l 193 958 l 283 849 z "},"ŗ":{"ha":533,"x_min":76,"x_max":536,"o":"m 86 0 l 86 660 l 213 660 l 233 536 q 308 633 257 593 q 436 672 360 672 q 494 665 469 672 q 536 650 519 658 l 508 517 q 471 531 493 525 q 417 538 449 538 q 297 489 346 538 q 249 335 249 440 l 249 0 l 86 0 m 154 -268 q 100 -239 124 -261 q 76 -179 76 -217 q 100 -117 76 -143 q 167 -90 124 -90 q 202 -97 183 -90 q 237 -120 221 -104 q 263 -161 253 -136 q 272 -222 272 -186 q 260 -293 272 -258 q 226 -359 247 -328 q 176 -415 204 -390 q 117 -457 147 -440 l 76 -401 q 143 -345 114 -381 q 178 -272 172 -310 l 154 -268 z "},"ś":{"ha":590,"x_min":50,"x_max":543,"o":"m 476 513 q 317 551 394 551 q 238 533 265 551 q 211 483 211 515 q 233 438 211 457 q 322 400 256 419 l 364 388 q 498 315 453 361 q 543 194 543 269 q 471 42 543 99 q 274 -14 399 -14 q 50 31 139 -14 l 86 153 q 172 121 126 133 q 265 108 217 108 q 381 182 381 108 q 353 232 381 215 q 261 268 326 249 l 218 282 q 91 355 132 310 q 50 474 50 400 q 68 553 50 517 q 119 617 86 590 q 198 658 151 643 q 301 672 244 672 q 412 662 358 672 q 511 631 465 651 l 476 513 m 301 765 l 181 765 l 278 965 l 449 965 l 301 765 z "},"ş":{"ha":590,"x_min":50,"x_max":543,"o":"m 476 513 q 317 551 394 551 q 238 533 265 551 q 211 483 211 515 q 233 438 211 457 q 322 400 256 419 l 364 388 q 498 315 453 361 q 543 194 543 269 q 485 56 543 110 q 326 -10 428 1 l 297 -65 q 381 -96 351 -69 q 411 -162 411 -122 q 365 -249 411 -219 q 254 -278 319 -278 q 190 -272 221 -278 q 140 -260 158 -267 l 161 -189 q 199 -199 179 -196 q 238 -201 218 -201 q 287 -192 269 -201 q 304 -158 304 -182 q 279 -122 304 -135 q 192 -108 254 -108 l 236 -12 q 50 31 128 -8 l 86 153 q 172 121 126 133 q 265 108 217 108 q 381 182 381 108 q 353 232 381 215 q 261 268 326 249 l 218 282 q 91 355 132 310 q 50 474 50 400 q 68 553 50 517 q 119 617 86 590 q 198 658 151 643 q 301 672 244 672 q 412 662 358 672 q 511 631 465 651 l 476 513 z "},"ŝ":{"ha":590,"x_min":50,"x_max":543,"o":"m 476 513 q 317 551 394 551 q 238 533 265 551 q 211 483 211 515 q 233 438 211 457 q 322 400 256 419 l 364 388 q 498 315 453 361 q 543 194 543 269 q 471 42 543 99 q 274 -14 399 -14 q 50 31 139 -14 l 86 153 q 172 121 126 133 q 265 108 217 108 q 381 182 381 108 q 353 232 381 215 q 261 268 326 249 l 218 282 q 91 355 132 310 q 50 474 50 400 q 68 553 50 517 q 119 617 86 590 q 198 658 151 643 q 301 672 244 672 q 412 662 358 672 q 511 631 465 651 l 476 513 m 513 765 l 386 765 l 296 875 l 206 765 l 74 765 l 244 958 l 347 958 l 513 765 z "},"ș":{"ha":590,"x_min":50,"x_max":543,"o":"m 476 513 q 317 551 394 551 q 238 533 265 551 q 211 483 211 515 q 233 438 211 457 q 322 400 256 419 l 364 388 q 498 315 453 361 q 543 194 543 269 q 471 42 543 99 q 274 -14 399 -14 q 50 31 139 -14 l 86 153 q 172 121 126 133 q 265 108 217 108 q 381 182 381 108 q 353 232 381 215 q 261 268 326 249 l 218 282 q 91 355 132 310 q 50 474 50 400 q 68 553 50 517 q 119 617 86 590 q 198 658 151 643 q 301 672 244 672 q 412 662 358 672 q 511 631 465 651 l 476 513 m 279 -268 q 225 -239 249 -261 q 201 -179 201 -217 q 225 -117 201 -143 q 292 -90 249 -90 q 327 -97 308 -90 q 362 -120 346 -104 q 388 -161 378 -136 q 397 -222 397 -186 q 385 -293 397 -258 q 351 -359 372 -328 q 301 -415 329 -390 q 242 -457 272 -440 l 201 -401 q 268 -345 239 -381 q 303 -272 297 -310 l 279 -268 z "},"ﬆ":{"ha":1088,"x_min":50,"x_max":1065,"o":"m 850 660 l 1031 660 l 1031 540 l 850 540 l 850 210 q 872 145 850 163 q 932 128 894 128 q 990 133 960 128 q 1040 149 1021 139 l 1065 32 q 994 10 1040 21 q 899 0 949 0 q 736 46 785 0 q 688 183 688 92 l 688 540 l 600 540 l 600 660 l 688 660 l 688 728 q 553 918 688 918 q 464 885 503 918 q 425 790 425 853 q 449 691 425 732 q 511 631 474 650 l 476 513 q 317 551 394 551 q 238 533 265 551 q 211 483 211 515 q 233 438 211 457 q 322 400 256 419 l 364 388 q 498 315 453 361 q 543 194 543 269 q 471 42 543 99 q 274 -14 399 -14 q 50 31 139 -14 l 86 153 q 172 121 126 133 q 265 108 217 108 q 381 182 381 108 q 353 232 381 215 q 261 268 326 249 l 218 282 q 91 355 132 310 q 50 474 50 400 q 115 617 50 561 q 297 672 181 672 q 317 672 306 672 q 338 669 329 671 l 340 675 q 301 726 322 692 q 281 821 281 760 q 300 906 281 865 q 355 976 319 946 q 441 1023 390 1006 q 553 1040 492 1040 q 687 1017 631 1040 q 779 952 743 993 q 833 855 815 911 q 850 733 850 799 l 850 660 z "},"ŧ":{"ha":522,"x_min":21,"x_max":500,"o":"m 465 540 l 283 540 l 283 419 l 440 419 l 440 319 l 283 319 l 283 210 q 306 145 283 163 q 365 128 329 128 q 424 133 393 128 q 475 149 454 139 l 500 32 q 428 10 474 21 q 332 0 383 0 q 170 46 219 0 q 121 183 121 92 l 121 319 l 24 319 l 24 419 l 121 419 l 121 540 l 21 540 l 21 660 l 121 660 l 121 865 l 283 865 l 283 660 l 465 660 l 465 540 z "},"ť":{"ha":651,"x_min":21,"x_max":700,"o":"m 465 540 l 283 540 l 283 210 q 306 145 283 163 q 365 128 329 128 q 424 133 393 128 q 475 149 454 139 l 500 32 q 428 10 474 21 q 332 0 383 0 q 170 46 219 0 q 121 183 121 92 l 121 540 l 21 540 l 21 660 l 121 660 l 121 865 l 283 865 l 283 660 l 465 660 l 465 540 m 582 847 q 528 876 551 854 q 504 936 504 899 q 528 999 504 972 q 594 1025 551 1025 q 630 1018 611 1025 q 665 995 649 1011 q 690 954 681 979 q 700 893 700 929 q 688 822 700 857 q 653 756 675 788 q 603 700 632 725 q 544 658 575 675 l 504 714 q 571 770 542 735 q 606 843 600 806 l 582 847 z "},"ţ":{"ha":522,"x_min":21,"x_max":500,"o":"m 465 540 l 283 540 l 283 210 q 306 145 283 163 q 365 128 329 128 q 424 133 393 128 q 475 149 454 139 l 500 32 q 428 10 474 21 q 332 0 383 0 q 170 46 219 0 q 121 183 121 92 l 121 540 l 21 540 l 21 660 l 121 660 l 121 865 l 283 865 l 283 660 l 465 660 l 465 540 m 272 -268 q 219 -239 243 -261 q 194 -179 194 -217 q 218 -117 194 -143 q 285 -90 242 -90 q 320 -97 301 -90 q 355 -120 339 -104 q 381 -161 371 -136 q 390 -222 390 -186 q 378 -293 390 -258 q 344 -359 365 -328 q 295 -415 324 -390 q 236 -457 267 -440 l 196 -401 q 262 -345 232 -381 q 297 -272 292 -310 l 272 -268 z "},"ŭ":{"ha":769,"x_min":88,"x_max":682,"o":"m 518 660 l 682 660 l 682 0 l 558 0 l 539 76 l 533 76 q 449 15 501 43 q 317 -14 396 -14 q 150 44 213 -14 q 88 219 88 103 l 88 660 l 251 660 l 251 236 q 283 140 251 168 q 363 111 314 111 q 452 133 414 111 q 518 186 490 154 l 518 660 m 299 951 q 319 885 301 910 q 385 861 336 861 q 447 884 426 861 q 471 951 468 907 l 571 951 q 523 820 571 869 q 385 771 475 771 q 299 786 335 771 q 241 826 264 801 q 208 884 218 851 q 197 951 197 917 l 299 951 z "},"ű":{"ha":776,"x_min":88,"x_max":714,"o":"m 518 660 l 682 660 l 682 0 l 558 0 l 539 76 l 533 76 q 449 15 501 43 q 317 -14 396 -14 q 150 44 213 -14 q 88 219 88 103 l 88 660 l 251 660 l 251 236 q 283 140 251 168 q 363 111 314 111 q 452 133 414 111 q 518 186 490 154 l 518 660 m 311 765 l 193 765 l 293 965 l 461 965 l 311 765 m 563 765 l 444 765 l 546 965 l 714 965 l 563 765 z "},"ū":{"ha":769,"x_min":88,"x_max":682,"o":"m 518 660 l 682 660 l 682 0 l 558 0 l 539 76 l 533 76 q 449 15 501 43 q 317 -14 396 -14 q 150 44 213 -14 q 88 219 88 103 l 88 660 l 251 660 l 251 236 q 283 140 251 168 q 363 111 314 111 q 452 133 414 111 q 518 186 490 154 l 518 660 m 563 913 l 563 813 l 208 813 l 208 913 l 563 913 z "},"ų":{"ha":769,"x_min":88,"x_max":746,"o":"m 518 660 l 682 660 l 682 0 l 661 0 q 594 -119 594 -57 q 613 -166 594 -150 q 661 -182 631 -182 q 724 -171 697 -182 l 746 -257 q 693 -278 722 -271 q 631 -286 664 -286 q 524 -251 567 -286 q 482 -151 482 -217 q 507 -61 482 -99 q 558 0 532 -24 l 539 76 l 533 76 q 449 15 501 43 q 317 -14 396 -14 q 150 44 213 -14 q 88 219 88 103 l 88 660 l 251 660 l 251 236 q 283 140 251 168 q 363 111 314 111 q 452 133 414 111 q 518 186 490 154 l 518 660 z "},"ů":{"ha":769,"x_min":88,"x_max":682,"o":"m 518 660 l 682 660 l 682 0 l 558 0 l 539 76 l 533 76 q 449 15 501 43 q 317 -14 396 -14 q 150 44 213 -14 q 88 219 88 103 l 88 660 l 251 660 l 251 236 q 283 140 251 168 q 363 111 314 111 q 452 133 414 111 q 518 186 490 154 l 518 660 m 247 865 q 259 919 247 896 q 290 957 271 942 q 335 980 310 972 q 386 988 360 988 q 440 980 414 988 q 484 957 465 972 q 514 919 503 942 q 525 865 525 896 q 513 810 525 833 q 482 773 501 788 q 438 751 463 758 q 386 743 413 743 q 335 751 360 743 q 290 775 310 760 q 259 813 271 790 q 247 865 247 836 m 324 865 q 341 816 324 833 q 386 799 358 799 q 431 816 414 799 q 449 865 449 833 q 431 914 449 897 q 386 931 414 931 q 342 914 360 931 q 324 865 324 897 z "},"ũ":{"ha":769,"x_min":88,"x_max":682,"o":"m 518 660 l 682 660 l 682 0 l 558 0 l 539 76 l 533 76 q 449 15 501 43 q 317 -14 396 -14 q 150 44 213 -14 q 88 219 88 103 l 88 660 l 251 660 l 251 236 q 283 140 251 168 q 363 111 314 111 q 452 133 414 111 q 518 186 490 154 l 518 660 m 158 765 q 190 891 158 844 q 285 938 222 938 q 337 928 313 938 q 383 906 361 918 q 423 883 404 893 q 461 874 442 874 q 499 896 489 874 q 510 943 508 918 l 593 943 q 563 819 594 865 q 471 772 532 772 q 413 782 439 772 q 365 803 388 792 q 325 825 343 815 q 290 835 307 835 q 255 815 265 835 q 242 765 244 796 l 158 765 z "},"ẃ":{"ha":1032,"x_min":14,"x_max":1021,"o":"m 14 660 l 186 660 l 279 288 l 304 124 l 310 124 l 339 288 l 432 660 l 606 660 l 699 288 l 728 124 l 733 124 l 763 288 l 854 660 l 1021 660 l 832 0 l 642 0 l 547 372 l 518 532 l 486 372 l 392 0 l 204 0 l 14 660 m 539 765 l 418 765 l 515 965 l 686 965 l 539 765 z "},"ŵ":{"ha":1032,"x_min":14,"x_max":1021,"o":"m 14 660 l 186 660 l 279 288 l 304 124 l 310 124 l 339 288 l 432 660 l 606 660 l 699 288 l 728 124 l 733 124 l 763 288 l 854 660 l 1021 660 l 832 0 l 642 0 l 547 372 l 518 532 l 486 372 l 392 0 l 204 0 l 14 660 m 735 765 l 608 765 l 518 875 l 428 765 l 296 765 l 465 958 l 568 958 l 735 765 z "},"ẅ":{"ha":1032,"x_min":14,"x_max":1021,"o":"m 14 660 l 186 660 l 279 288 l 304 124 l 310 124 l 339 288 l 432 660 l 606 660 l 699 288 l 728 124 l 733 124 l 763 288 l 854 660 l 1021 660 l 832 0 l 642 0 l 547 372 l 518 532 l 486 372 l 392 0 l 204 0 l 14 660 m 304 863 q 328 920 304 894 q 388 946 353 946 q 446 920 422 946 q 469 863 469 894 q 446 803 469 828 q 388 778 422 778 q 328 803 353 778 q 304 863 304 828 m 564 863 q 589 920 564 894 q 647 946 614 946 q 707 920 683 946 q 731 863 731 894 q 707 803 731 828 q 647 778 683 778 q 589 803 614 778 q 564 863 564 828 z "},"ẁ":{"ha":1032,"x_min":14,"x_max":1021,"o":"m 14 660 l 186 660 l 279 288 l 304 124 l 310 124 l 339 288 l 432 660 l 606 660 l 699 288 l 728 124 l 733 124 l 763 288 l 854 660 l 1021 660 l 832 0 l 642 0 l 547 372 l 518 532 l 486 372 l 392 0 l 204 0 l 14 660 m 351 965 l 522 965 l 619 765 l 499 765 l 351 965 z "},"ŷ":{"ha":694,"x_min":11,"x_max":686,"o":"m 11 660 l 189 660 l 313 324 l 358 165 l 363 165 l 407 325 l 518 660 l 686 660 l 440 -35 q 332 -233 400 -150 q 146 -357 264 -317 l 76 -228 q 202 -150 150 -200 q 278 -22 254 -100 l 285 1 l 11 660 m 578 765 l 451 765 l 361 875 l 271 765 l 139 765 l 310 958 l 413 958 l 578 765 z "},"ỳ":{"ha":694,"x_min":11,"x_max":686,"o":"m 11 660 l 189 660 l 313 324 l 358 165 l 363 165 l 407 325 l 518 660 l 686 660 l 440 -35 q 332 -233 400 -150 q 146 -357 264 -317 l 76 -228 q 202 -150 150 -200 q 278 -22 254 -100 l 285 1 l 11 660 m 181 965 l 351 965 l 449 765 l 328 765 l 181 965 z "},"ź":{"ha":578,"x_min":31,"x_max":547,"o":"m 540 561 l 219 119 l 547 119 l 547 0 l 31 0 l 31 103 l 353 540 l 51 540 l 51 660 l 540 660 l 540 561 m 331 765 l 210 765 l 307 965 l 478 965 l 331 765 z "},"ż":{"ha":578,"x_min":31,"x_max":547,"o":"m 540 561 l 219 119 l 547 119 l 547 0 l 31 0 l 31 103 l 353 540 l 51 540 l 51 660 l 540 660 l 540 561 m 210 864 q 235 924 210 897 q 297 950 261 950 q 358 924 333 950 q 383 864 383 897 q 358 801 383 826 q 297 775 333 775 q 235 801 261 775 q 210 864 210 826 z "},"Ŋ":{"ha":932,"x_min":101,"x_max":831,"o":"m 101 875 l 254 875 l 588 369 q 639 287 615 328 q 676 219 663 246 l 679 219 q 671 412 671 315 q 671 604 671 508 l 671 875 l 831 875 l 831 113 q 819 -37 831 32 q 780 -162 808 -106 q 703 -262 751 -218 q 582 -340 656 -307 l 510 -225 q 615 -139 574 -190 q 668 0 656 -87 l 360 465 q 299 564 328 513 q 256 647 271 615 l 253 647 q 260 448 260 544 q 261 251 261 351 l 261 0 l 101 0 l 101 875 z "},"ŋ":{"ha":769,"x_min":88,"x_max":682,"o":"m 88 660 l 215 660 l 236 572 q 338 646 283 619 q 458 672 392 672 q 624 613 565 672 q 682 446 682 554 l 682 99 q 671 -47 682 19 q 631 -167 660 -112 q 555 -265 603 -222 q 432 -340 507 -308 l 361 -226 q 431 -183 401 -206 q 479 -128 460 -161 q 508 -47 499 -94 q 518 75 518 1 l 518 426 q 491 512 518 479 q 410 544 464 544 q 328 523 369 544 q 251 465 286 501 l 251 0 l 88 0 l 88 660 z "},"₹":{"ha":694,"x_min":0,"x_max":611,"o":"m 14 557 l 14 660 l 319 660 q 298 720 313 693 q 267 767 283 747 l 0 767 l 0 883 l 611 883 l 611 767 l 414 767 q 442 724 426 750 q 465 660 457 699 l 597 660 l 597 557 l 478 557 q 457 475 476 513 q 405 408 438 438 q 328 362 372 379 q 238 342 285 344 l 476 76 l 354 -14 l 153 242 q 108 295 129 271 q 71 338 88 319 q 35 375 51 358 l 76 465 q 113 455 96 458 q 156 451 131 451 q 273 482 231 451 q 322 557 315 513 l 14 557 z "},"":{"ha":736,"x_min":49,"x_max":688,"o":"m 688 338 q 664 190 688 256 q 597 80 640 125 q 495 10 554 35 q 365 -14 436 -14 q 236 8 294 -14 q 136 74 178 31 q 72 180 94 117 q 49 324 49 243 q 72 470 49 406 q 139 580 96 535 q 241 649 182 625 q 371 672 300 672 q 500 650 442 672 q 600 585 558 628 q 665 481 642 543 q 688 338 688 418 m 524 331 q 511 433 524 390 q 476 503 499 475 q 426 544 454 531 q 367 557 397 557 q 307 546 335 557 q 258 508 279 535 q 225 438 238 482 q 213 331 213 394 q 225 228 213 271 q 260 156 238 185 q 310 115 282 128 q 369 101 338 101 q 428 113 400 101 q 478 151 457 124 q 511 222 499 178 q 524 331 524 265 z "},"":{"ha":575,"x_min":50,"x_max":526,"o":"m 282 660 l 381 660 l 381 119 l 526 119 l 526 0 l 74 0 l 74 119 l 225 119 l 225 404 l 229 510 l 83 464 l 50 583 l 282 660 z "},"":{"ha":583,"x_min":38,"x_max":535,"o":"m 38 597 q 260 672 133 672 q 368 656 319 672 q 451 610 417 639 q 503 539 485 581 q 521 447 521 497 q 497 341 521 390 q 438 249 474 292 q 361 173 403 207 q 282 114 319 139 l 404 122 l 535 122 l 535 0 l 65 0 l 65 100 q 155 160 104 124 q 251 240 206 196 q 328 335 297 285 q 360 436 360 385 q 328 517 360 486 q 239 547 297 547 q 169 533 204 547 q 103 496 135 519 l 38 597 z "},"":{"ha":603,"x_min":38,"x_max":547,"o":"m 44 617 q 140 660 90 647 q 249 672 190 672 q 446 615 375 672 q 517 461 517 557 q 473 347 517 392 q 368 283 429 301 l 368 279 q 495 213 443 267 q 547 69 547 158 q 520 -50 547 4 q 443 -142 493 -104 q 322 -201 393 -181 q 161 -222 250 -222 q 115 -221 139 -222 q 60 -215 90 -219 l 38 -100 q 85 -103 61 -103 q 126 -104 110 -104 q 324 -56 258 -104 q 389 72 389 -8 q 338 175 389 139 q 194 211 286 211 q 165 210 183 211 q 121 207 147 210 l 121 340 l 175 340 q 316 372 271 340 q 361 457 361 404 q 325 531 361 506 q 236 557 289 557 q 97 514 167 557 l 44 617 z "},"":{"ha":774,"x_min":42,"x_max":722,"o":"m 425 660 l 592 660 l 592 122 l 722 122 l 722 0 l 592 0 l 592 -222 l 442 -222 l 442 0 l 42 0 l 42 100 l 425 660 m 206 122 l 442 122 l 442 349 l 450 510 l 368 367 l 206 122 z "},"":{"ha":604,"x_min":42,"x_max":544,"o":"m 119 660 l 515 664 l 500 543 l 232 543 l 203 357 q 229 360 217 360 q 249 360 242 360 q 373 340 318 360 q 466 283 428 319 q 524 199 504 247 q 544 93 544 150 q 518 -30 544 28 q 441 -131 492 -87 q 317 -198 390 -174 q 151 -222 244 -222 q 111 -221 132 -222 q 63 -215 90 -219 l 42 -100 q 119 -104 88 -104 q 320 -50 254 -104 q 386 86 386 4 q 328 199 386 158 q 169 239 271 239 q 116 237 138 239 q 60 231 94 235 l 119 660 z "},"":{"ha":722,"x_min":56,"x_max":672,"o":"m 604 767 q 581 770 592 769 q 551 771 569 771 q 421 747 478 771 q 322 683 364 722 q 255 596 281 644 q 219 500 229 547 l 224 497 q 297 543 251 525 q 396 561 343 561 q 513 540 461 561 q 599 482 564 519 q 653 393 635 444 q 672 282 672 342 q 649 161 672 215 q 584 68 625 107 q 488 8 543 29 q 372 -14 433 -14 q 248 8 306 -14 q 148 76 190 31 q 81 190 106 121 q 56 351 56 258 q 87 558 56 460 q 178 732 118 657 q 327 851 239 807 q 528 894 415 894 q 560 893 543 894 q 592 889 576 892 l 604 767 m 211 301 q 256 162 211 217 q 372 107 300 107 q 476 154 438 107 q 514 276 514 201 q 473 402 514 356 q 365 449 432 449 q 284 431 315 449 q 233 385 253 413 q 216 349 221 368 q 211 301 211 329 z "},"":{"ha":593,"x_min":46,"x_max":569,"o":"m 569 660 l 569 556 q 451 346 507 453 q 348 137 394 239 q 266 -58 301 35 q 208 -224 231 -150 l 65 -186 q 128 -20 90 -111 q 211 166 165 71 q 306 356 257 261 q 403 535 356 450 l 46 535 l 46 660 l 569 660 z "},"":{"ha":708,"x_min":56,"x_max":653,"o":"m 356 894 q 472 877 421 894 q 560 828 524 860 q 615 755 596 797 q 635 663 635 713 q 623 599 635 629 q 590 545 611 569 q 542 503 569 521 q 485 475 515 485 l 485 471 q 613 383 572 438 q 653 250 653 329 q 628 141 653 188 q 561 63 603 94 q 466 16 519 32 q 356 0 413 0 q 242 15 296 0 q 146 61 188 31 q 80 137 104 92 q 56 242 56 182 q 99 376 56 322 q 226 461 142 429 l 226 465 q 117 541 156 497 q 78 663 78 585 q 96 755 78 713 q 149 828 114 797 q 237 877 185 860 q 356 894 289 894 m 238 669 q 274 584 238 617 q 360 535 311 551 q 401 553 381 542 q 438 580 422 564 q 465 617 454 596 q 475 665 475 639 q 465 716 475 694 q 437 752 454 738 q 398 774 419 767 q 356 781 376 781 q 272 751 306 781 q 238 669 238 722 m 351 393 q 218 246 218 349 q 258 148 218 179 q 356 117 299 117 q 406 124 382 117 q 449 149 431 132 q 479 190 468 165 q 490 249 490 215 q 478 301 490 278 q 446 342 465 324 q 401 372 426 360 q 351 393 376 385 z "},"":{"ha":721,"x_min":49,"x_max":665,"o":"m 126 -99 q 272 -76 207 -99 q 383 -19 336 -54 q 458 63 429 17 q 496 154 486 108 l 493 157 q 421 107 465 125 q 325 89 376 89 q 208 110 260 89 q 122 168 157 131 q 67 256 86 206 q 49 368 49 307 q 73 495 49 439 q 140 591 97 551 q 238 651 182 631 q 357 672 294 672 q 480 649 424 672 q 577 580 536 626 q 642 463 618 533 q 665 299 665 393 q 631 97 665 192 q 532 -69 597 1 q 371 -181 467 -140 q 151 -222 275 -222 q 119 -221 136 -222 q 88 -217 103 -219 l 74 -94 q 97 -98 86 -97 q 126 -99 108 -99 m 510 353 q 501 428 510 392 q 472 492 492 464 q 424 535 453 519 q 354 551 394 551 q 248 501 289 551 q 207 374 207 451 q 249 253 207 297 q 357 208 290 208 q 441 227 410 208 q 488 269 472 246 q 505 310 500 289 q 510 353 510 331 z "},"Ḍ":{"ha":903,"x_min":101,"x_max":846,"o":"m 400 875 q 581 849 499 875 q 722 769 663 822 q 813 638 781 717 q 846 456 846 560 q 807 248 846 335 q 701 106 768 161 q 547 26 635 51 q 358 0 458 0 l 101 0 l 101 875 l 400 875 m 271 133 l 346 133 q 465 148 407 133 q 567 199 522 163 q 638 297 611 235 q 665 456 665 360 q 587 668 665 594 q 375 742 508 742 l 271 742 l 271 133 m 386 -175 q 411 -115 386 -140 q 472 -90 436 -90 q 533 -115 508 -90 q 557 -175 557 -140 q 533 -237 557 -211 q 472 -262 508 -262 q 411 -237 436 -262 q 386 -175 386 -211 z "},"ḍ":{"ha":769,"x_min":50,"x_max":681,"o":"m 517 989 l 681 989 l 681 0 l 558 0 l 540 72 l 535 72 q 457 10 503 35 q 339 -14 411 -14 q 228 8 281 -14 q 135 74 175 31 q 73 182 96 118 q 50 329 50 246 q 70 470 50 407 q 129 578 90 533 q 224 648 168 624 q 351 672 281 672 q 444 658 400 672 q 517 617 488 643 l 517 989 m 517 490 q 461 535 493 518 q 390 551 429 551 q 324 540 356 551 q 269 501 293 528 q 230 433 244 475 q 215 333 215 392 q 228 232 215 275 q 264 162 242 189 q 316 122 286 135 q 379 108 346 108 q 460 130 425 108 q 517 186 494 151 l 517 490 m 297 -176 q 323 -117 297 -143 q 385 -90 349 -90 q 446 -117 421 -90 q 471 -176 471 -143 q 446 -240 471 -214 q 385 -265 421 -265 q 323 -240 349 -265 q 297 -176 297 -214 z "},"Ḥ":{"ha":900,"x_min":101,"x_max":800,"o":"m 101 0 l 101 875 l 271 875 l 271 521 l 631 521 l 631 875 l 800 875 l 800 0 l 631 0 l 631 385 l 271 385 l 271 0 l 101 0 m 364 -176 q 390 -117 364 -143 q 451 -90 415 -90 q 513 -117 488 -90 q 538 -176 538 -143 q 513 -240 538 -214 q 451 -265 488 -265 q 390 -240 415 -265 q 364 -176 364 -214 z "},"ḥ":{"ha":778,"x_min":89,"x_max":689,"o":"m 253 0 l 89 0 l 89 989 l 253 989 l 253 592 q 348 649 294 626 q 464 672 401 672 q 565 655 522 672 q 635 607 607 638 q 676 535 663 576 q 689 443 689 493 l 689 0 l 525 0 l 525 411 q 497 513 525 482 q 413 544 468 544 q 331 525 372 544 q 253 471 289 506 l 253 0 m 307 -176 q 333 -117 307 -143 q 394 -90 358 -90 q 456 -117 431 -90 q 481 -176 481 -143 q 456 -240 481 -214 q 394 -265 431 -265 q 333 -240 358 -265 q 307 -176 307 -214 z "},"Ḷ":{"ha":644,"x_min":101,"x_max":631,"o":"m 101 875 l 271 875 l 271 136 l 631 136 l 631 0 l 101 0 l 101 875 m 288 -176 q 313 -117 288 -143 q 375 -90 339 -90 q 436 -117 411 -90 q 461 -176 461 -143 q 436 -240 461 -214 q 375 -265 411 -265 q 313 -240 339 -265 q 288 -176 288 -214 z "},"ḷ":{"ha":346,"x_min":86,"x_max":260,"o":"m 92 0 l 92 989 l 253 989 l 253 0 l 92 0 m 86 -176 q 112 -117 86 -143 q 174 -90 138 -90 q 235 -117 210 -90 q 260 -176 260 -143 q 235 -240 260 -214 q 174 -265 210 -265 q 112 -240 138 -265 q 86 -176 86 -214 z "},"Ḹ":{"ha":644,"x_min":101,"x_max":631,"o":"m 101 875 l 271 875 l 271 136 l 631 136 l 631 0 l 101 0 l 101 875 m 288 -176 q 313 -117 288 -143 q 375 -90 339 -90 q 436 -117 411 -90 q 461 -176 461 -143 q 436 -240 461 -214 q 375 -265 411 -265 q 313 -240 339 -265 q 288 -176 288 -214 m 497 1071 l 497 971 l 147 971 l 147 1071 l 497 1071 z "},"ḹ":{"ha":346,"x_min":-4,"x_max":346,"o":"m 88 -176 q 113 -117 88 -143 q 175 -90 139 -90 q 236 -117 211 -90 q 261 -176 261 -143 q 236 -240 261 -214 q 175 -265 211 -265 q 113 -240 139 -265 q 88 -176 88 -214 m 346 1213 l 346 1113 l -4 1113 l -4 1213 l 346 1213 m 90 0 l 90 968 l 251 968 l 251 0 l 90 0 z "},"Ḻ":{"ha":644,"x_min":101,"x_max":631,"o":"m 101 875 l 271 875 l 271 136 l 631 136 l 631 0 l 101 0 l 101 875 m 542 -90 l 542 -190 l 188 -190 l 188 -90 l 542 -90 z "},"ḻ":{"ha":346,"x_min":-4,"x_max":350,"o":"m 92 0 l 92 989 l 253 989 l 253 0 l 92 0 m 350 -90 l 350 -190 l -4 -190 l -4 -90 l 350 -90 z "},"Ṃ":{"ha":1147,"x_min":89,"x_max":1058,"o":"m 156 875 l 371 875 l 510 439 q 544 326 528 382 q 572 215 560 269 l 578 215 q 591 267 583 239 q 607 326 599 296 q 623 385 615 356 q 639 439 631 414 l 774 875 l 989 875 l 1058 0 l 896 0 q 876 285 885 143 q 864 571 867 428 l 860 708 l 856 708 q 811 540 835 626 q 764 383 788 454 l 642 0 l 504 0 l 379 383 q 326 562 347 481 q 289 708 304 643 l 286 708 q 277 482 283 600 q 264 264 271 364 l 249 0 l 89 0 l 156 875 m 485 -176 q 510 -117 485 -143 q 572 -90 536 -90 q 633 -117 608 -90 q 658 -176 658 -143 q 633 -240 658 -214 q 572 -265 608 -265 q 510 -240 536 -265 q 485 -176 485 -214 z "},"ṃ":{"ha":1172,"x_min":88,"x_max":1085,"o":"m 251 0 l 88 0 l 88 660 l 214 660 l 235 572 q 333 645 281 618 q 456 672 386 672 q 572 645 525 672 q 643 568 619 618 q 747 644 690 617 q 872 672 804 672 q 1031 615 976 672 q 1085 453 1085 558 l 1085 0 l 921 0 l 921 431 q 896 514 921 483 q 819 544 871 544 q 739 525 779 544 q 667 469 699 506 q 668 452 668 460 q 668 435 668 444 l 668 0 l 504 0 l 504 431 q 479 514 504 483 q 403 544 454 544 q 323 523 363 544 q 251 464 283 501 l 251 0 m 500 -176 q 526 -117 500 -143 q 588 -90 551 -90 q 649 -117 624 -90 q 674 -176 674 -143 q 649 -240 674 -214 q 588 -265 624 -265 q 526 -240 551 -265 q 500 -176 500 -214 z "},"Ṅ":{"ha":932,"x_min":101,"x_max":831,"o":"m 101 875 l 254 875 l 588 383 q 639 301 615 342 q 676 233 663 260 l 679 233 q 671 426 671 329 q 671 618 671 522 l 671 875 l 831 875 l 831 0 l 678 0 l 360 465 q 299 564 328 513 q 256 647 271 615 l 253 647 q 260 448 260 544 q 261 251 261 351 l 261 0 l 101 0 l 101 875 m 379 1053 q 404 1113 379 1088 q 465 1138 429 1138 q 526 1113 501 1138 q 550 1053 550 1088 q 526 991 550 1017 q 465 965 501 965 q 404 991 429 965 q 379 1053 379 1017 z "},"ṅ":{"ha":769,"x_min":88,"x_max":682,"o":"m 251 0 l 88 0 l 88 660 l 215 660 l 236 572 q 338 646 283 619 q 458 672 392 672 q 624 613 565 672 q 682 446 682 554 l 682 0 l 518 0 l 518 426 q 491 512 518 479 q 410 544 464 544 q 328 523 369 544 q 251 465 286 501 l 251 0 m 297 864 q 323 924 297 897 q 385 950 349 950 q 446 924 421 950 q 471 864 471 897 q 446 801 471 826 q 385 775 421 775 q 323 801 349 775 q 297 864 297 826 z "},"Ṇ":{"ha":932,"x_min":101,"x_max":831,"o":"m 101 875 l 254 875 l 588 383 q 639 301 615 342 q 676 233 663 260 l 679 233 q 671 426 671 329 q 671 618 671 522 l 671 875 l 831 875 l 831 0 l 678 0 l 360 465 q 299 564 328 513 q 256 647 271 615 l 253 647 q 260 448 260 544 q 261 251 261 351 l 261 0 l 101 0 l 101 875 m 378 -176 q 403 -117 378 -143 q 465 -90 429 -90 q 526 -117 501 -90 q 551 -176 551 -143 q 526 -240 551 -214 q 465 -265 501 -265 q 403 -240 429 -265 q 378 -176 378 -214 z "},"ṇ":{"ha":769,"x_min":88,"x_max":682,"o":"m 251 0 l 88 0 l 88 660 l 215 660 l 236 572 q 338 646 283 619 q 458 672 392 672 q 624 613 565 672 q 682 446 682 554 l 682 0 l 518 0 l 518 426 q 491 512 518 479 q 410 544 464 544 q 328 523 369 544 q 251 465 286 501 l 251 0 m 301 -176 q 327 -117 301 -143 q 389 -90 353 -90 q 450 -117 425 -90 q 475 -176 475 -143 q 450 -240 475 -214 q 389 -265 425 -265 q 327 -240 353 -265 q 301 -176 301 -214 z "},"Ṉ":{"ha":932,"x_min":101,"x_max":831,"o":"m 101 875 l 254 875 l 588 383 q 639 301 615 342 q 676 233 663 260 l 679 233 q 671 426 671 329 q 671 618 671 522 l 671 875 l 831 875 l 831 0 l 678 0 l 360 465 q 299 564 328 513 q 256 647 271 615 l 253 647 q 260 448 260 544 q 261 251 261 351 l 261 0 l 101 0 l 101 875 m 643 -90 l 643 -190 l 289 -190 l 289 -90 l 643 -90 z "},"ṉ":{"ha":769,"x_min":88,"x_max":682,"o":"m 251 0 l 88 0 l 88 660 l 215 660 l 236 572 q 338 646 283 619 q 458 672 392 672 q 624 613 565 672 q 682 446 682 554 l 682 0 l 518 0 l 518 426 q 491 512 518 479 q 410 544 464 544 q 328 523 369 544 q 251 465 286 501 l 251 0 m 561 -90 l 561 -190 l 207 -190 l 207 -90 l 561 -90 z "},"Ṛ":{"ha":778,"x_min":101,"x_max":757,"o":"m 101 875 l 417 875 q 543 854 489 875 q 634 797 597 833 q 690 713 671 761 q 708 607 708 664 q 692 514 708 554 q 651 443 676 474 q 596 392 626 413 q 536 360 565 372 l 757 0 l 564 0 l 382 329 l 267 329 l 267 0 l 101 0 l 101 875 m 267 461 l 351 461 q 482 494 431 461 q 533 603 533 526 q 492 708 533 672 q 372 744 451 744 l 267 744 l 267 461 m 315 -176 q 341 -117 315 -143 q 403 -90 367 -90 q 464 -117 439 -90 q 489 -176 489 -143 q 464 -240 489 -214 q 403 -265 439 -265 q 341 -240 367 -265 q 315 -176 315 -214 z "},"ṛ":{"ha":533,"x_min":81,"x_max":536,"o":"m 86 0 l 86 660 l 213 660 l 233 536 q 308 633 257 593 q 436 672 360 672 q 494 665 469 672 q 536 650 519 658 l 508 517 q 471 531 493 525 q 417 538 449 538 q 297 489 346 538 q 249 335 249 440 l 249 0 l 86 0 m 81 -176 q 106 -117 81 -143 q 168 -90 132 -90 q 229 -117 204 -90 q 254 -176 254 -143 q 229 -240 254 -214 q 168 -265 204 -265 q 106 -240 132 -265 q 81 -176 81 -214 z "},"Ṝ":{"ha":778,"x_min":101,"x_max":757,"o":"m 101 875 l 417 875 q 543 854 489 875 q 634 797 597 833 q 690 713 671 761 q 708 607 708 664 q 692 514 708 554 q 651 443 676 474 q 596 392 626 413 q 536 360 565 372 l 757 0 l 564 0 l 382 329 l 267 329 l 267 0 l 101 0 l 101 875 m 267 461 l 351 461 q 482 494 431 461 q 533 603 533 526 q 492 708 533 672 q 372 744 451 744 l 267 744 l 267 461 m 315 -176 q 341 -117 315 -143 q 403 -90 367 -90 q 464 -117 439 -90 q 489 -176 489 -143 q 464 -240 489 -214 q 403 -265 439 -265 q 341 -240 367 -265 q 315 -176 315 -214 m 564 1071 l 564 971 l 214 971 l 214 1071 l 564 1071 z "},"ṝ":{"ha":533,"x_min":81,"x_max":536,"o":"m 86 0 l 86 660 l 213 660 l 233 536 q 308 633 257 593 q 436 672 360 672 q 494 665 469 672 q 536 650 519 658 l 508 517 q 471 531 493 525 q 417 538 449 538 q 297 489 346 538 q 249 335 249 440 l 249 0 l 86 0 m 81 -176 q 106 -117 81 -143 q 168 -90 132 -90 q 229 -117 204 -90 q 254 -176 254 -143 q 229 -240 254 -214 q 168 -265 204 -265 q 106 -240 132 -265 q 81 -176 81 -214 m 443 913 l 443 813 l 89 813 l 89 913 l 443 913 z "},"Ṟ":{"ha":778,"x_min":101,"x_max":757,"o":"m 101 875 l 417 875 q 543 854 489 875 q 634 797 597 833 q 690 713 671 761 q 708 607 708 664 q 692 514 708 554 q 651 443 676 474 q 596 392 626 413 q 536 360 565 372 l 757 0 l 564 0 l 382 329 l 267 329 l 267 0 l 101 0 l 101 875 m 267 461 l 351 461 q 482 494 431 461 q 533 603 533 526 q 492 708 533 672 q 372 744 451 744 l 267 744 l 267 461 m 590 -90 l 590 -190 l 236 -190 l 236 -90 l 590 -90 z "},"ṟ":{"ha":533,"x_min":86,"x_max":536,"o":"m 86 0 l 86 660 l 213 660 l 233 536 q 308 633 257 593 q 436 672 360 672 q 494 665 469 672 q 536 650 519 658 l 508 517 q 471 531 493 525 q 417 538 449 538 q 297 489 346 538 q 249 335 249 440 l 249 0 l 86 0 m 485 -90 l 485 -190 l 131 -190 l 131 -90 l 485 -90 z "},"Ṣ":{"ha":731,"x_min":58,"x_max":675,"o":"m 372 889 q 513 874 450 889 q 629 833 576 860 l 590 703 q 482 744 533 731 q 381 758 431 758 q 270 729 310 758 q 231 650 231 700 q 263 576 231 601 q 368 526 296 550 l 453 499 q 618 399 561 463 q 675 247 675 335 q 653 143 675 190 q 589 60 631 96 q 487 6 547 25 q 350 -14 426 -14 q 204 1 275 -14 q 68 47 133 15 l 107 176 q 224 132 167 147 q 343 117 281 117 q 460 146 418 117 q 503 231 503 175 q 496 268 503 250 q 472 302 489 286 q 424 333 454 318 q 347 363 394 347 l 269 389 q 116 477 174 422 q 58 632 58 532 q 139 818 58 747 q 372 889 219 889 m 304 -176 q 330 -117 304 -143 q 392 -90 356 -90 q 453 -117 428 -90 q 478 -176 478 -143 q 453 -240 478 -214 q 392 -265 428 -265 q 330 -240 356 -265 q 304 -176 304 -214 z "},"ṣ":{"ha":590,"x_min":50,"x_max":543,"o":"m 476 513 q 317 551 394 551 q 238 533 265 551 q 211 483 211 515 q 233 438 211 457 q 322 400 256 419 l 364 388 q 498 315 453 361 q 543 194 543 269 q 471 42 543 99 q 274 -14 399 -14 q 50 31 139 -14 l 86 153 q 172 121 126 133 q 265 108 217 108 q 381 182 381 108 q 353 232 381 215 q 261 268 326 249 l 218 282 q 91 355 132 310 q 50 474 50 400 q 68 553 50 517 q 119 617 86 590 q 198 658 151 643 q 301 672 244 672 q 412 662 358 672 q 511 631 465 651 l 476 513 m 229 -176 q 255 -117 229 -143 q 317 -90 281 -90 q 378 -117 353 -90 q 403 -176 403 -143 q 378 -240 403 -214 q 317 -265 353 -265 q 255 -240 281 -265 q 229 -176 229 -214 z "},"Ṭ":{"ha":703,"x_min":14,"x_max":690,"o":"m 690 875 l 690 739 l 433 739 l 433 0 l 264 0 l 264 739 l 14 739 l 14 875 l 690 875 m 261 -176 q 287 -117 261 -143 q 349 -90 313 -90 q 410 -117 385 -90 q 435 -176 435 -143 q 410 -240 435 -214 q 349 -265 385 -265 q 287 -240 313 -265 q 261 -176 261 -214 z "},"ṭ":{"ha":522,"x_min":21,"x_max":500,"o":"m 465 540 l 283 540 l 283 210 q 306 145 283 163 q 365 128 329 128 q 424 133 393 128 q 475 149 454 139 l 500 32 q 428 10 474 21 q 332 0 383 0 q 170 46 219 0 q 121 183 121 92 l 121 540 l 21 540 l 21 660 l 121 660 l 121 865 l 283 865 l 283 660 l 465 660 l 465 540 m 228 -176 q 253 -117 228 -143 q 315 -90 279 -90 q 376 -117 351 -90 q 401 -176 401 -143 q 376 -240 401 -214 q 315 -265 351 -265 q 253 -240 279 -265 q 228 -176 228 -214 z "},"Ṯ":{"ha":703,"x_min":14,"x_max":690,"o":"m 690 875 l 690 739 l 433 739 l 433 0 l 264 0 l 264 739 l 14 739 l 14 875 l 690 875 m 529 -90 l 529 -190 l 175 -190 l 175 -90 l 529 -90 z "},"ṯ":{"ha":522,"x_min":21,"x_max":500,"o":"m 465 540 l 283 540 l 283 210 q 306 145 283 163 q 365 128 329 128 q 424 133 393 128 q 475 149 454 139 l 500 32 q 428 10 474 21 q 332 0 383 0 q 170 46 219 0 q 121 183 121 92 l 121 540 l 21 540 l 21 660 l 121 660 l 121 865 l 283 865 l 283 660 l 465 660 l 465 540 m 469 -90 l 469 -190 l 115 -190 l 115 -90 l 469 -90 z "},"Ẏ":{"ha":786,"x_min":13,"x_max":781,"o":"m 201 875 l 399 518 l 597 875 l 781 875 l 478 363 l 478 0 l 308 0 l 308 363 l 13 875 l 201 875 m 307 1051 q 332 1111 307 1086 q 393 1136 357 1136 q 453 1111 429 1136 q 478 1051 478 1086 q 453 990 478 1015 q 393 964 429 964 q 332 990 357 964 q 307 1051 307 1015 z "},"ẏ":{"ha":694,"x_min":11,"x_max":686,"o":"m 11 660 l 189 660 l 313 324 l 358 165 l 363 165 l 407 325 l 518 660 l 686 660 l 440 -35 q 332 -233 400 -150 q 146 -357 264 -317 l 76 -228 q 202 -150 150 -200 q 278 -22 254 -100 l 285 1 l 11 660 m 261 864 q 287 924 261 897 q 349 950 313 950 q 410 924 385 950 q 435 864 435 897 q 410 801 435 826 q 349 775 385 775 q 287 801 313 775 q 261 864 261 826 z "},"·":{"ha":261,"x_min":44,"x_max":217,"o":"m 44 474 q 69 538 44 511 q 132 565 93 565 q 192 539 168 565 q 217 474 217 513 q 192 410 217 438 q 132 382 167 382 q 69 410 93 382 q 44 474 44 438 z "},"⁰":{"ha":544,"x_min":31,"x_max":514,"o":"m 279 1192 q 383 1169 339 1192 q 457 1106 428 1146 q 500 1013 486 1067 q 514 899 514 960 q 448 689 514 767 q 269 611 382 611 q 176 631 219 611 q 99 688 132 650 q 49 778 67 725 q 31 899 31 832 q 99 1115 31 1038 q 279 1192 167 1192 m 157 900 q 188 753 157 803 q 272 704 218 704 q 360 751 332 704 q 388 899 388 799 q 363 1047 388 993 q 275 1100 338 1100 q 187 1054 217 1100 q 157 900 157 1008 z "},"¹":{"ha":400,"x_min":31,"x_max":308,"o":"m 203 1182 l 308 1182 l 308 618 l 178 618 l 178 1051 l 60 996 l 31 1103 l 203 1182 z "},"²":{"ha":451,"x_min":21,"x_max":410,"o":"m 194 1097 q 138 1089 167 1097 q 72 1057 108 1081 l 26 1139 q 113 1179 68 1167 q 203 1192 157 1192 q 356 1141 303 1192 q 410 1014 410 1090 q 375 899 410 957 q 261 779 340 840 l 174 713 l 410 713 l 410 618 l 43 618 l 21 701 l 133 796 q 250 914 215 867 q 285 1010 285 961 q 259 1073 285 1049 q 194 1097 233 1097 z "},"³":{"ha":421,"x_min":13,"x_max":392,"o":"m 28 1160 q 109 1185 72 1179 q 182 1192 146 1192 q 255 1181 221 1192 q 315 1149 289 1169 q 357 1101 342 1129 q 372 1039 372 1074 q 263 908 372 940 l 263 906 q 356 860 321 894 q 392 775 392 826 q 373 703 392 733 q 324 651 354 672 q 253 621 293 631 q 171 611 214 611 q 86 617 131 611 q 13 636 42 624 l 38 725 q 99 710 72 714 q 160 706 126 706 q 233 726 204 706 q 263 786 263 747 q 238 836 263 815 q 156 857 213 857 l 78 857 l 78 946 l 133 946 q 217 968 189 946 q 246 1028 246 990 q 217 1083 246 1067 q 157 1100 189 1100 q 108 1095 133 1100 q 56 1078 82 1090 l 28 1160 z "},"⁴":{"ha":536,"x_min":26,"x_max":507,"o":"m 279 1182 l 419 1182 l 419 847 l 507 847 l 507 760 l 419 760 l 419 618 l 299 618 l 299 760 l 26 760 l 26 835 l 279 1182 m 256 993 l 149 847 l 299 847 l 299 992 l 303 1069 l 300 1069 l 256 993 z "},"⁵":{"ha":468,"x_min":31,"x_max":426,"o":"m 404 1185 l 404 1093 l 175 1093 l 161 976 q 187 979 174 978 q 215 981 200 981 q 372 933 317 981 q 426 810 426 885 q 408 727 426 764 q 358 665 390 690 q 282 625 326 639 q 183 611 238 611 q 105 617 143 611 q 31 638 67 622 l 56 728 q 110 711 83 717 q 176 706 138 706 q 269 735 238 706 q 300 806 300 764 q 266 873 300 851 q 174 894 232 894 q 112 890 139 894 q 60 879 85 886 l 88 1182 l 404 1185 z "},"⁶":{"ha":500,"x_min":31,"x_max":468,"o":"m 156 956 q 208 992 175 979 q 269 1004 240 1004 q 414 952 360 1004 q 468 817 468 900 q 454 735 468 772 q 413 670 440 697 q 346 627 386 643 q 254 611 306 611 q 172 626 213 611 q 101 675 132 642 q 50 760 69 708 q 31 883 31 811 q 50 1022 31 964 q 105 1118 69 1081 q 191 1174 140 1156 q 303 1192 242 1192 q 369 1185 336 1192 q 429 1167 401 1178 l 401 1075 q 356 1092 378 1086 q 306 1099 335 1099 q 194 1057 231 1099 q 153 957 157 1015 l 156 956 m 153 824 q 179 740 153 774 q 256 706 206 706 q 319 735 297 706 q 342 813 342 765 q 316 888 342 864 q 246 913 290 913 q 199 901 222 913 q 165 871 176 890 q 156 851 160 861 q 153 824 153 842 z "},"⁷":{"ha":442,"x_min":28,"x_max":422,"o":"m 422 1182 l 422 1100 l 163 599 l 58 643 l 300 1086 l 28 1086 l 28 1182 l 422 1182 z "},"⁸":{"ha":494,"x_min":32,"x_max":461,"o":"m 143 910 q 70 967 89 933 q 51 1038 51 1001 q 63 1094 51 1067 q 100 1143 75 1121 q 162 1178 125 1165 q 249 1192 199 1192 q 340 1178 303 1192 q 401 1142 378 1164 q 435 1093 425 1121 q 446 1038 446 1065 q 425 967 446 1000 q 347 914 404 935 l 347 911 q 435 855 408 892 q 461 776 461 818 q 407 658 461 704 q 246 611 353 611 q 158 624 197 611 q 90 658 118 636 q 47 708 63 679 q 32 771 32 738 q 56 853 32 819 q 143 907 79 888 l 143 910 m 171 1035 q 250 953 171 975 q 308 985 292 964 q 325 1035 325 1007 q 307 1081 325 1061 q 249 1100 289 1100 q 190 1081 208 1100 q 171 1035 171 1061 m 247 868 q 158 781 158 847 q 179 730 158 754 q 249 706 200 706 q 315 728 293 706 q 336 782 336 751 q 313 837 336 814 q 247 868 290 860 z "},"⁹":{"ha":497,"x_min":31,"x_max":465,"o":"m 342 846 q 288 810 321 822 q 225 799 254 799 q 148 812 183 799 q 87 849 113 825 q 46 910 61 874 q 31 992 31 946 q 88 1135 31 1079 q 249 1192 144 1192 q 333 1176 293 1192 q 401 1129 372 1161 q 448 1047 431 1097 q 465 924 465 996 q 391 687 465 763 q 190 611 317 611 q 130 616 163 611 q 74 631 97 621 l 96 721 q 190 704 143 704 q 256 716 229 704 q 302 747 283 728 q 331 792 321 767 q 346 844 342 817 l 342 846 m 340 982 q 318 1062 340 1026 q 246 1097 296 1097 q 182 1069 207 1097 q 157 994 157 1042 q 184 917 157 943 q 254 890 211 890 q 302 901 282 890 q 332 931 322 913 q 339 953 338 940 q 340 982 340 967 z "},"⁽":{"ha":308,"x_min":49,"x_max":282,"o":"m 281 1247 q 226 1165 249 1204 q 188 1084 203 1125 q 167 999 174 1043 q 160 900 160 954 q 187 715 160 800 q 282 547 214 631 l 219 496 q 94 678 139 579 q 49 899 49 776 q 94 1119 49 1021 q 221 1299 140 1217 l 281 1247 z "},"⁾":{"ha":308,"x_min":26,"x_max":260,"o":"m 28 547 q 81 628 58 589 q 119 709 104 668 q 142 795 135 750 q 149 894 149 840 q 122 1079 149 994 q 26 1247 94 1164 l 89 1299 q 215 1117 169 1215 q 260 896 260 1018 q 214 676 260 774 q 88 496 168 578 l 28 547 z "},"₀":{"ha":544,"x_min":31,"x_max":514,"o":"m 279 351 q 383 328 339 351 q 457 266 428 306 q 500 173 486 226 q 514 58 514 119 q 448 -151 514 -74 q 269 -229 382 -229 q 176 -210 219 -229 q 99 -153 132 -190 q 49 -62 67 -115 q 31 58 31 -8 q 99 274 31 197 q 279 351 167 351 m 157 60 q 188 -87 157 -37 q 272 -136 218 -136 q 360 -89 332 -136 q 388 58 388 -42 q 363 206 388 153 q 275 260 338 260 q 187 214 217 260 q 157 60 157 168 z "},"₁":{"ha":400,"x_min":31,"x_max":308,"o":"m 203 342 l 308 342 l 308 -222 l 178 -222 l 178 211 l 60 156 l 31 263 l 203 342 z "},"₂":{"ha":451,"x_min":21,"x_max":410,"o":"m 194 257 q 138 249 167 257 q 72 217 108 240 l 26 299 q 113 339 68 326 q 203 351 157 351 q 356 301 303 351 q 410 174 410 250 q 375 58 410 117 q 261 -61 340 0 l 174 -128 l 410 -128 l 410 -222 l 43 -222 l 21 -139 l 133 -44 q 250 74 215 26 q 285 169 285 121 q 259 233 285 208 q 194 257 233 257 z "},"₃":{"ha":421,"x_min":13,"x_max":392,"o":"m 28 319 q 109 345 72 339 q 182 351 146 351 q 255 340 221 351 q 315 309 289 329 q 357 261 342 289 q 372 199 372 233 q 263 68 372 100 l 263 65 q 356 20 321 54 q 392 -65 392 -14 q 373 -137 392 -107 q 324 -189 354 -168 q 253 -219 293 -210 q 171 -229 214 -229 q 86 -223 131 -229 q 13 -204 42 -217 l 38 -115 q 99 -131 72 -126 q 160 -135 126 -135 q 233 -114 204 -135 q 263 -54 263 -93 q 238 -4 263 -25 q 156 17 213 17 l 78 17 l 78 106 l 133 106 q 217 128 189 106 q 246 188 246 150 q 217 243 246 226 q 157 260 189 260 q 108 255 133 260 q 56 238 82 250 l 28 319 z "},"₄":{"ha":536,"x_min":26,"x_max":507,"o":"m 279 342 l 419 342 l 419 7 l 507 7 l 507 -81 l 419 -81 l 419 -222 l 299 -222 l 299 -81 l 26 -81 l 26 -6 l 279 342 m 256 153 l 149 7 l 299 7 l 299 151 l 303 229 l 300 229 l 256 153 z "},"₅":{"ha":468,"x_min":31,"x_max":426,"o":"m 404 344 l 404 253 l 175 253 l 161 136 q 187 139 174 138 q 215 140 200 140 q 372 92 317 140 q 426 -31 426 44 q 408 -113 426 -76 q 358 -176 390 -150 q 282 -215 326 -201 q 183 -229 238 -229 q 105 -224 143 -229 q 31 -203 67 -218 l 56 -112 q 110 -129 83 -124 q 176 -135 138 -135 q 269 -106 238 -135 q 300 -35 300 -76 q 266 33 300 11 q 174 54 232 54 q 112 50 139 54 q 60 39 85 46 l 88 342 l 404 344 z "},"₆":{"ha":500,"x_min":31,"x_max":468,"o":"m 156 115 q 208 151 175 139 q 269 164 240 164 q 414 112 360 164 q 468 -24 468 60 q 454 -106 468 -68 q 413 -170 440 -143 q 346 -213 386 -197 q 254 -229 306 -229 q 172 -214 213 -229 q 101 -165 132 -199 q 50 -81 69 -132 q 31 43 31 -29 q 50 182 31 124 q 105 278 69 240 q 191 333 140 315 q 303 351 242 351 q 369 344 336 351 q 429 326 401 338 l 401 235 q 356 252 378 246 q 306 258 335 258 q 194 217 231 258 q 153 117 157 175 l 156 115 m 153 -17 q 179 -101 153 -67 q 256 -135 206 -135 q 319 -105 297 -135 q 342 -28 342 -75 q 316 48 342 24 q 246 72 290 72 q 199 61 222 72 q 165 31 176 50 q 156 11 160 21 q 153 -17 153 1 z "},"₇":{"ha":442,"x_min":28,"x_max":422,"o":"m 422 342 l 422 260 l 163 -242 l 58 -197 l 300 246 l 28 246 l 28 342 l 422 342 z "},"₈":{"ha":494,"x_min":32,"x_max":461,"o":"m 143 69 q 70 127 89 93 q 51 197 51 161 q 63 253 51 226 q 100 303 75 281 q 162 338 125 325 q 249 351 199 351 q 340 338 303 351 q 401 302 378 324 q 435 253 425 281 q 446 197 446 225 q 425 127 446 160 q 347 74 404 94 l 347 71 q 435 15 408 51 q 461 -64 461 -22 q 407 -183 461 -136 q 246 -229 353 -229 q 158 -217 197 -229 q 90 -183 118 -204 q 47 -132 63 -161 q 32 -69 32 -103 q 56 13 32 -21 q 143 67 79 47 l 143 69 m 171 194 q 250 113 171 135 q 308 145 292 124 q 325 194 325 167 q 307 240 325 221 q 249 260 289 260 q 190 240 208 260 q 171 194 171 221 m 247 28 q 158 -60 158 7 q 179 -110 158 -86 q 249 -135 200 -135 q 315 -112 293 -135 q 336 -58 336 -89 q 313 -3 336 -26 q 247 28 290 19 z "},"₉":{"ha":497,"x_min":31,"x_max":465,"o":"m 342 6 q 288 -30 321 -18 q 225 -42 254 -42 q 148 -28 183 -42 q 87 9 113 -15 q 46 69 61 33 q 31 151 31 106 q 88 295 31 239 q 249 351 144 351 q 333 336 293 351 q 401 289 372 321 q 448 206 431 257 q 465 83 465 156 q 391 -153 465 -78 q 190 -229 317 -229 q 130 -224 163 -229 q 74 -210 97 -219 l 96 -119 q 190 -136 143 -136 q 256 -124 229 -136 q 302 -93 283 -112 q 331 -49 321 -74 q 346 4 342 -24 l 342 6 m 340 142 q 318 222 340 186 q 246 257 296 257 q 182 229 207 257 q 157 154 157 201 q 184 76 157 103 q 254 50 211 50 q 302 61 282 50 q 332 90 322 72 q 339 113 338 100 q 340 142 340 126 z "},"₍":{"ha":308,"x_min":49,"x_max":282,"o":"m 281 414 q 226 331 249 371 q 188 251 203 292 q 167 165 174 210 q 160 67 160 121 q 187 -118 160 -33 q 282 -286 214 -203 l 219 -337 q 94 -156 139 -254 q 49 65 49 -57 q 94 285 49 188 q 221 465 140 383 l 281 414 z "},"₎":{"ha":308,"x_min":26,"x_max":260,"o":"m 28 -286 q 81 -205 58 -244 q 119 -124 104 -165 q 142 -38 135 -83 q 149 61 149 7 q 122 246 149 161 q 26 414 94 331 l 89 465 q 215 283 169 382 q 260 63 260 185 q 214 -158 260 -60 q 88 -337 168 -256 l 28 -286 z "},"ℓ":{"ha":744,"x_min":42,"x_max":697,"o":"m 697 104 q 583 19 649 51 q 425 -14 518 -14 q 247 47 315 -14 q 178 228 178 108 l 178 244 l 100 192 l 42 290 q 74 312 56 300 q 110 336 92 324 q 145 361 128 349 q 175 385 163 374 l 175 696 q 193 832 175 775 q 244 926 211 889 q 320 982 276 964 q 417 1000 364 1000 q 506 983 467 1000 q 574 938 546 967 q 616 871 601 910 q 631 788 631 832 q 609 669 631 726 q 549 555 588 611 q 457 442 511 499 q 336 329 403 386 l 336 261 q 345 192 336 219 q 370 147 354 164 q 406 124 386 131 q 449 117 426 117 q 542 142 500 117 q 619 204 583 168 l 697 104 m 336 489 q 394 556 365 519 q 444 630 422 592 q 481 708 467 668 q 494 785 494 747 q 474 863 494 839 q 421 886 453 886 q 363 851 390 886 q 336 725 336 815 l 336 489 z "}}}
